<svg width="59" height="59" viewBox="0 0 59 59" fill="none" xmlns="http://www.w3.org/2000/svg">
<g clip-path="url(#clip0_27_74)">
<path d="M22.039 44.2498C21.7467 46.3008 20.7243 48.1775 19.1595 49.5351C17.5947 50.8928 15.5925 51.6402 13.5208 51.6402C11.4492 51.6402 9.44704 50.8928 7.88222 49.5351C6.3174 48.1775 5.29497 46.3008 5.00272 44.2498H2.45834V14.7498C2.45834 14.0978 2.71735 13.4726 3.17837 13.0115C3.6394 12.5505 4.26469 12.2915 4.91668 12.2915H39.3333C39.9853 12.2915 40.6106 12.5505 41.0717 13.0115C41.5327 13.4726 41.7917 14.0978 41.7917 14.7498V19.6665H49.1667L56.5417 29.6375V44.2498H51.539C51.2467 46.3008 50.2243 48.1775 48.6595 49.5351C47.0947 50.8928 45.0925 51.6402 43.0208 51.6402C40.9492 51.6402 38.947 50.8928 37.3822 49.5351C35.8174 48.1775 34.795 46.3008 34.5027 44.2498H22.039ZM36.875 17.2082H7.37501V36.9978C8.34498 36.0075 9.53982 35.2663 10.8579 34.8372C12.1759 34.408 13.5781 34.3037 14.9451 34.533C16.3122 34.7623 17.6036 35.3186 18.7094 36.1543C19.8153 36.9901 20.7028 38.0806 21.2966 39.3332H35.2451C35.6581 38.4654 36.2113 37.6763 36.875 36.9978V17.2082ZM41.7917 31.9582H51.625V31.2575L46.6887 24.5832H41.7917V31.9582ZM43.0208 46.7082C43.9992 46.7082 44.9374 46.3195 45.6292 45.6278C46.3209 44.936 46.7096 43.9978 46.7096 43.0194C46.7096 42.0411 46.3209 41.1029 45.6292 40.4111C44.9374 39.7193 43.9992 39.3307 43.0208 39.3307C42.0425 39.3307 41.1043 39.7193 40.4125 40.4111C39.7207 41.1029 39.3321 42.0411 39.3321 43.0194C39.3321 43.9978 39.7207 44.936 40.4125 45.6278C41.1043 46.3195 42.0425 46.7082 43.0208 46.7082ZM17.2083 43.0207C17.2083 42.5364 17.113 42.0569 16.9277 41.6095C16.7423 41.1621 16.4707 40.7556 16.1283 40.4132C15.7859 40.0708 15.3794 39.7992 14.932 39.6139C14.4846 39.4286 14.0051 39.3332 13.5208 39.3332C13.0366 39.3332 12.5571 39.4286 12.1097 39.6139C11.6623 39.7992 11.2558 40.0708 10.9134 40.4132C10.571 40.7556 10.2994 41.1621 10.114 41.6095C9.92872 42.0569 9.83334 42.5364 9.83334 43.0207C9.83334 43.9987 10.2218 44.9366 10.9134 45.6281C11.6049 46.3197 12.5429 46.7082 13.5208 46.7082C14.4988 46.7082 15.4368 46.3197 16.1283 45.6281C16.8198 44.9366 17.2083 43.9987 17.2083 43.0207Z" fill="#D2B574"/>
</g>
<defs>
<clipPath id="clip0_27_74">
<rect width="59" height="59" fill="white"/>
</clipPath>
</defs>
</svg>
