<svg width="59" height="59" viewBox="0 0 59 59" fill="none" xmlns="http://www.w3.org/2000/svg">
<g clip-path="url(#clip0_27_30)">
<path d="M4.91667 54.0833C4.91667 48.8673 6.98869 43.865 10.6769 40.1768C14.3651 36.4886 19.3674 34.4166 24.5833 34.4166C29.7993 34.4166 34.8016 36.4886 38.4898 40.1768C42.178 43.865 44.25 48.8673 44.25 54.0833H39.3333C39.3333 50.1713 37.7793 46.4196 35.0132 43.6534C32.247 40.8873 28.4953 39.3333 24.5833 39.3333C20.6714 39.3333 16.9197 40.8873 14.1535 43.6534C11.3873 46.4196 9.83333 50.1713 9.83333 54.0833H4.91667ZM24.5833 31.9583C16.434 31.9583 9.83333 25.3576 9.83333 17.2083C9.83333 9.05888 16.434 2.45825 24.5833 2.45825C32.7327 2.45825 39.3333 9.05888 39.3333 17.2083C39.3333 25.3576 32.7327 31.9583 24.5833 31.9583ZM24.5833 27.0416C30.0163 27.0416 34.4167 22.6412 34.4167 17.2083C34.4167 11.7753 30.0163 7.37492 24.5833 7.37492C19.1504 7.37492 14.75 11.7753 14.75 17.2083C14.75 22.6412 19.1504 27.0416 24.5833 27.0416ZM44.9482 36.1448C48.403 37.7007 51.3349 40.2213 53.3915 43.4035C55.4482 46.5858 56.5421 50.2943 56.5417 54.0833H51.625C51.6256 51.2414 50.8053 48.4598 49.2628 46.073C47.7202 43.6862 45.5211 41.7957 42.9299 40.6288L44.9457 36.1448H44.9482ZM43.2568 8.39021C45.7337 9.41115 47.8514 11.1449 49.3412 13.3714C50.8311 15.5979 51.626 18.2168 51.625 20.8958C51.626 24.2694 50.3656 27.5215 48.0912 30.0133C45.8169 32.505 42.6931 34.0564 39.3333 34.3625V29.4139C41.1548 29.153 42.8447 28.3151 44.1549 27.023C45.4651 25.731 46.3265 24.053 46.6128 22.2354C46.8991 20.4177 46.5952 18.5562 45.7456 16.924C44.896 15.2918 43.5456 13.9749 41.8925 13.1668L43.2568 8.39021Z" fill="#D2B574"/>
</g>
<defs>
<clipPath id="clip0_27_30">
<rect width="59" height="59" fill="white"/>
</clipPath>
</defs>
</svg>
