<svg width="113" height="113" viewBox="0 0 113 113" fill="none" xmlns="http://www.w3.org/2000/svg">
<path d="M56.041 111.803C86.8377 111.803 111.803 86.8375 111.803 56.0407C111.803 25.244 86.8377 0.27832 56.041 0.27832C25.2443 0.27832 0.278564 25.244 0.278564 56.0407C0.278564 86.8375 25.2443 111.803 56.041 111.803Z" fill="#F0F0F0"/>
<path d="M56.041 112.082C44.9571 112.082 34.1222 108.795 24.9063 102.637C15.6904 96.4795 8.5075 87.7271 4.26589 77.4869C0.0242819 67.2468 -1.08552 55.9788 1.07684 45.1079C3.23919 34.2371 8.57657 24.2515 16.414 16.414C24.2515 8.57657 34.2371 3.23919 45.1079 1.07684C55.9788 -1.08552 67.2468 0.0242819 77.4869 4.26589C87.7271 8.5075 96.4795 15.6904 102.637 24.9063C108.795 34.1222 112.082 44.9571 112.082 56.041C112.082 70.904 106.178 85.1582 95.6679 95.6679C85.1582 106.178 70.904 112.082 56.041 112.082ZM56.041 0.55775C45.0674 0.55775 34.3403 3.81178 25.2161 9.90836C16.092 16.0049 8.98055 24.6702 4.78116 34.8085C0.581765 44.9467 -0.516988 56.1025 1.62384 66.8652C3.76468 77.6279 9.04894 87.5141 16.8084 95.2735C24.5679 103.033 34.454 108.317 45.2167 110.458C55.9794 112.599 67.1353 111.5 77.2735 107.301C87.4117 103.101 96.077 95.99 102.174 86.8658C108.27 77.7416 111.524 67.0145 111.524 56.041C111.524 48.7548 110.089 41.54 107.301 34.8085C104.512 28.0769 100.426 21.9605 95.2735 16.8084C90.1214 11.6563 84.005 7.56945 77.2735 4.78116C70.542 1.99287 63.3271 0.55775 56.041 0.55775Z" fill="#E3E3E3"/>
<path d="M41.8764 32.6213C46.509 32.6213 51.0376 33.995 54.8896 36.5688C58.7415 39.1426 61.7437 42.8007 63.5165 47.0808C65.2893 51.3608 65.7532 56.0704 64.8494 60.614C63.9456 65.1576 61.7148 69.3312 58.439 72.607C55.1632 75.8828 50.9896 78.1136 46.446 79.0174C41.9024 79.9212 37.1928 79.4574 32.9127 77.6845C28.6327 75.9117 24.9745 72.9095 22.4008 69.0576C19.827 65.2057 18.4533 60.677 18.4533 56.0444C18.4533 49.8322 20.9211 43.8744 25.3137 39.4818C29.7064 35.0891 35.6642 32.6213 41.8764 32.6213ZM41.8764 28.1602C36.3621 28.1602 30.9716 29.7953 26.3866 32.8589C21.8016 35.9225 18.228 40.2769 16.1178 45.3715C14.0076 50.466 13.4554 56.072 14.5312 61.4803C15.607 66.8887 18.2624 71.8566 22.1616 75.7558C26.0608 79.655 31.0287 82.3104 36.4371 83.3862C41.8454 84.462 47.4514 83.9098 52.5459 81.7996C57.6405 79.6894 61.9949 76.1158 65.0585 71.5308C68.1221 66.9458 69.7572 61.5554 69.7572 56.041C69.7572 48.6466 66.8198 41.555 61.5911 36.3263C56.3625 31.0976 49.2708 28.1602 41.8764 28.1602Z" fill="#444444"/>
<path d="M93.1776 83.9216H64.8483C64.5573 83.9145 64.2806 83.7939 64.0773 83.5855C63.8741 83.3772 63.7603 83.0976 63.7603 82.8065C63.7603 82.5154 63.8741 82.2359 64.0773 82.0275C64.2806 81.8192 64.5573 81.6985 64.8483 81.6914H93.1776C93.4686 81.6985 93.7453 81.8192 93.9485 82.0275C94.1518 82.2359 94.2656 82.5154 94.2656 82.8065C94.2656 83.0976 94.1518 83.3772 93.9485 83.5855C93.7453 83.7939 93.4686 83.9145 93.1776 83.9216Z" fill="#444444"/>
<path d="M93.1777 29.2755H64.8485C64.6998 29.2791 64.5518 29.253 64.4133 29.1986C64.2748 29.1442 64.1486 29.0626 64.0421 28.9587C63.9356 28.8548 63.851 28.7307 63.7932 28.5935C63.7355 28.4564 63.7057 28.3092 63.7057 28.1604C63.7057 28.0116 63.7355 27.8643 63.7932 27.7272C63.851 27.5901 63.9356 27.4659 64.0421 27.362C64.1486 27.2581 64.2748 27.1766 64.4133 27.1222C64.5518 27.0678 64.6998 27.0416 64.8485 27.0453H93.1777C93.3264 27.0416 93.4744 27.0678 93.6129 27.1222C93.7514 27.1766 93.8776 27.2581 93.9841 27.362C94.0906 27.4659 94.1752 27.5901 94.233 27.7272C94.2907 27.8643 94.3205 28.0116 94.3205 28.1604C94.3205 28.3092 94.2907 28.4564 94.233 28.5935C94.1752 28.7307 94.0906 28.8548 93.9841 28.9587C93.8776 29.0626 93.7514 29.1442 93.6129 29.1986C93.4744 29.253 93.3264 29.2791 93.1777 29.2755Z" fill="#444444"/>
<path d="M86.6701 40.48C86.3743 40.48 86.0906 40.3625 85.8814 40.1533C85.6722 39.9441 85.5547 39.6604 85.5547 39.3645V28.1604C85.5618 27.8693 85.6824 27.5927 85.8908 27.3894C86.0991 27.1861 86.3787 27.0723 86.6698 27.0723C86.9609 27.0723 87.2405 27.1861 87.4488 27.3894C87.6572 27.5927 87.7778 27.8693 87.7849 28.1604V39.3645C87.7849 39.6602 87.6675 39.9439 87.4585 40.153C87.2494 40.3622 86.9659 40.4798 86.6701 40.48Z" fill="#444444"/>
<path d="M86.6702 83.9566C86.5237 83.9566 86.3787 83.9277 86.2434 83.8716C86.108 83.8156 85.9851 83.7334 85.8815 83.6299C85.7779 83.5263 85.6958 83.4033 85.6397 83.268C85.5836 83.1326 85.5548 82.9876 85.5548 82.8411V71.637C85.5511 71.4882 85.5773 71.3402 85.6317 71.2018C85.6861 71.0633 85.7676 70.9371 85.8715 70.8306C85.9754 70.7241 86.0996 70.6395 86.2367 70.5817C86.3738 70.5239 86.5211 70.4941 86.6699 70.4941C86.8187 70.4941 86.966 70.5239 87.1031 70.5817C87.2402 70.6395 87.3643 70.7241 87.4683 70.8306C87.5722 70.9371 87.6537 71.0633 87.7081 71.2018C87.7625 71.3402 87.7887 71.4882 87.785 71.637V82.8418C87.785 83.1376 87.6675 83.4213 87.4583 83.6305C87.2491 83.8397 86.9654 83.9572 86.6696 83.9572L86.6702 83.9566Z" fill="#444444"/>
<path fill-rule="evenodd" clip-rule="evenodd" d="M91.8998 44.8936C90.8017 44.9078 89.7277 45.2173 88.7906 45.7897C87.8534 46.3621 87.0876 47.1762 86.5736 48.1466C86.0593 47.1762 85.2934 46.3621 84.3561 45.7897C83.4188 45.2173 82.3448 44.9078 81.2466 44.8936C77.8318 44.8936 75.0633 47.854 75.0633 51.5057C75.0553 52.481 75.2578 53.4466 75.657 54.3365C76.0563 55.2264 76.6429 56.0197 77.3768 56.6622L86.5715 65.8569L95.7663 56.6622C96.5002 56.0197 97.0868 55.2264 97.486 54.3365C97.8853 53.4466 98.0878 52.481 98.0797 51.5057C98.0871 47.854 95.3186 44.8936 91.8998 44.8936ZM78.7708 47.6526C78.8085 47.6094 78.85 47.5696 78.8949 47.5339C79.1002 47.2765 79.3804 47.0893 79.6967 46.9982C80.0131 46.9071 80.3499 46.9167 80.6606 47.0255C80.9713 47.1343 81.2404 47.337 81.4308 47.6056C81.6212 47.8742 81.7234 48.1953 81.7232 48.5245C81.7232 49.4017 80.8788 49.6486 80.1359 50.1124C78.2332 51.299 79.4426 54.0661 80.1272 54.7782C80.495 55.1601 81.103 55.5615 80.7211 55.9286C80.3393 56.2957 79.9379 56.0776 79.5708 55.6957C78.1788 54.248 77.5748 53.2426 77.3734 51.8453C77.275 51.0863 77.3495 50.3149 77.5915 49.5888C77.8335 48.8627 78.2367 48.2008 78.7708 47.6526Z" fill="#A04F55"/>
</svg>
