<svg width="113" height="113" viewBox="0 0 113 113" fill="none" xmlns="http://www.w3.org/2000/svg">
<g clip-path="url(#clip0_395_1066)">
<path d="M56.1229 111.803C86.9196 111.803 111.885 86.8375 111.885 56.0407C111.885 25.244 86.9196 0.27832 56.1229 0.27832C25.3262 0.27832 0.360474 25.244 0.360474 56.0407C0.360474 86.8375 25.3262 111.803 56.1229 111.803Z" fill="#F0F0F0"/>
<path d="M56.1229 112.082C45.039 112.082 34.2041 108.795 24.9882 102.637C15.7723 96.4795 8.58941 87.7271 4.3478 77.4869C0.106191 67.2468 -1.00361 55.9788 1.15875 45.1079C3.3211 34.2371 8.65848 24.2515 16.4959 16.414C24.3334 8.57657 34.319 3.23919 45.1898 1.07684C56.0607 -1.08552 67.3287 0.0242819 77.5688 4.26589C87.809 8.5075 96.5614 15.6904 102.719 24.9063C108.877 34.1222 112.164 44.9571 112.164 56.041C112.164 70.904 106.26 85.1582 95.7498 95.6679C85.2401 106.178 70.9859 112.082 56.1229 112.082ZM56.1229 0.55775C45.1493 0.55775 34.4222 3.81178 25.2981 9.90836C16.1739 16.0049 9.06246 24.6702 4.86307 34.8085C0.663675 44.9467 -0.435079 56.1025 1.70575 66.8652C3.84659 77.6279 9.13085 87.5141 16.8903 95.2735C24.6498 103.033 34.536 108.317 45.2986 110.458C56.0613 112.599 67.2172 111.5 77.3554 107.301C87.4936 103.101 96.1589 95.99 102.255 86.8658C108.352 77.7416 111.606 67.0145 111.606 56.041C111.606 48.7548 110.171 41.54 107.383 34.8085C104.594 28.0769 100.508 21.9605 95.3554 16.8084C90.2034 11.6563 84.0869 7.56945 77.3554 4.78116C70.6239 1.99287 63.409 0.55775 56.1229 0.55775Z" fill="#E3E3E3"/>
<path d="M55.1544 30.5158C54.8585 30.5158 54.5748 30.3983 54.3656 30.1891C54.1564 29.9799 54.0389 29.6962 54.0389 29.4004V22.5969C54.0353 22.4482 54.0614 22.3002 54.1158 22.1617C54.1702 22.0232 54.2518 21.897 54.3557 21.7905C54.4596 21.6841 54.5837 21.5994 54.7208 21.5416C54.858 21.4839 55.0052 21.4541 55.154 21.4541C55.3028 21.4541 55.4501 21.4839 55.5872 21.5416C55.7243 21.5994 55.8485 21.6841 55.9524 21.7905C56.0563 21.897 56.1378 22.0232 56.1922 22.1617C56.2466 22.3002 56.2728 22.4482 56.2691 22.5969V29.4004C56.2691 29.6961 56.1517 29.9797 55.9427 30.1889C55.7336 30.398 55.4501 30.5156 55.1544 30.5158Z" fill="#A04F55"/>
<path d="M32.8078 40.2383C32.6613 40.2384 32.5162 40.2096 32.3809 40.1536C32.2455 40.0975 32.1226 40.0152 32.0192 39.9115L27.2084 35.1007C27.1016 34.9978 27.0163 34.8747 26.9577 34.7386C26.899 34.6024 26.868 34.4559 26.8666 34.3077C26.8652 34.1594 26.8934 34.0124 26.9495 33.8751C27.0056 33.7379 27.0884 33.6132 27.1933 33.5083C27.2981 33.4035 27.4228 33.3206 27.5601 33.2645C27.6973 33.2084 27.8444 33.1803 27.9926 33.1817C28.1409 33.1831 28.2874 33.214 28.4235 33.2727C28.5597 33.3314 28.6828 33.4166 28.7856 33.5235L33.5964 38.3343C33.7523 38.4903 33.8585 38.689 33.9015 38.9053C33.9446 39.1217 33.9225 39.3459 33.8381 39.5497C33.7537 39.7535 33.6107 39.9277 33.4273 40.0502C33.244 40.1728 33.0284 40.2382 32.8078 40.2383Z" fill="#A04F55"/>
<path d="M23.8815 62.9148H17.0773C16.7863 62.9077 16.5096 62.787 16.3064 62.5787C16.1031 62.3703 15.9893 62.0908 15.9893 61.7997C15.9893 61.5086 16.1031 61.229 16.3064 61.0207C16.5096 60.8123 16.7863 60.6917 17.0773 60.6846H23.8815C24.1725 60.6917 24.4492 60.8123 24.6525 61.0207C24.8558 61.229 24.9695 61.5086 24.9695 61.7997C24.9695 62.0908 24.8558 62.3703 24.6525 62.5787C24.4492 62.787 24.1725 62.9077 23.8815 62.9148Z" fill="#A04F55"/>
<path d="M94.3575 61.7901H87.5541C87.4053 61.7938 87.2574 61.7676 87.1189 61.7132C86.9804 61.6588 86.8542 61.5773 86.7477 61.4734C86.6412 61.3695 86.5566 61.2453 86.4988 61.1082C86.441 60.9711 86.4113 60.8238 86.4113 60.675C86.4113 60.5262 86.441 60.379 86.4988 60.2418C86.5566 60.1047 86.6412 59.9806 86.7477 59.8767C86.8542 59.7728 86.9804 59.6912 87.1189 59.6368C87.2574 59.5824 87.4053 59.5563 87.5541 59.5599H94.3575C94.6485 59.567 94.9252 59.6877 95.1285 59.896C95.3318 60.1044 95.4456 60.3839 95.4456 60.675C95.4456 60.9661 95.3318 61.2457 95.1285 61.454C94.9252 61.6624 94.6485 61.783 94.3575 61.7901Z" fill="#A04F55"/>
<path d="M77.8312 39.4444C77.6106 39.4443 77.3951 39.3788 77.2117 39.2563C77.0283 39.1337 76.8854 38.9595 76.801 38.7557C76.7166 38.5519 76.6945 38.3277 76.7375 38.1114C76.7805 37.895 76.8867 37.6963 77.0426 37.5403L81.8534 32.7295C81.9563 32.6227 82.0793 32.5375 82.2155 32.4788C82.3517 32.4201 82.4981 32.3892 82.6464 32.3877C82.7947 32.3863 82.9417 32.4145 83.079 32.4706C83.2162 32.5267 83.3409 32.6096 83.4457 32.7144C83.5506 32.8192 83.6335 32.9439 83.6895 33.0812C83.7456 33.2184 83.7738 33.3655 83.7724 33.5137C83.771 33.662 83.74 33.8085 83.6814 33.9446C83.6227 34.0808 83.5374 34.2039 83.4306 34.3067L78.6198 39.1168C78.5164 39.2206 78.3935 39.3029 78.2582 39.359C78.1228 39.4151 77.9777 39.4439 77.8312 39.4437V39.4444Z" fill="#A04F55"/>
<path d="M44.8905 80.4414H35.1985C34.9026 80.4414 34.6189 80.3238 34.4097 80.1146C34.2005 79.9055 34.083 79.6217 34.083 79.3259V52.1028C34.083 51.9563 34.1119 51.8112 34.1679 51.6759C34.224 51.5406 34.3061 51.4176 34.4097 51.314C34.5133 51.2104 34.6363 51.1283 34.7716 51.0722C34.9069 51.0162 35.052 50.9873 35.1985 50.9873H44.8905C45.037 50.9873 45.1821 51.0162 45.3174 51.0722C45.4527 51.1283 45.5757 51.2104 45.6793 51.314C45.7828 51.4176 45.865 51.5406 45.9211 51.6759C45.9771 51.8112 46.006 51.9563 46.006 52.1028V79.3232C46.0063 79.4699 45.9777 79.6153 45.9218 79.7509C45.8659 79.8865 45.7838 80.0098 45.6802 80.1137C45.5766 80.2176 45.4535 80.3 45.318 80.3562C45.1825 80.4124 45.0372 80.4414 44.8905 80.4414ZM36.3146 78.2105H43.7751V53.2209H36.3146V78.2105Z" fill="#444444"/>
<path d="M78.8969 61.237C78.8912 60.2223 78.5286 59.242 77.8728 58.4678C78.6606 57.9664 79.2645 57.2228 79.5935 56.3488C79.9226 55.4748 79.9592 54.5176 79.6977 53.621C79.4362 52.7245 78.8908 51.937 78.1434 51.377C77.3961 50.817 76.4872 50.5146 75.5533 50.5153H66.4706C64.8961 50.5153 64.8961 50.2583 64.8961 49.022C64.9452 47.7829 65.2904 46.5735 65.9028 45.4951C66.8363 43.8148 67.2712 41.9031 67.1565 39.9843C67.1438 36.0769 65.427 34.5863 64.4048 34.044C63.7521 33.703 63.0196 33.5442 62.2843 33.5842C61.549 33.6242 60.838 33.8617 60.2262 34.2715C60.1523 34.3228 60.0847 34.3828 60.0249 34.45C59.4253 35.2654 59.045 36.2209 58.9202 37.2253C58.6931 38.4793 58.2724 39.6904 57.6732 40.8152C56.9727 41.9757 56.1537 43.0605 55.2295 44.0522C54.0487 45.2154 53.1499 46.6335 52.602 48.1979C51.7496 50.3071 50.2605 52.0979 48.3422 53.3208H46.0059V55.551H48.5898C48.7395 55.5511 48.8877 55.521 49.0254 55.4624C50.8114 54.7047 53.3275 52.2409 54.6825 49.0046C54.6987 48.9663 54.7126 48.9271 54.7241 48.8871C55.1094 47.569 55.9013 46.6676 56.9047 45.5274C57.928 44.4229 58.8339 43.2153 59.6081 41.924C60.3197 40.607 60.8211 39.187 61.094 37.7152C61.1846 37.1339 61.3586 36.5688 61.6108 36.0373C61.8785 35.89 62.1784 35.8111 62.484 35.8079C62.7895 35.8046 63.0911 35.8769 63.3618 36.0185C64.3572 36.5447 64.9276 38.0065 64.9276 40.03C64.9276 40.0588 64.9276 40.0877 64.9276 40.1159C65.0214 41.6629 64.6582 43.2033 63.8833 44.5455C63.1281 45.9204 62.7094 47.4547 62.6618 49.0227C62.6618 51.6328 63.8028 52.7462 66.4672 52.7462H75.5492C75.8264 52.7413 76.1019 52.7916 76.3594 52.8942C76.617 52.9969 76.8515 53.1498 77.0493 53.3441C77.2471 53.5384 77.4042 53.7701 77.5115 54.0258C77.6187 54.2815 77.6739 54.5559 77.6739 54.8332C77.6739 55.1104 77.6187 55.3849 77.5115 55.6406C77.4042 55.8963 77.2471 56.128 77.0493 56.3223C76.8515 56.5166 76.617 56.6695 76.3594 56.7721C76.1019 56.8748 75.8264 56.9251 75.5492 56.9201H75.4653C75.3649 56.9214 75.265 56.9365 75.1687 56.9651C74.9722 56.9364 74.774 56.9214 74.5754 56.9201H74.4915C74.3428 56.9165 74.1948 56.9426 74.0563 56.997C73.9178 57.0514 73.7916 57.133 73.6851 57.2369C73.5786 57.3408 73.494 57.465 73.4362 57.6021C73.3785 57.7392 73.3487 57.8864 73.3487 58.0352C73.3487 58.184 73.3785 58.3313 73.4362 58.4684C73.494 58.6055 73.5786 58.7297 73.6851 58.8336C73.7916 58.9375 73.9178 59.0191 74.0563 59.0735C74.1948 59.1279 74.3428 59.154 74.4915 59.1504H74.5754C75.1288 59.1504 75.6595 59.3702 76.0508 59.7615C76.4422 60.1528 76.662 60.6836 76.662 61.237C76.662 61.7904 76.4422 62.3211 76.0508 62.7124C75.6595 63.1037 75.1288 63.3236 74.5754 63.3236H73.0673C72.9186 63.3199 72.7706 63.3461 72.6321 63.4005C72.4936 63.4549 72.3674 63.5364 72.261 63.6403C72.1545 63.7442 72.0698 63.8684 72.0121 64.0055C71.9543 64.1426 71.9245 64.2899 71.9245 64.4387C71.9245 64.5875 71.9543 64.7347 72.0121 64.8718C72.0698 65.009 72.1545 65.1331 72.261 65.237C72.3674 65.3409 72.4936 65.4225 72.6321 65.4769C72.7706 65.5313 72.9186 65.5574 73.0673 65.5538H73.3358C73.613 65.5488 73.8884 65.5991 74.146 65.7018C74.4035 65.8044 74.638 65.9573 74.8358 66.1516C75.0336 66.3459 75.1908 66.5776 75.298 66.8333C75.4052 67.089 75.4605 67.3635 75.4605 67.6407C75.4605 67.918 75.4052 68.1925 75.298 68.4481C75.1908 68.7038 75.0336 68.9355 74.8358 69.1298C74.638 69.3241 74.4035 69.477 74.146 69.5797C73.8884 69.6823 73.613 69.7326 73.3358 69.7277H71.8284C71.6796 69.724 71.5317 69.7502 71.3932 69.8046C71.2547 69.859 71.1285 69.9405 71.022 70.0444C70.9155 70.1483 70.8309 70.2725 70.7731 70.4096C70.7153 70.5467 70.6856 70.694 70.6856 70.8428C70.6856 70.9916 70.7153 71.1388 70.7731 71.276C70.8309 71.4131 70.9155 71.5372 71.022 71.6411C71.1285 71.745 71.2547 71.8266 71.3932 71.881C71.5317 71.9354 71.6796 71.9615 71.8284 71.9579H71.9123C72.4657 71.9579 72.9964 72.1777 73.3877 72.569C73.779 72.9604 73.9989 73.4911 73.9989 74.0445C73.9989 74.5979 73.779 75.1286 73.3877 75.5199C72.9964 75.9113 72.4657 76.1311 71.9123 76.1311H52.2134L49.4254 74.6062C49.2606 74.517 49.0759 74.4708 48.8885 74.472H46.0026V76.7022H48.6019L51.3905 78.2271C51.5554 78.3163 51.74 78.3625 51.9275 78.3613H71.9123C72.7147 78.3628 73.5016 78.1401 74.1843 77.7185C74.8671 77.2969 75.4186 76.693 75.7766 75.9749C76.1347 75.2568 76.2852 74.453 76.2111 73.654C76.137 72.855 75.8413 72.0925 75.3573 71.4525C75.9161 71.1577 76.4032 70.7436 76.784 70.2394C77.1648 69.7353 77.4299 69.1535 77.5607 68.5354C77.6914 67.9173 77.6845 67.2779 77.5404 66.6628C77.3964 66.0476 77.1187 65.4717 76.7271 64.9759C77.3854 64.5982 77.9326 64.0536 78.3134 63.3971C78.6942 62.7406 78.8952 61.9953 78.8963 61.2363L78.8969 61.237Z" fill="#444444"/>
</g>
<defs>
<clipPath id="clip0_395_1066">
<rect width="112.082" height="112.082" fill="white" transform="translate(0.0819092)"/>
</clipPath>
</defs>
</svg>
