<svg width="45" height="55" viewBox="0 0 45 55" fill="none" xmlns="http://www.w3.org/2000/svg">
<path d="M22.5 54.3312L6.85518 38.6864C3.76097 35.5921 1.65379 31.6498 0.800116 27.358C-0.0535602 23.0662 0.384604 18.6176 2.0592 14.5748C3.7338 10.532 6.56961 7.07658 10.208 4.64546C13.8465 2.21435 18.1241 0.916748 22.5 0.916748C26.8759 0.916748 31.1535 2.21435 34.792 4.64546C38.4304 7.07658 41.2662 10.532 42.9408 14.5748C44.6154 18.6176 45.0536 23.0662 44.1999 27.358C43.3462 31.6498 41.2391 35.5921 38.1448 38.6864L22.5 54.3312ZM34.6688 35.2103C37.0752 32.8036 38.714 29.7374 39.3778 26.3993C40.0417 23.0613 39.7008 19.6014 38.3983 16.457C37.0958 13.3127 34.8901 10.6253 32.0603 8.73447C29.2304 6.84367 25.9034 5.83446 22.5 5.83446C19.0966 5.83446 15.7696 6.84367 12.9398 8.73447C10.1099 10.6253 7.90426 13.3127 6.60175 16.457C5.29924 19.6014 4.95836 23.0613 5.6222 26.3993C6.28605 29.7374 7.92481 32.8036 10.3313 35.2103L22.5 47.3791L34.6688 35.2103ZM22.5 27.9582C21.196 27.9582 19.9455 27.4402 19.0234 26.5182C18.1013 25.5961 17.5833 24.3455 17.5833 23.0416C17.5833 21.7376 18.1013 20.487 19.0234 19.5649C19.9455 18.6429 21.196 18.1249 22.5 18.1249C23.804 18.1249 25.0546 18.6429 25.9766 19.5649C26.8987 20.487 27.4167 21.7376 27.4167 23.0416C27.4167 24.3455 26.8987 25.5961 25.9766 26.5182C25.0546 27.4402 23.804 27.9582 22.5 27.9582Z" fill="#D2B574"/>
</svg>
