<svg width="1120" height="220" viewBox="0 0 1120 220" fill="none" xmlns="http://www.w3.org/2000/svg">
<g clip-path="url(#clip0_408_3160)">
<path d="M4476.83 -2920.51H-243.45V1260.77H4476.83V-2920.51Z" fill="#F5F5F5" stroke="black" stroke-miterlimit="10"/>
<path d="M302 51.1104H202V267.11H302V51.1104Z" stroke="#CCCCCC" stroke-miterlimit="10"/>
<path d="M202 51.1104H102V267.11H202V51.1104Z" stroke="#CCCCCC" stroke-miterlimit="10"/>
<path d="M102 51.1104H2V267.11H102V51.1104Z" stroke="#CCCCCC" stroke-miterlimit="10"/>
<path d="M218 174H86V256H218V174Z" fill="#F5F5F5"/>
<path d="M902 51.1104H802V267.11H902V51.1104Z" stroke="#CCCCCC" stroke-miterlimit="10"/>
<path d="M802 51.1104H702V267.11H802V51.1104Z" stroke="#CCCCCC" stroke-miterlimit="10"/>
<path d="M1002 51.1104H902V267.11H1002V51.1104Z" stroke="#CCCCCC" stroke-miterlimit="10"/>
<path d="M918 174H786V256H918V174Z" fill="#F5F5F5"/>
<path d="M1102 51H2V83H1102V51Z" fill="#CCCCCC"/>
<path d="M852 159.5C866.304 159.5 877.9 147.904 877.9 133.6C877.9 119.296 866.304 107.7 852 107.7C837.696 107.7 826.1 119.296 826.1 133.6C826.1 147.904 837.696 159.5 852 159.5Z" fill="#FFFBD5"/>
<path d="M752 159.5C766.304 159.5 777.9 147.904 777.9 133.6C777.9 119.296 766.304 107.7 752 107.7C737.696 107.7 726.1 119.296 726.1 133.6C726.1 147.904 737.696 159.5 752 159.5Z" fill="#FFFCDF"/>
<path d="M652 159.5C666.304 159.5 677.9 147.904 677.9 133.6C677.9 119.296 666.304 107.7 652 107.7C637.696 107.7 626.1 119.296 626.1 133.6C626.1 147.904 637.696 159.5 652 159.5Z" fill="#FFFDE8"/>
<path d="M552 159.5C566.304 159.5 577.9 147.904 577.9 133.6C577.9 119.296 566.304 107.7 552 107.7C537.696 107.7 526.1 119.296 526.1 133.6C526.1 147.904 537.696 159.5 552 159.5Z" fill="#FFFDEC"/>
<path d="M452 159.5C466.304 159.5 477.9 147.904 477.9 133.6C477.9 119.296 466.304 107.7 452 107.7C437.696 107.7 426.1 119.296 426.1 133.6C426.1 147.904 437.696 159.5 452 159.5Z" fill="#FFFEF1"/>
<path d="M352 159.5C366.304 159.5 377.9 147.904 377.9 133.6C377.9 119.296 366.304 107.7 352 107.7C337.696 107.7 326.1 119.296 326.1 133.6C326.1 147.904 337.696 159.5 352 159.5Z" fill="#FFFEF5"/>
<path d="M252 159.5C266.304 159.5 277.9 147.904 277.9 133.6C277.9 119.296 266.304 107.7 252 107.7C237.696 107.7 226.1 119.296 226.1 133.6C226.1 147.904 237.696 159.5 252 159.5Z" fill="#FFFEF8"/>
<path d="M152 159.5C166.304 159.5 177.9 147.904 177.9 133.6C177.9 119.296 166.304 107.7 152 107.7C137.696 107.7 126.1 119.296 126.1 133.6C126.1 147.904 137.696 159.5 152 159.5Z" fill="#FFFFFC"/>
<path d="M52.0001 159.5C66.3043 159.5 77.9001 147.904 77.9001 133.6C77.9001 119.296 66.3043 107.7 52.0001 107.7C37.6959 107.7 26.1001 119.296 26.1001 133.6C26.1001 147.904 37.6959 159.5 52.0001 159.5Z" fill="white"/>
<path d="M702 51.1104H602V267.11H702V51.1104Z" stroke="#CCCCCC" stroke-miterlimit="10"/>
<path d="M602 51.1104H502V267.11H602V51.1104Z" stroke="#CCCCCC" stroke-miterlimit="10"/>
<path d="M502 51.1104H402V267.11H502V51.1104Z" stroke="#CCCCCC" stroke-miterlimit="10"/>
<path d="M402 51.1104H302V267.11H402V51.1104Z" stroke="#CCCCCC" stroke-miterlimit="10"/>
<path d="M850.52 71.5199H855.91V72.7499H849V61.3799H850.51L850.52 71.5199Z" fill="#444444"/>
<path d="M751.19 67.4599L749.8 68.9099V72.7499H748.3V61.3799H749.8V66.9999L754.86 61.3799H756.67L752.19 66.3799L757 72.7499H755.21L751.19 67.4599Z" fill="#444444"/>
<path d="M653.67 61.3799H655.18V69.4299C655.203 69.9029 655.125 70.3754 654.953 70.8165C654.781 71.2576 654.517 71.6574 654.18 71.9899C653.459 72.6251 652.52 72.955 651.56 72.9099C650.601 72.9667 649.657 72.6556 648.92 72.0399C648.599 71.7257 648.348 71.3462 648.186 70.927C648.024 70.5078 647.954 70.0586 647.98 69.6099H649.48C649.464 69.8856 649.503 70.1619 649.594 70.4227C649.685 70.6835 649.826 70.9238 650.01 71.1299C650.217 71.3226 650.461 71.4708 650.728 71.5654C650.995 71.66 651.278 71.699 651.56 71.6799C651.839 71.6924 652.117 71.6464 652.377 71.5447C652.638 71.4431 652.873 71.2882 653.07 71.0899C653.271 70.8687 653.425 70.6098 653.525 70.3282C653.625 70.0466 653.667 69.7481 653.65 69.4499L653.67 61.3799Z" fill="#444444"/>
<path d="M552.75 72.7499H551.25V61.3799H552.75V72.7499Z" fill="#444444"/>
<path d="M456.36 72.7499H454.85V67.4899H449.12V72.7499H447.62V61.3799H449.12V66.2699H454.85V61.3799H456.36V72.7499Z" fill="#444444"/>
<path d="M356.27 71.2599C355.866 71.8217 355.306 72.2528 354.66 72.4999C353.889 72.7843 353.072 72.9233 352.25 72.9099C351.381 72.9261 350.525 72.6974 349.78 72.2499C349.053 71.8121 348.471 71.1682 348.11 70.3999C347.696 69.5289 347.487 68.5743 347.5 67.6099V66.6099C347.408 65.1759 347.834 63.7565 348.7 62.6099C349.118 62.1351 349.639 61.7615 350.223 61.5173C350.807 61.273 351.438 61.1645 352.07 61.1999C353.105 61.1475 354.124 61.4706 354.94 62.1099C355.691 62.773 356.165 63.6937 356.27 64.6899H354.77C354.742 64.3647 354.651 64.0481 354.501 63.7584C354.35 63.4686 354.144 63.2114 353.894 63.0014C353.644 62.7914 353.355 62.6329 353.044 62.5348C352.733 62.4367 352.405 62.4011 352.08 62.4299C351.642 62.4022 351.203 62.4846 350.805 62.6698C350.407 62.8549 350.061 63.1369 349.8 63.4899C349.222 64.4055 348.946 65.4792 349.01 66.5599V67.4799C348.961 68.55 349.271 69.6058 349.89 70.4799C350.163 70.8443 350.521 71.1373 350.932 71.334C351.342 71.5308 351.795 71.6254 352.25 71.6099C352.75 71.621 353.249 71.5569 353.73 71.4199C354.114 71.3028 354.459 71.0853 354.73 70.7899V68.3099H352.09V67.0899H356.22L356.27 71.2599Z" fill="#444444"/>
<path d="M255.17 67.7299H250.4V72.7299H248.9V61.3799H255.9V62.5999H250.4V66.4999H255.17V67.7299Z" fill="#444444"/>
<path d="M155.2 67.4899H150.27V71.4899H156V72.7199H148.77V61.3799H155.92V62.5999H150.27V66.2699H155.2V67.4899Z" fill="#444444"/>
<path d="M48.0698 72.7503V61.3803H51.2798C52.1987 61.3589 53.1067 61.5833 53.9098 62.0303C54.6686 62.4657 55.2811 63.1165 55.6698 63.9003C56.0932 64.7653 56.309 65.7173 56.2998 66.6803V67.4103C56.3191 68.3861 56.1066 69.3526 55.6798 70.2303C55.2839 71.0097 54.6687 71.6563 53.9098 72.0903C53.0833 72.5341 52.1579 72.7612 51.2198 72.7503H48.0698ZM49.5698 62.6003V71.5203H51.1498C51.6508 71.551 52.1524 71.4711 52.619 71.2862C53.0857 71.1012 53.5059 70.8159 53.8498 70.4503C54.5547 69.5838 54.9112 68.4856 54.8498 67.3703V66.7103C54.908 65.6345 54.5858 64.5725 53.9398 63.7103C53.6163 63.3475 53.2159 63.0615 52.7679 62.8729C52.3198 62.6844 51.8354 62.5981 51.3498 62.6203L49.5698 62.6003Z" fill="#444444"/>
<path d="M952 159.5C966.304 159.5 977.9 147.904 977.9 133.6C977.9 119.296 966.304 107.7 952 107.7C937.696 107.7 926.1 119.296 926.1 133.6C926.1 147.904 937.696 159.5 952 159.5Z" fill="#FFFACD"/>
<path d="M1052 159.5C1066.3 159.5 1077.9 147.904 1077.9 133.6C1077.9 119.296 1066.3 107.7 1052 107.7C1037.7 107.7 1026.1 119.296 1026.1 133.6C1026.1 147.904 1037.7 159.5 1052 159.5Z" fill="#FFF9C3"/>
<path d="M858.8 117.18L861.91 109.67" stroke="#444444" stroke-linejoin="bevel"/>
<path d="M868.42 126.8L875.93 123.69" stroke="#444444" stroke-linejoin="bevel"/>
<path d="M868.42 140.4L875.93 143.51" stroke="#444444" stroke-linejoin="bevel"/>
<path d="M858.8 150.02L861.91 157.53" stroke="#444444" stroke-linejoin="bevel"/>
<path d="M845.2 150.02L842.09 157.53" stroke="#444444" stroke-linejoin="bevel"/>
<path d="M835.58 140.4L828.07 143.51" stroke="#444444" stroke-linejoin="bevel"/>
<path d="M835.58 126.8L828.07 123.69" stroke="#444444" stroke-linejoin="bevel"/>
<path d="M845.2 117.18L842.09 109.67" stroke="#444444" stroke-linejoin="bevel"/>
<path d="M858.8 117.18L870.31 115.29L868.42 126.8L877.9 133.6L868.42 140.4L870.31 151.91L858.8 150.02L852 159.5L845.2 150.02L833.69 151.91L835.58 140.4L826.1 133.6L835.58 126.8L833.69 115.29L845.2 117.18L852 107.7L858.8 117.18Z" stroke="#444444" stroke-linejoin="bevel"/>
<path d="M842.14 123.74L852 119.66L861.86 123.74L865.94 133.6L861.86 143.46L852 147.54L842.14 143.46L838.06 133.6L842.14 123.74Z" stroke="#444444" stroke-linejoin="bevel"/>
<path d="M852 119.66L858.8 117.18L861.86 123.74L868.42 126.8L865.94 133.6L868.42 140.4L861.86 143.46L858.8 150.02L852 147.54L845.2 150.02L842.14 143.46L835.58 140.4L838.06 133.6L835.58 126.8L842.14 123.74L845.2 117.18L852 119.66Z" stroke="#444444" stroke-linejoin="bevel"/>
<path d="M852 159.5C866.304 159.5 877.9 147.904 877.9 133.6C877.9 119.296 866.304 107.7 852 107.7C837.696 107.7 826.1 119.296 826.1 133.6C826.1 147.904 837.696 159.5 852 159.5Z" stroke="#444444" stroke-linejoin="bevel"/>
<path d="M758.8 117.18L761.91 109.67" stroke="#444444" stroke-linejoin="bevel"/>
<path d="M768.42 126.8L775.93 123.69" stroke="#444444" stroke-linejoin="bevel"/>
<path d="M768.42 140.4L775.93 143.51" stroke="#444444" stroke-linejoin="bevel"/>
<path d="M758.8 150.02L761.91 157.53" stroke="#444444" stroke-linejoin="bevel"/>
<path d="M745.2 150.02L742.09 157.53" stroke="#444444" stroke-linejoin="bevel"/>
<path d="M735.58 140.4L728.07 143.51" stroke="#444444" stroke-linejoin="bevel"/>
<path d="M735.58 126.8L728.07 123.69" stroke="#444444" stroke-linejoin="bevel"/>
<path d="M745.2 117.18L742.09 109.67" stroke="#444444" stroke-linejoin="bevel"/>
<path d="M758.8 117.18L770.31 115.29L768.42 126.8L777.9 133.6L768.42 140.4L770.31 151.91L758.8 150.02L752 159.5L745.2 150.02L733.69 151.91L735.58 140.4L726.1 133.6L735.58 126.8L733.69 115.29L745.2 117.18L752 107.7L758.8 117.18Z" stroke="#444444" stroke-linejoin="bevel"/>
<path d="M742.14 123.74L752 119.66L761.86 123.74L765.94 133.6L761.86 143.46L752 147.54L742.14 143.46L738.06 133.6L742.14 123.74Z" stroke="#444444" stroke-linejoin="bevel"/>
<path d="M752 119.66L758.8 117.18L761.86 123.74L768.42 126.8L765.94 133.6L768.42 140.4L761.86 143.46L758.8 150.02L752 147.54L745.2 150.02L742.14 143.46L735.58 140.4L738.06 133.6L735.58 126.8L742.14 123.74L745.2 117.18L752 119.66Z" stroke="#444444" stroke-linejoin="bevel"/>
<path d="M752 159.5C766.304 159.5 777.9 147.904 777.9 133.6C777.9 119.296 766.304 107.7 752 107.7C737.696 107.7 726.1 119.296 726.1 133.6C726.1 147.904 737.696 159.5 752 159.5Z" stroke="#444444" stroke-linejoin="bevel"/>
<path d="M658.8 117.18L661.91 109.67" stroke="#444444" stroke-linejoin="bevel"/>
<path d="M668.42 126.8L675.93 123.69" stroke="#444444" stroke-linejoin="bevel"/>
<path d="M668.42 140.4L675.93 143.51" stroke="#444444" stroke-linejoin="bevel"/>
<path d="M658.8 150.02L661.91 157.53" stroke="#444444" stroke-linejoin="bevel"/>
<path d="M645.2 150.02L642.09 157.53" stroke="#444444" stroke-linejoin="bevel"/>
<path d="M635.58 140.4L628.07 143.51" stroke="#444444" stroke-linejoin="bevel"/>
<path d="M635.58 126.8L628.07 123.69" stroke="#444444" stroke-linejoin="bevel"/>
<path d="M645.2 117.18L642.09 109.67" stroke="#444444" stroke-linejoin="bevel"/>
<path d="M658.8 117.18L670.31 115.29L668.42 126.8L677.9 133.6L668.42 140.4L670.31 151.91L658.8 150.02L652 159.5L645.2 150.02L633.69 151.91L635.58 140.4L626.1 133.6L635.58 126.8L633.69 115.29L645.2 117.18L652 107.7L658.8 117.18Z" stroke="#444444" stroke-linejoin="bevel"/>
<path d="M642.14 123.74L652 119.66L661.86 123.74L665.94 133.6L661.86 143.46L652 147.54L642.14 143.46L638.06 133.6L642.14 123.74Z" stroke="#444444" stroke-linejoin="bevel"/>
<path d="M652 119.66L658.8 117.18L661.86 123.74L668.42 126.8L665.94 133.6L668.42 140.4L661.86 143.46L658.8 150.02L652 147.54L645.2 150.02L642.14 143.46L635.58 140.4L638.06 133.6L635.58 126.8L642.14 123.74L645.2 117.18L652 119.66Z" stroke="#444444" stroke-linejoin="bevel"/>
<path d="M652 159.5C666.304 159.5 677.9 147.904 677.9 133.6C677.9 119.296 666.304 107.7 652 107.7C637.696 107.7 626.1 119.296 626.1 133.6C626.1 147.904 637.696 159.5 652 159.5Z" stroke="#444444" stroke-linejoin="bevel"/>
<path d="M558.8 117.18L561.91 109.67" stroke="#444444" stroke-linejoin="bevel"/>
<path d="M568.42 126.8L575.93 123.69" stroke="#444444" stroke-linejoin="bevel"/>
<path d="M568.42 140.4L575.93 143.51" stroke="#444444" stroke-linejoin="bevel"/>
<path d="M558.8 150.02L561.91 157.53" stroke="#444444" stroke-linejoin="bevel"/>
<path d="M545.2 150.02L542.09 157.53" stroke="#444444" stroke-linejoin="bevel"/>
<path d="M535.58 140.4L528.07 143.51" stroke="#444444" stroke-linejoin="bevel"/>
<path d="M535.58 126.8L528.07 123.69" stroke="#444444" stroke-linejoin="bevel"/>
<path d="M545.2 117.18L542.09 109.67" stroke="#444444" stroke-linejoin="bevel"/>
<path d="M558.8 117.18L570.31 115.29L568.42 126.8L577.9 133.6L568.42 140.4L570.31 151.91L558.8 150.02L552 159.5L545.2 150.02L533.69 151.91L535.58 140.4L526.1 133.6L535.58 126.8L533.69 115.29L545.2 117.18L552 107.7L558.8 117.18Z" stroke="#444444" stroke-linejoin="bevel"/>
<path d="M542.14 123.74L552 119.66L561.86 123.74L565.94 133.6L561.86 143.46L552 147.54L542.14 143.46L538.06 133.6L542.14 123.74Z" stroke="#444444" stroke-linejoin="bevel"/>
<path d="M552 119.66L558.8 117.18L561.86 123.74L568.42 126.8L565.94 133.6L568.42 140.4L561.86 143.46L558.8 150.02L552 147.54L545.2 150.02L542.14 143.46L535.58 140.4L538.06 133.6L535.58 126.8L542.14 123.74L545.2 117.18L552 119.66Z" stroke="#444444" stroke-linejoin="bevel"/>
<path d="M552 159.5C566.304 159.5 577.9 147.904 577.9 133.6C577.9 119.296 566.304 107.7 552 107.7C537.696 107.7 526.1 119.296 526.1 133.6C526.1 147.904 537.696 159.5 552 159.5Z" stroke="#444444" stroke-linejoin="bevel"/>
<path d="M458.8 117.18L461.91 109.67" stroke="#444444" stroke-linejoin="bevel"/>
<path d="M468.42 126.8L475.93 123.69" stroke="#444444" stroke-linejoin="bevel"/>
<path d="M468.42 140.4L475.93 143.51" stroke="#444444" stroke-linejoin="bevel"/>
<path d="M458.8 150.02L461.91 157.53" stroke="#444444" stroke-linejoin="bevel"/>
<path d="M445.2 150.02L442.09 157.53" stroke="#444444" stroke-linejoin="bevel"/>
<path d="M435.58 140.4L428.07 143.51" stroke="#444444" stroke-linejoin="bevel"/>
<path d="M435.58 126.8L428.07 123.69" stroke="#444444" stroke-linejoin="bevel"/>
<path d="M445.2 117.18L442.09 109.67" stroke="#444444" stroke-linejoin="bevel"/>
<path d="M458.8 117.18L470.31 115.29L468.42 126.8L477.9 133.6L468.42 140.4L470.31 151.91L458.8 150.02L452 159.5L445.2 150.02L433.69 151.91L435.58 140.4L426.1 133.6L435.58 126.8L433.69 115.29L445.2 117.18L452 107.7L458.8 117.18Z" stroke="#444444" stroke-linejoin="bevel"/>
<path d="M442.14 123.74L452 119.66L461.86 123.74L465.94 133.6L461.86 143.46L452 147.54L442.14 143.46L438.06 133.6L442.14 123.74Z" stroke="#444444" stroke-linejoin="bevel"/>
<path d="M452 119.66L458.8 117.18L461.86 123.74L468.42 126.8L465.94 133.6L468.42 140.4L461.86 143.46L458.8 150.02L452 147.54L445.2 150.02L442.14 143.46L435.58 140.4L438.06 133.6L435.58 126.8L442.14 123.74L445.2 117.18L452 119.66Z" stroke="#444444" stroke-linejoin="bevel"/>
<path d="M452 159.5C466.304 159.5 477.9 147.904 477.9 133.6C477.9 119.296 466.304 107.7 452 107.7C437.696 107.7 426.1 119.296 426.1 133.6C426.1 147.904 437.696 159.5 452 159.5Z" stroke="#444444" stroke-linejoin="bevel"/>
<path d="M358.8 117.18L361.91 109.67" stroke="#444444" stroke-linejoin="bevel"/>
<path d="M368.42 126.8L375.93 123.69" stroke="#444444" stroke-linejoin="bevel"/>
<path d="M368.42 140.4L375.93 143.51" stroke="#444444" stroke-linejoin="bevel"/>
<path d="M358.8 150.02L361.91 157.53" stroke="#444444" stroke-linejoin="bevel"/>
<path d="M345.2 150.02L342.09 157.53" stroke="#444444" stroke-linejoin="bevel"/>
<path d="M335.58 140.4L328.07 143.51" stroke="#444444" stroke-linejoin="bevel"/>
<path d="M335.58 126.8L328.07 123.69" stroke="#444444" stroke-linejoin="bevel"/>
<path d="M345.2 117.18L342.09 109.67" stroke="#444444" stroke-linejoin="bevel"/>
<path d="M358.8 117.18L370.31 115.29L368.42 126.8L377.9 133.6L368.42 140.4L370.31 151.91L358.8 150.02L352 159.5L345.2 150.02L333.69 151.91L335.58 140.4L326.1 133.6L335.58 126.8L333.69 115.29L345.2 117.18L352 107.7L358.8 117.18Z" stroke="#444444" stroke-linejoin="bevel"/>
<path d="M342.14 123.74L352 119.66L361.86 123.74L365.94 133.6L361.86 143.46L352 147.54L342.14 143.46L338.06 133.6L342.14 123.74Z" stroke="#444444" stroke-linejoin="bevel"/>
<path d="M352 119.66L358.8 117.18L361.86 123.74L368.42 126.8L365.94 133.6L368.42 140.4L361.86 143.46L358.8 150.02L352 147.54L345.2 150.02L342.14 143.46L335.58 140.4L338.06 133.6L335.58 126.8L342.14 123.74L345.2 117.18L352 119.66Z" stroke="#444444" stroke-linejoin="bevel"/>
<path d="M352 159.5C366.304 159.5 377.9 147.904 377.9 133.6C377.9 119.296 366.304 107.7 352 107.7C337.696 107.7 326.1 119.296 326.1 133.6C326.1 147.904 337.696 159.5 352 159.5Z" stroke="#444444" stroke-linejoin="bevel"/>
<path d="M258.8 117.18L261.91 109.67" stroke="#444444" stroke-linejoin="bevel"/>
<path d="M268.42 126.8L275.93 123.69" stroke="#444444" stroke-linejoin="bevel"/>
<path d="M268.42 140.4L275.93 143.51" stroke="#444444" stroke-linejoin="bevel"/>
<path d="M258.8 150.02L261.91 157.53" stroke="#444444" stroke-linejoin="bevel"/>
<path d="M245.2 150.02L242.09 157.53" stroke="#444444" stroke-linejoin="bevel"/>
<path d="M235.58 140.4L228.07 143.51" stroke="#444444" stroke-linejoin="bevel"/>
<path d="M235.58 126.8L228.07 123.69" stroke="#444444" stroke-linejoin="bevel"/>
<path d="M245.2 117.18L242.09 109.67" stroke="#444444" stroke-linejoin="bevel"/>
<path d="M258.8 117.18L270.31 115.29L268.42 126.8L277.9 133.6L268.42 140.4L270.31 151.91L258.8 150.02L252 159.5L245.2 150.02L233.69 151.91L235.58 140.4L226.1 133.6L235.58 126.8L233.69 115.29L245.2 117.18L252 107.7L258.8 117.18Z" stroke="#444444" stroke-linejoin="bevel"/>
<path d="M242.14 123.74L252 119.66L261.86 123.74L265.94 133.6L261.86 143.46L252 147.54L242.14 143.46L238.06 133.6L242.14 123.74Z" stroke="#444444" stroke-linejoin="bevel"/>
<path d="M252 119.66L258.8 117.18L261.86 123.74L268.42 126.8L265.94 133.6L268.42 140.4L261.86 143.46L258.8 150.02L252 147.54L245.2 150.02L242.14 143.46L235.58 140.4L238.06 133.6L235.58 126.8L242.14 123.74L245.2 117.18L252 119.66Z" stroke="#444444" stroke-linejoin="bevel"/>
<path d="M252 159.5C266.304 159.5 277.9 147.904 277.9 133.6C277.9 119.296 266.304 107.7 252 107.7C237.696 107.7 226.1 119.296 226.1 133.6C226.1 147.904 237.696 159.5 252 159.5Z" stroke="#444444" stroke-linejoin="bevel"/>
<path d="M158.8 117.18L161.91 109.67" stroke="#444444" stroke-linejoin="bevel"/>
<path d="M168.42 126.8L175.93 123.69" stroke="#444444" stroke-linejoin="bevel"/>
<path d="M168.42 140.4L175.93 143.51" stroke="#444444" stroke-linejoin="bevel"/>
<path d="M158.8 150.02L161.91 157.53" stroke="#444444" stroke-linejoin="bevel"/>
<path d="M145.2 150.02L142.09 157.53" stroke="#444444" stroke-linejoin="bevel"/>
<path d="M135.58 140.4L128.07 143.51" stroke="#444444" stroke-linejoin="bevel"/>
<path d="M135.58 126.8L128.07 123.69" stroke="#444444" stroke-linejoin="bevel"/>
<path d="M145.2 117.18L142.09 109.67" stroke="#444444" stroke-linejoin="bevel"/>
<path d="M158.8 117.18L170.31 115.29L168.42 126.8L177.9 133.6L168.42 140.4L170.31 151.91L158.8 150.02L152 159.5L145.2 150.02L133.69 151.91L135.58 140.4L126.1 133.6L135.58 126.8L133.69 115.29L145.2 117.18L152 107.7L158.8 117.18Z" stroke="#444444" stroke-linejoin="bevel"/>
<path d="M142.14 123.74L152 119.66L161.86 123.74L165.94 133.6L161.86 143.46L152 147.54L142.14 143.46L138.06 133.6L142.14 123.74Z" stroke="#444444" stroke-linejoin="bevel"/>
<path d="M152 119.66L158.8 117.18L161.86 123.74L168.42 126.8L165.94 133.6L168.42 140.4L161.86 143.46L158.8 150.02L152 147.54L145.2 150.02L142.14 143.46L135.58 140.4L138.06 133.6L135.58 126.8L142.14 123.74L145.2 117.18L152 119.66Z" stroke="#444444" stroke-linejoin="bevel"/>
<path d="M152 159.5C166.304 159.5 177.9 147.904 177.9 133.6C177.9 119.296 166.304 107.7 152 107.7C137.696 107.7 126.1 119.296 126.1 133.6C126.1 147.904 137.696 159.5 152 159.5Z" stroke="#444444" stroke-linejoin="bevel"/>
<path d="M58.7998 117.18L61.9098 109.67" stroke="#444444" stroke-linejoin="bevel"/>
<path d="M68.4199 126.8L75.9299 123.69" stroke="#444444" stroke-linejoin="bevel"/>
<path d="M68.4199 140.4L75.9299 143.51" stroke="#444444" stroke-linejoin="bevel"/>
<path d="M58.7998 150.02L61.9098 157.53" stroke="#444444" stroke-linejoin="bevel"/>
<path d="M45.1998 150.02L42.0898 157.53" stroke="#444444" stroke-linejoin="bevel"/>
<path d="M35.5798 140.4L28.0698 143.51" stroke="#444444" stroke-linejoin="bevel"/>
<path d="M35.5798 126.8L28.0698 123.69" stroke="#444444" stroke-linejoin="bevel"/>
<path d="M45.1998 117.18L42.0898 109.67" stroke="#444444" stroke-linejoin="bevel"/>
<path d="M58.8001 117.18L70.3101 115.29L68.4201 126.8L77.9001 133.6L68.4201 140.4L70.3101 151.91L58.8001 150.02L52.0001 159.5L45.2001 150.02L33.6901 151.91L35.5801 140.4L26.1001 133.6L35.5801 126.8L33.6901 115.29L45.2001 117.18L52.0001 107.7L58.8001 117.18Z" stroke="#444444" stroke-linejoin="bevel"/>
<path d="M42.1401 123.74L52.0001 119.66L61.8601 123.74L65.9401 133.6L61.8601 143.46L52.0001 147.54L42.1401 143.46L38.0601 133.6L42.1401 123.74Z" stroke="#444444" stroke-linejoin="bevel"/>
<path d="M52.0001 119.66L58.8001 117.18L61.8601 123.74L68.4201 126.8L65.9401 133.6L68.4201 140.4L61.8601 143.46L58.8001 150.02L52.0001 147.54L45.2001 150.02L42.1401 143.46L35.5801 140.4L38.0601 133.6L35.5801 126.8L42.1401 123.74L45.2001 117.18L52.0001 119.66Z" stroke="#444444" stroke-linejoin="bevel"/>
<path d="M52.0001 159.5C66.3043 159.5 77.9001 147.904 77.9001 133.6C77.9001 119.296 66.3043 107.7 52.0001 107.7C37.6959 107.7 26.1001 119.296 26.1001 133.6C26.1001 147.904 37.6959 159.5 52.0001 159.5Z" stroke="#444444" stroke-linejoin="bevel"/>
<path d="M958.8 117.18L961.91 109.67" stroke="#444444" stroke-linejoin="bevel"/>
<path d="M968.42 126.8L975.93 123.69" stroke="#444444" stroke-linejoin="bevel"/>
<path d="M968.42 140.4L975.93 143.51" stroke="#444444" stroke-linejoin="bevel"/>
<path d="M958.8 150.02L961.91 157.53" stroke="#444444" stroke-linejoin="bevel"/>
<path d="M945.2 150.02L942.09 157.53" stroke="#444444" stroke-linejoin="bevel"/>
<path d="M935.58 140.4L928.07 143.51" stroke="#444444" stroke-linejoin="bevel"/>
<path d="M935.58 126.8L928.07 123.69" stroke="#444444" stroke-linejoin="bevel"/>
<path d="M945.2 117.18L942.09 109.67" stroke="#444444" stroke-linejoin="bevel"/>
<path d="M958.8 117.18L970.31 115.29L968.42 126.8L977.9 133.6L968.42 140.4L970.31 151.91L958.8 150.02L952 159.5L945.2 150.02L933.69 151.91L935.58 140.4L926.1 133.6L935.58 126.8L933.69 115.29L945.2 117.18L952 107.7L958.8 117.18Z" stroke="#444444" stroke-linejoin="bevel"/>
<path d="M942.14 123.74L952 119.66L961.86 123.74L965.94 133.6L961.86 143.46L952 147.54L942.14 143.46L938.06 133.6L942.14 123.74Z" stroke="#444444" stroke-linejoin="bevel"/>
<path d="M952 119.66L958.8 117.18L961.86 123.74L968.42 126.8L965.94 133.6L968.42 140.4L961.86 143.46L958.8 150.02L952 147.54L945.2 150.02L942.14 143.46L935.58 140.4L938.06 133.6L935.58 126.8L942.14 123.74L945.2 117.18L952 119.66Z" stroke="#444444" stroke-linejoin="bevel"/>
<path d="M952 159.5C966.304 159.5 977.9 147.904 977.9 133.6C977.9 119.296 966.304 107.7 952 107.7C937.696 107.7 926.1 119.296 926.1 133.6C926.1 147.904 937.696 159.5 952 159.5Z" stroke="#444444" stroke-linejoin="bevel"/>
<path d="M1058.8 117.18L1061.91 109.67" stroke="#444444" stroke-linejoin="bevel"/>
<path d="M1068.42 126.8L1075.93 123.69" stroke="#444444" stroke-linejoin="bevel"/>
<path d="M1068.42 140.4L1075.93 143.51" stroke="#444444" stroke-linejoin="bevel"/>
<path d="M1058.8 150.02L1061.91 157.53" stroke="#444444" stroke-linejoin="bevel"/>
<path d="M1045.2 150.02L1042.09 157.53" stroke="#444444" stroke-linejoin="bevel"/>
<path d="M1035.58 140.4L1028.07 143.51" stroke="#444444" stroke-linejoin="bevel"/>
<path d="M1035.58 126.8L1028.07 123.69" stroke="#444444" stroke-linejoin="bevel"/>
<path d="M1045.2 117.18L1042.09 109.67" stroke="#444444" stroke-linejoin="bevel"/>
<path d="M1058.8 117.18L1070.31 115.29L1068.42 126.8L1077.9 133.6L1068.42 140.4L1070.31 151.91L1058.8 150.02L1052 159.5L1045.2 150.02L1033.69 151.91L1035.58 140.4L1026.1 133.6L1035.58 126.8L1033.69 115.29L1045.2 117.18L1052 107.7L1058.8 117.18Z" stroke="#444444" stroke-linejoin="bevel"/>
<path d="M1042.14 123.74L1052 119.66L1061.86 123.74L1065.94 133.6L1061.86 143.46L1052 147.54L1042.14 143.46L1038.06 133.6L1042.14 123.74Z" stroke="#444444" stroke-linejoin="bevel"/>
<path d="M1052 119.66L1058.8 117.18L1061.86 123.74L1068.42 126.8L1065.94 133.6L1068.42 140.4L1061.86 143.46L1058.8 150.02L1052 147.54L1045.2 150.02L1042.14 143.46L1035.58 140.4L1038.06 133.6L1035.58 126.8L1042.14 123.74L1045.2 117.18L1052 119.66Z" stroke="#444444" stroke-linejoin="bevel"/>
<path d="M1052 159.5C1066.3 159.5 1077.9 147.904 1077.9 133.6C1077.9 119.296 1066.3 107.7 1052 107.7C1037.7 107.7 1026.1 119.296 1026.1 133.6C1026.1 147.904 1037.7 159.5 1052 159.5Z" stroke="#444444" stroke-linejoin="bevel"/>
<path d="M948.27 61.3799L952 70.6599L955.72 61.3799H957.67V72.7499H956.17V68.3199L956.31 63.5399L952.57 72.7499H951.43L947.7 63.5599L947.85 68.3199V72.7499H946.35V61.3799H948.27Z" fill="#444444"/>
<path d="M1102 51.1104H1002V267.11H1102V51.1104Z" stroke="#CCCCCC" stroke-miterlimit="10"/>
<path d="M1048.07 72.7499H1046.56L1040.83 63.9999V72.7599H1039.32V61.3799H1040.83L1046.57 70.1799V61.3799H1048.07V72.7499Z" fill="#444444"/>
<path d="M1055.22 68.5101H1051.41V67.3301H1055.22V68.5101Z" fill="#444444"/>
<path d="M1058.86 71.5199H1065.37V72.7499H1057.09V71.6299L1063.32 62.6299H1057.19V61.3799H1065.12V62.4699L1058.86 71.5199Z" fill="#444444"/>
<path d="M402 19H2V51H402V19Z" fill="#A04F55"/>
<path d="M2 19V304" stroke="#A04F55" stroke-miterlimit="10"/>
<path d="M71.1499 41.0505V29.6805H74.5099C75.4913 29.6123 76.467 29.8765 77.2799 30.4305C77.6102 30.6973 77.8729 31.0384 78.0467 31.4258C78.2204 31.8133 78.3003 32.2363 78.2799 32.6605C78.293 33.2094 78.1242 33.7473 77.7999 34.1904C77.4703 34.6354 77.0082 34.9645 76.4799 35.1305C77.1155 35.2622 77.683 35.6169 78.0799 36.1305C78.476 36.627 78.688 37.2453 78.6799 37.8805C78.6979 38.3233 78.6175 38.7646 78.4446 39.1726C78.2717 39.5807 78.0106 39.9454 77.6799 40.2405C76.9122 40.8398 75.9522 41.1385 74.9799 41.0805L71.1499 41.0505ZM72.1499 34.7804H74.7799C75.446 34.8023 76.1004 34.6018 76.6399 34.2105C76.8515 34.0012 77.0196 33.752 77.1342 33.4774C77.2489 33.2027 77.308 32.9081 77.308 32.6105C77.308 32.3128 77.2489 32.0182 77.1342 31.7435C77.0196 31.4689 76.8515 31.2197 76.6399 31.0105C76.0236 30.6194 75.2978 30.4371 74.5699 30.4905H72.1699L72.1499 34.7804ZM72.1499 35.5905V40.2405H74.9999C75.7222 40.2902 76.4366 40.0652 76.9999 39.6105C77.2418 39.3922 77.4319 39.1228 77.5565 38.8218C77.681 38.5208 77.7369 38.1958 77.7199 37.8705C77.7319 37.5575 77.6735 37.2458 77.5489 36.9585C77.4242 36.6712 77.2366 36.4155 76.9999 36.2105C76.4627 35.773 75.7816 35.5519 75.0899 35.5905H72.1499Z" fill="white"/>
<path d="M85.3099 41.2096C84.6064 41.2268 83.9126 41.0429 83.3099 40.6796C82.7454 40.3162 82.2921 39.8041 81.9999 39.1996C81.6659 38.54 81.4977 37.8089 81.5099 37.0696V36.7296C81.5052 35.9719 81.6727 35.2231 81.9999 34.5396C82.2936 33.9201 82.7454 33.3889 83.3099 32.9996C83.8501 32.6341 84.4876 32.439 85.1399 32.4396C85.5999 32.4156 86.0593 32.4978 86.4824 32.6799C86.9056 32.862 87.2811 33.139 87.5799 33.4896C88.2179 34.3094 88.5376 35.3324 88.4799 36.3696V36.8896H82.4799V37.0696C82.4498 37.9418 82.7457 38.7939 83.3099 39.4596C83.5562 39.7727 83.8707 40.0255 84.2294 40.1988C84.588 40.3721 84.9815 40.4613 85.3799 40.4596C85.8393 40.4798 86.2966 40.3852 86.7103 40.1844C87.1241 39.9836 87.4814 39.683 87.7499 39.3096L88.3299 39.7596C87.9945 40.2415 87.5401 40.6283 87.0109 40.8824C86.4816 41.1365 85.8956 41.2492 85.3099 41.2096ZM85.1399 33.2096C84.8056 33.2046 84.474 33.2706 84.1671 33.4033C83.8603 33.5361 83.5851 33.7325 83.3599 33.9796C82.8534 34.5621 82.5453 35.2905 82.4799 36.0596H87.5499V35.9996C87.5615 35.2727 87.3173 34.5648 86.8599 33.9996C86.649 33.7515 86.3848 33.5543 86.0869 33.4227C85.7891 33.291 85.4653 33.2285 85.1399 33.2396V33.2096Z" fill="white"/>
<path d="M91.4002 30.1604C91.396 30.0777 91.4089 29.995 91.4381 29.9176C91.4674 29.8401 91.5124 29.7696 91.5702 29.7104C91.6312 29.6487 91.7047 29.6007 91.7858 29.5696C91.8668 29.5386 91.9536 29.5252 92.0402 29.5304C92.1267 29.5265 92.2131 29.5404 92.294 29.5714C92.3748 29.6024 92.4484 29.6497 92.5102 29.7104C92.5694 29.7691 92.6159 29.8393 92.6468 29.9167C92.6778 29.9941 92.6925 30.077 92.6902 30.1604C92.6918 30.2421 92.6766 30.3233 92.6456 30.399C92.6147 30.4746 92.5686 30.5432 92.5102 30.6004C92.4484 30.6611 92.3748 30.7084 92.294 30.7393C92.2131 30.7703 92.1267 30.7843 92.0402 30.7804C91.9536 30.7855 91.8668 30.7721 91.7858 30.7411C91.7047 30.7101 91.6312 30.6621 91.5702 30.6004C91.5136 30.5423 91.4694 30.4734 91.4401 30.3978C91.4109 30.3222 91.3973 30.2414 91.4002 30.1604ZM92.5002 41.0504H91.5602V32.6004H92.5002V41.0504Z" fill="white"/>
<path d="M105.69 41.0504H104.75V30.8004L101.66 32.0004V31.1304L105.54 29.6904H105.69V41.0504Z" fill="white"/>
<path d="M117.42 41.0497H110.3V40.3297L114.2 35.9097C114.712 35.3469 115.162 34.73 115.54 34.0697C115.778 33.6334 115.908 33.1465 115.92 32.6497C115.936 32.3375 115.888 32.0254 115.778 31.7329C115.668 31.4404 115.498 31.1737 115.28 30.9497C115.048 30.7324 114.774 30.5645 114.475 30.4562C114.176 30.3479 113.858 30.3015 113.54 30.3197C113.198 30.3053 112.856 30.3628 112.538 30.4885C112.219 30.6143 111.93 30.8054 111.69 31.0497C111.448 31.3106 111.262 31.6181 111.144 31.9534C111.025 32.2888 110.976 32.6448 111 32.9997H110.07C110.062 32.3892 110.21 31.7867 110.5 31.2497C110.778 30.724 111.201 30.2899 111.72 29.9997C112.277 29.6934 112.905 29.5382 113.54 29.5497C114.429 29.4938 115.305 29.7881 115.98 30.3697C116.279 30.6583 116.512 31.0077 116.664 31.3941C116.815 31.7806 116.882 32.1951 116.86 32.6097C116.84 33.2208 116.672 33.8179 116.37 34.3497C115.878 35.2 115.291 35.9917 114.62 36.7097L111.45 40.2897H117.45L117.42 41.0497Z" fill="white"/>
<path d="M122.4 34.8599H123.4C123.886 34.8685 124.367 34.7695 124.81 34.5699C125.182 34.4029 125.498 34.132 125.72 33.7899C125.935 33.4489 126.046 33.0529 126.04 32.6499C126.058 32.3378 126.012 32.0253 125.905 31.7313C125.799 31.4374 125.634 31.1682 125.42 30.9399C125.182 30.7231 124.902 30.5564 124.598 30.4499C124.294 30.3434 123.972 30.2992 123.65 30.3199C122.993 30.2914 122.35 30.5211 121.86 30.9599C121.628 31.176 121.445 31.4399 121.324 31.7333C121.203 32.0267 121.147 32.3428 121.16 32.6599H120.22C120.216 32.0931 120.368 31.5361 120.66 31.0499C120.957 30.563 121.388 30.171 121.9 29.9199C122.443 29.6484 123.043 29.5112 123.65 29.5199C124.544 29.47 125.421 29.7756 126.09 30.3699C126.394 30.6695 126.631 31.0305 126.784 31.4288C126.938 31.8272 127.005 32.2537 126.98 32.6799C126.976 33.2264 126.793 33.7566 126.46 34.1899C126.093 34.6576 125.595 35.0056 125.03 35.1899C125.663 35.3357 126.229 35.6874 126.64 36.1899C127.012 36.6884 127.206 37.2978 127.19 37.9199C127.2 38.3602 127.116 38.7975 126.943 39.2027C126.771 39.6079 126.514 39.9717 126.19 40.2699C125.487 40.8844 124.573 41.2033 123.64 41.1599C122.994 41.1655 122.355 41.0254 121.77 40.7499C121.236 40.5029 120.783 40.1115 120.46 39.6199C120.161 39.1323 120.002 38.5719 120 37.9999H121C120.99 38.3316 121.052 38.6615 121.181 38.967C121.311 39.2726 121.505 39.5465 121.75 39.7699C122.304 40.2453 123.021 40.4889 123.75 40.4499C124.433 40.4908 125.105 40.2689 125.63 39.8299C125.867 39.5972 126.051 39.3156 126.168 39.0048C126.286 38.694 126.334 38.3613 126.31 38.0299C126.332 37.7031 126.277 37.3758 126.15 37.0738C126.024 36.7718 125.828 36.5034 125.58 36.2899C124.955 35.8442 124.196 35.6287 123.43 35.6799H122.49L122.4 34.8599Z" fill="white"/>
<path d="M130.15 36.7502C130.081 35.6355 130.379 34.5288 131 33.6002C131.272 33.2275 131.631 32.9269 132.046 32.7247C132.461 32.5225 132.919 32.4249 133.38 32.4402C133.9 32.4179 134.416 32.5338 134.876 32.7763C135.337 33.0187 135.725 33.379 136 33.8202L136.05 32.6002H137V40.8802C137.052 41.83 136.725 42.7615 136.09 43.4702C135.769 43.8007 135.383 44.0604 134.956 44.2327C134.529 44.4049 134.07 44.4858 133.61 44.4702C133.027 44.4718 132.452 44.3383 131.93 44.0802C131.407 43.8395 130.956 43.4674 130.62 43.0002L131.15 42.4402C131.423 42.8111 131.778 43.1141 132.188 43.3257C132.597 43.5373 133.049 43.6517 133.51 43.6602C133.846 43.6795 134.183 43.628 134.498 43.5092C134.813 43.3903 135.1 43.2067 135.34 42.9702C135.804 42.422 136.04 41.7171 136 41.0002V40.0002C135.705 40.4132 135.31 40.7446 134.851 40.9632C134.393 41.1818 133.887 41.2806 133.38 41.2502C132.911 41.2564 132.447 41.1454 132.032 40.9271C131.616 40.7088 131.261 40.3902 131 40.0002C130.364 39.0697 130.051 37.9559 130.11 36.8302L130.15 36.7502ZM131.09 36.9102C131.042 37.8066 131.269 38.6962 131.74 39.4602C131.937 39.7621 132.21 40.0075 132.531 40.1723C132.852 40.3371 133.21 40.4156 133.57 40.4002C134.085 40.4228 134.595 40.2861 135.03 40.0088C135.465 39.7314 135.803 39.3269 136 38.8502V34.9202C135.797 34.417 135.449 33.9854 135 33.6802C134.561 33.393 134.045 33.2464 133.52 33.2602C133.16 33.2448 132.803 33.3211 132.481 33.4821C132.159 33.643 131.883 33.8833 131.68 34.1802C131.211 35.0094 131.006 35.9615 131.09 36.9102Z" fill="white"/>
<path d="M140.07 36.7003C140.059 35.9442 140.22 35.1954 140.54 34.5103C140.831 33.8851 141.296 33.3571 141.88 32.9899C142.463 32.6227 143.141 32.4319 143.83 32.4403C144.347 32.4235 144.86 32.5216 145.334 32.7273C145.808 32.9331 146.23 33.2415 146.57 33.6303C147.301 34.5049 147.675 35.6222 147.62 36.7603V37.0003C147.631 37.764 147.467 38.52 147.14 39.2103C146.851 39.8311 146.39 40.3554 145.81 40.7203C145.208 41.0841 144.514 41.268 143.81 41.2503C143.298 41.2516 142.791 41.1404 142.326 40.9244C141.861 40.7084 141.45 40.3929 141.12 40.0003C140.39 39.1217 140.015 38.0014 140.07 36.8603V36.7003ZM141 37.0003C140.963 37.8957 141.239 38.776 141.78 39.4903C142.03 39.7939 142.343 40.0385 142.699 40.2064C143.054 40.3743 143.442 40.4614 143.835 40.4614C144.228 40.4614 144.616 40.3743 144.972 40.2064C145.327 40.0385 145.641 39.7939 145.89 39.4903C146.442 38.7505 146.721 37.8425 146.68 36.9203V36.7003C146.687 36.0914 146.565 35.488 146.32 34.9303C146.109 34.4292 145.763 33.9965 145.32 33.6803C144.88 33.3858 144.36 33.2323 143.83 33.2403C143.442 33.2419 143.06 33.3329 142.713 33.5063C142.366 33.6798 142.064 33.931 141.83 34.2403C141.282 34.9815 141.006 35.8894 141.05 36.8103L141 37.0003Z" fill="white"/>
<path d="M151.75 41.0498H150.81V29.0498H151.75V41.0498Z" fill="white"/>
<path d="M155 36.7498C154.941 35.635 155.25 34.5316 155.88 33.6098C156.15 33.2339 156.508 32.9305 156.923 32.7264C157.338 32.5223 157.797 32.4238 158.26 32.4398C158.775 32.4161 159.287 32.5284 159.746 32.7653C160.204 33.0023 160.591 33.3556 160.87 33.7898V29.0498H161.8V41.0498H161V39.9298C160.706 40.3513 160.309 40.6904 159.847 40.9146C159.385 41.1387 158.873 41.2403 158.36 41.2098C157.886 41.2298 157.414 41.1293 156.989 40.9177C156.564 40.7061 156.2 40.3903 155.93 39.9998C155.289 39.0712 154.976 37.956 155.04 36.8298L155 36.7498ZM155.94 36.9098C155.892 37.8061 156.119 38.6958 156.59 39.4598C156.787 39.7617 157.06 40.0071 157.38 40.1719C157.701 40.3367 158.059 40.4152 158.42 40.3998C158.936 40.4282 159.448 40.2964 159.887 40.0225C160.325 39.7487 160.669 39.3461 160.87 38.8698V34.8698C160.69 34.3729 160.356 33.9461 159.918 33.6513C159.479 33.3564 158.958 33.2088 158.43 33.2298C158.072 33.2151 157.716 33.2919 157.396 33.4529C157.075 33.6138 156.802 33.8537 156.6 34.1498C156.122 34.9865 155.912 35.95 156 36.9098H155.94Z" fill="white"/>
<path d="M172.29 32.6004L172.35 33.4804C172.654 33.1388 173.031 32.8712 173.454 32.6979C173.877 32.5246 174.334 32.4502 174.79 32.4804C175.263 32.4374 175.737 32.5386 176.152 32.7706C176.566 33.0027 176.9 33.3547 177.11 33.7804C177.397 33.3626 177.785 33.0242 178.238 32.7969C178.691 32.5696 179.194 32.4607 179.7 32.4804C180.083 32.4494 180.468 32.5032 180.827 32.638C181.187 32.7728 181.512 32.9853 181.78 33.2604C182.284 33.9092 182.533 34.7203 182.48 35.5404V41.0904H180.58V35.5904C180.614 35.1672 180.489 34.7466 180.23 34.4104C180.073 34.2721 179.888 34.1678 179.689 34.1041C179.489 34.0405 179.278 34.0188 179.07 34.0404C178.686 34.0232 178.309 34.1478 178.01 34.3904C177.727 34.6259 177.524 34.9441 177.43 35.3004V41.0904H175.53V35.4904C175.553 35.2855 175.53 35.078 175.46 34.8838C175.391 34.6896 175.278 34.5138 175.131 34.37C174.983 34.2261 174.804 34.118 174.608 34.0539C174.412 33.9899 174.204 33.9715 174 34.0004C173.668 33.9776 173.337 34.0539 173.049 34.2195C172.76 34.385 172.528 34.6324 172.38 34.9304V41.0504H170.48V32.6004H172.29Z" fill="white"/>
<path d="M185.65 30.4001C185.645 30.2682 185.667 30.1367 185.713 30.0131C185.759 29.8896 185.83 29.7764 185.92 29.6801C186.026 29.5796 186.152 29.5021 186.29 29.4522C186.428 29.4023 186.574 29.3812 186.72 29.3901C186.865 29.3781 187.011 29.3979 187.147 29.448C187.283 29.4981 187.407 29.5773 187.51 29.6801C187.607 29.7734 187.684 29.8852 187.736 30.0089C187.789 30.1327 187.816 30.2657 187.816 30.4001C187.816 30.5345 187.789 30.6676 187.736 30.7913C187.684 30.915 187.607 31.0268 187.51 31.1201C187.406 31.2212 187.282 31.2985 187.146 31.3469C187.009 31.3952 186.864 31.4134 186.72 31.4001C186.575 31.4104 186.429 31.3909 186.291 31.3427C186.154 31.2946 186.027 31.2188 185.92 31.1201C185.83 31.0239 185.759 30.9107 185.713 30.7871C185.667 30.6635 185.645 30.532 185.65 30.4001ZM187.65 41.0501H185.75V32.6001H187.65V41.0501Z" fill="white"/>
<path d="M192.76 32.5998L192.81 33.5998C193.102 33.23 193.476 32.9341 193.904 32.7361C194.331 32.538 194.799 32.4434 195.27 32.4598C197.03 32.4598 197.93 33.4598 197.96 35.4598V41.0398H196.06V35.5798C196.098 35.1501 195.973 34.7218 195.71 34.3798C195.558 34.2416 195.379 34.1364 195.185 34.071C194.99 34.0056 194.784 33.9814 194.58 33.9998C194.229 33.9836 193.88 34.0694 193.577 34.2468C193.274 34.4243 193.028 34.6858 192.87 34.9998V40.9998H191V32.5998H192.76Z" fill="white"/>
<path d="M200.82 36.7598C200.762 35.6453 201.079 34.5435 201.72 33.6298C201.999 33.2501 202.366 32.9436 202.789 32.7364C203.212 32.5291 203.679 32.4274 204.15 32.4398C204.56 32.4272 204.968 32.5049 205.345 32.6673C205.721 32.8298 206.058 33.073 206.33 33.3798V29.0498H208.22V41.0498H206.51L206.41 40.1798C206.135 40.5109 205.787 40.7735 205.393 40.947C204.999 41.1206 204.57 41.2002 204.14 41.1798C203.673 41.1896 203.21 41.0855 202.792 40.8764C202.374 40.6673 202.013 40.3596 201.74 39.9798C201.083 39.0389 200.76 37.9057 200.82 36.7598ZM202.72 36.9298C202.68 37.6305 202.851 38.3271 203.21 38.9298C203.363 39.1611 203.574 39.3489 203.821 39.4751C204.068 39.6012 204.343 39.6614 204.62 39.6498C204.972 39.67 205.322 39.5858 205.626 39.4079C205.93 39.23 206.175 38.9663 206.33 38.6498V34.9998C206.179 34.6849 205.937 34.4219 205.637 34.2439C205.336 34.066 204.989 33.981 204.64 33.9998C204.36 33.9865 204.082 34.0469 203.833 34.175C203.583 34.3031 203.372 34.4944 203.22 34.7298C202.839 35.3972 202.665 36.1631 202.72 36.9298Z" fill="white"/>
<path d="M215.17 41.2099C214.629 41.2323 214.09 41.1427 213.586 40.9465C213.081 40.7503 212.623 40.4518 212.24 40.0699C211.864 39.6689 211.571 39.1972 211.379 38.6822C211.187 38.1672 211.099 37.6192 211.12 37.0699V36.8399C211.104 36.0586 211.272 35.2845 211.61 34.5799C211.905 33.932 212.384 33.3845 212.986 33.0044C213.588 32.6243 214.288 32.4281 215 32.4399C215.499 32.4118 215.998 32.496 216.46 32.6864C216.922 32.8768 217.335 33.1684 217.67 33.5399C218.348 34.4333 218.681 35.5407 218.61 36.6599V37.4299H213C213.018 38.0461 213.264 38.6338 213.69 39.0799C213.893 39.2819 214.135 39.4402 214.402 39.5451C214.668 39.65 214.954 39.6993 215.24 39.6899C215.647 39.704 216.052 39.6207 216.421 39.4467C216.79 39.2728 217.112 39.0133 217.36 38.6899L218.36 39.6899C218.018 40.193 217.548 40.5966 217 40.8599C216.423 41.1108 215.798 41.2303 215.17 41.2099ZM214.94 33.9999C214.703 33.9916 214.467 34.0357 214.249 34.129C214.032 34.2224 213.837 34.3627 213.68 34.5399C213.332 34.9799 213.12 35.5115 213.07 36.0699H216.68V35.8999C216.681 35.3771 216.505 34.8695 216.18 34.4599C216.019 34.2981 215.824 34.1733 215.61 34.0939C215.396 34.0145 215.167 33.9824 214.94 33.9999Z" fill="white"/>
<path d="M226 38.7601C226.006 38.6044 225.971 38.4499 225.897 38.3126C225.823 38.1754 225.714 38.0606 225.58 37.9801C225.147 37.7539 224.681 37.5954 224.2 37.5101C223.641 37.4091 223.096 37.2377 222.58 37.0001C222.168 36.8513 221.811 36.5799 221.557 36.2225C221.303 35.865 221.165 35.4385 221.16 35.0001C221.157 34.6439 221.239 34.2921 221.399 33.9738C221.559 33.6555 221.792 33.38 222.08 33.1701C222.75 32.6585 223.578 32.3968 224.42 32.4301C225.299 32.3881 226.165 32.6533 226.87 33.1801C227.174 33.4143 227.418 33.7183 227.58 34.0664C227.741 34.4145 227.817 34.7966 227.8 35.1801H225.91C225.912 35.0077 225.877 34.8368 225.806 34.6796C225.735 34.5224 225.631 34.3826 225.5 34.2701C225.198 34.0192 224.812 33.8908 224.42 33.9101C224.066 33.8975 223.716 33.9954 223.42 34.1901C223.297 34.2789 223.197 34.3963 223.129 34.5321C223.061 34.668 223.027 34.8183 223.03 34.9701C223.025 35.1062 223.057 35.2411 223.122 35.3607C223.187 35.4804 223.283 35.5803 223.4 35.6501C223.865 35.8882 224.365 36.0534 224.88 36.1401C225.486 36.2568 226.074 36.4517 226.63 36.7201C227.011 36.9086 227.338 37.1907 227.58 37.5401C227.791 37.8859 227.899 38.285 227.89 38.6901C227.891 39.0574 227.8 39.4192 227.625 39.7423C227.451 40.0655 227.198 40.3397 226.89 40.5401C226.167 41.042 225.299 41.2916 224.42 41.2501C223.78 41.26 223.145 41.1303 222.56 40.8701C222.057 40.6577 221.621 40.3119 221.3 39.8701C221.008 39.458 220.85 38.9654 220.85 38.4601H222.69C222.696 38.6542 222.744 38.8446 222.833 39.0175C222.921 39.1904 223.046 39.3416 223.2 39.4601C223.553 39.6873 223.96 39.8147 224.379 39.8288C224.798 39.8428 225.213 39.7431 225.58 39.5401C225.713 39.4588 225.822 39.3438 225.895 39.2068C225.969 39.0698 226.005 38.9156 226 38.7601Z" fill="white"/>
<path d="M233.29 30.54V32.6H234.79V34H233.29V38.71C233.266 38.9602 233.338 39.2101 233.49 39.41C233.58 39.4945 233.688 39.5579 233.805 39.596C233.923 39.634 234.047 39.6456 234.17 39.63C234.392 39.6279 234.614 39.6011 234.83 39.55V41C234.424 41.1171 234.003 41.1777 233.58 41.18C232.13 41.18 231.4 40.37 231.4 38.76V34H230V32.6H231.39V30.54H233.29Z" fill="white"/>
<path d="M241 41.2098C240.46 41.2323 239.92 41.1426 239.416 40.9464C238.912 40.7502 238.453 40.4518 238.07 40.0698C237.692 39.6578 237.403 39.173 237.219 38.6451C237.035 38.1172 236.96 37.5574 237 36.9998V36.7698C236.985 35.9885 237.152 35.2145 237.49 34.5098C237.787 33.8754 238.259 33.3395 238.851 32.9655C239.443 32.5915 240.13 32.3951 240.83 32.3998C241.329 32.3717 241.828 32.456 242.29 32.6463C242.752 32.8367 243.166 33.1284 243.5 33.4998C244.174 34.3952 244.507 35.5012 244.44 36.6198V37.3898H238.9C238.922 38.0072 239.172 38.5947 239.6 39.0398C239.803 39.2418 240.046 39.4002 240.312 39.5051C240.579 39.61 240.864 39.6592 241.15 39.6498C241.558 39.6632 241.962 39.5795 242.331 39.4056C242.699 39.2317 243.021 38.9727 243.27 38.6498L244.27 39.6498C243.932 40.1525 243.466 40.5563 242.92 40.8198C242.319 41.0979 241.662 41.2315 241 41.2098ZM240.81 33.9998C240.573 33.9915 240.338 34.0357 240.12 34.129C239.902 34.2224 239.708 34.3626 239.55 34.5398C239.199 34.9774 238.986 35.5103 238.94 36.0698H242.55V35.8998C242.553 35.375 242.373 34.8656 242.04 34.4598C241.881 34.2978 241.689 34.1726 241.476 34.0931C241.264 34.0136 241.036 33.9818 240.81 33.9998Z" fill="white"/>
<path d="M249 32.5998L249.05 33.5998C249.342 33.23 249.716 32.9341 250.144 32.7361C250.571 32.538 251.039 32.4434 251.51 32.4598C253.27 32.4598 254.17 33.4598 254.2 35.4598V41.0398H252.3V35.5798C252.336 35.1518 252.215 34.7253 251.96 34.3798C251.806 34.2418 251.625 34.1369 251.429 34.0716C251.233 34.0062 251.026 33.9818 250.82 33.9998C250.469 33.9836 250.12 34.0694 249.817 34.2468C249.514 34.4243 249.268 34.6858 249.11 34.9998V40.9998H247.21V32.5998H249Z" fill="white"/>
<path d="M262.12 38.7601C262.126 38.6044 262.091 38.4499 262.017 38.3126C261.943 38.1754 261.834 38.0606 261.7 37.9801C261.264 37.7527 260.795 37.5941 260.31 37.5101C259.751 37.4065 259.207 37.2352 258.69 37.0001C258.279 36.8489 257.924 36.5769 257.671 36.22C257.417 35.863 257.278 35.4378 257.27 35.0001C257.269 34.6442 257.351 34.2929 257.511 33.9749C257.671 33.6569 257.904 33.3811 258.19 33.1701C258.865 32.66 259.695 32.3986 260.54 32.4301C261.419 32.3881 262.285 32.6533 262.99 33.1801C263.294 33.4143 263.538 33.7183 263.7 34.0664C263.862 34.4145 263.937 34.7966 263.92 35.1801H262C262.004 35.0084 261.971 34.8378 261.902 34.6805C261.833 34.5232 261.73 34.3831 261.6 34.2701C261.298 34.0192 260.913 33.8908 260.52 33.9101C260.166 33.8962 259.816 33.9941 259.52 34.1901C259.399 34.2812 259.299 34.3988 259.23 34.5339C259.161 34.6691 259.123 34.8183 259.12 34.9701C259.117 35.1058 259.15 35.24 259.215 35.3592C259.28 35.4785 259.375 35.5788 259.49 35.6501C259.96 35.886 260.462 36.0511 260.98 36.1401C261.586 36.2584 262.174 36.4533 262.73 36.7201C263.109 36.9085 263.432 37.1909 263.67 37.5401C263.888 37.8831 263.996 38.2842 263.98 38.6901C263.978 39.049 263.887 39.4018 263.716 39.7174C263.545 40.033 263.299 40.3018 263 40.5001C262.273 41.0008 261.402 41.2501 260.52 41.2101C259.883 41.2198 259.252 41.0901 258.67 40.8301C258.166 40.615 257.728 40.2699 257.4 39.8301C257.108 39.418 256.951 38.9254 256.95 38.4201H258.79C258.798 38.6138 258.847 38.8034 258.935 38.9761C259.023 39.1487 259.148 39.3002 259.3 39.4201C259.661 39.6774 260.097 39.8076 260.54 39.7901C260.944 39.8119 261.345 39.7108 261.69 39.5001C261.819 39.4235 261.926 39.3154 262.001 39.1859C262.076 39.0564 262.117 38.9098 262.12 38.7601Z" fill="white"/>
<path d="M278.92 36.2297H274.34V41.0497H272.34V29.6797H279.57V31.2697H274.32V34.6497H278.9L278.92 36.2297Z" fill="white"/>
<path d="M287 41.0503C286.894 40.7971 286.82 40.5317 286.78 40.2603C286.223 40.8287 285.473 41.1669 284.678 41.2077C283.883 41.2484 283.102 40.9888 282.49 40.4803C282.231 40.2602 282.024 39.9856 281.884 39.6761C281.744 39.3666 281.674 39.0299 281.68 38.6903C281.659 38.2876 281.74 37.8862 281.915 37.5228C282.089 37.1594 282.353 36.8456 282.68 36.6103C283.539 36.0784 284.542 35.8268 285.55 35.8903H286.71V35.3303C286.715 34.9625 286.583 34.606 286.34 34.3303C286.193 34.1908 286.018 34.0839 285.827 34.0167C285.635 33.9495 285.432 33.9235 285.23 33.9403C284.848 33.9249 284.471 34.0375 284.16 34.2603C284.03 34.3553 283.924 34.4804 283.853 34.625C283.782 34.7695 283.746 34.9291 283.75 35.0903H281.85C281.855 34.6179 282.017 34.1606 282.31 33.7903C282.633 33.3502 283.068 33.0048 283.57 32.7903C284.129 32.5526 284.732 32.4334 285.34 32.4403C286.191 32.3962 287.03 32.6627 287.7 33.1903C287.997 33.4514 288.233 33.7751 288.39 34.1382C288.548 34.5013 288.623 34.8948 288.61 35.2903V39.1003C288.586 39.7228 288.695 40.3433 288.93 40.9203V41.0503H287ZM284.92 39.6903C285.292 39.691 285.657 39.5945 285.98 39.4103C286.293 39.245 286.55 38.9911 286.72 38.6803V37.0803H285.72C285.165 37.0471 284.613 37.1756 284.13 37.4503C283.966 37.5605 283.832 37.7094 283.74 37.8839C283.647 38.0583 283.599 38.2528 283.6 38.4503C283.592 38.6129 283.62 38.7753 283.682 38.9257C283.744 39.0762 283.839 39.2109 283.96 39.3203C284.222 39.5593 284.565 39.6913 284.92 39.6903Z" fill="white"/>
<path d="M296.29 34.3299C296.035 34.2893 295.778 34.2693 295.52 34.2699C295.159 34.2337 294.796 34.3105 294.481 34.4896C294.165 34.6688 293.913 34.9414 293.76 35.2699V41.0499H291.86V32.5999H293.68V33.5399C293.87 33.202 294.148 32.9215 294.484 32.728C294.82 32.5344 295.202 32.4349 295.59 32.4399C295.818 32.4347 296.045 32.472 296.26 32.5499L296.29 34.3299Z" fill="white"/>
<path d="M306.2 36.9098C306.263 38.022 305.954 39.1236 305.32 40.0398C305.043 40.4182 304.678 40.7228 304.256 40.9268C303.834 41.1308 303.368 41.228 302.9 41.2098C302.457 41.23 302.016 41.1433 301.614 40.957C301.212 40.7708 300.861 40.4905 300.59 40.1398L300.5 41.0498H298.78V29.0498H300.67V33.4098C300.94 33.0862 301.28 32.8281 301.665 32.6549C302.049 32.4816 302.468 32.3979 302.89 32.4098C303.357 32.3928 303.822 32.4884 304.245 32.6885C304.668 32.8887 305.037 33.1875 305.32 33.5598C305.955 34.5054 306.264 35.6325 306.2 36.7698V36.9098ZM304.3 36.7498C304.351 36.0305 304.184 35.3125 303.82 34.6898C303.662 34.4654 303.45 34.2845 303.203 34.1639C302.957 34.0433 302.684 33.9868 302.41 33.9998C302.044 33.9788 301.68 34.0712 301.369 34.2645C301.057 34.4578 300.813 34.7425 300.67 35.0798V38.5598C300.812 38.9016 301.057 39.1909 301.37 39.3879C301.683 39.5849 302.05 39.6799 302.42 39.6598C302.687 39.6738 302.953 39.6207 303.194 39.5054C303.435 39.3901 303.643 39.2163 303.8 38.9998C304.164 38.3987 304.338 37.7016 304.3 36.9998V36.7498Z" fill="white"/>
<path d="M312.8 41.2099C312.26 41.2311 311.721 41.1409 311.217 40.9448C310.712 40.7486 310.254 40.4508 309.87 40.0699C309.494 39.6689 309.201 39.1972 309.009 38.6822C308.817 38.1672 308.729 37.6192 308.75 37.0699V36.8399C308.74 36.0591 308.907 35.2862 309.24 34.5799C309.535 33.9324 310.011 33.3838 310.61 32.9999C311.208 32.6229 311.903 32.4283 312.61 32.4399C313.109 32.4118 313.608 32.496 314.07 32.6864C314.532 32.8768 314.946 33.1684 315.28 33.5399C315.958 34.4333 316.292 35.5407 316.22 36.6599V37.4299H310.7C310.718 38.0483 310.968 38.6375 311.4 39.0799C311.601 39.2826 311.841 39.4415 312.106 39.5465C312.371 39.6515 312.655 39.7003 312.94 39.6899C313.348 39.704 313.753 39.6207 314.121 39.4467C314.49 39.2728 314.812 39.0133 315.06 38.6899L316.06 39.6899C315.718 40.193 315.249 40.5966 314.7 40.8599C314.103 41.1222 313.452 41.242 312.8 41.2099ZM312.57 33.9999C312.333 33.9916 312.098 34.0357 311.88 34.129C311.662 34.2224 311.468 34.3627 311.31 34.5399C310.975 34.9603 310.764 35.4659 310.7 35.9999H314.31V35.8999C314.311 35.3771 314.135 34.8695 313.81 34.4599C313.649 34.2981 313.455 34.1733 313.241 34.0939C313.027 34.0145 312.798 33.9824 312.57 33.9999Z" fill="white"/>
<path d="M333.11 39.5796C332.667 40.1372 332.074 40.5569 331.4 40.7896C330.603 41.0811 329.759 41.2235 328.91 41.2096C328.024 41.2238 327.15 40.9993 326.38 40.5596C325.644 40.1231 325.053 39.4797 324.68 38.7096C324.267 37.8271 324.055 36.8639 324.06 35.8896V34.9996C323.98 33.5606 324.42 32.1407 325.3 30.9996C325.727 30.5143 326.258 30.1319 326.854 29.8808C327.45 29.6297 328.095 29.5165 328.74 29.5496C329.82 29.4991 330.882 29.8321 331.74 30.4896C332.517 31.188 332.997 32.158 333.08 33.1996H331.14C331.125 32.9063 331.051 32.619 330.922 32.3552C330.793 32.0915 330.612 31.8566 330.389 31.6649C330.167 31.4733 329.908 31.3288 329.628 31.2402C329.348 31.1516 329.052 31.1208 328.76 31.1496C328.374 31.1287 327.989 31.2047 327.639 31.3706C327.29 31.5365 326.988 31.7871 326.76 32.0996C326.242 32.9417 325.994 33.9224 326.05 34.9096V35.7796C325.985 36.7917 326.256 37.7969 326.82 38.6396C327.073 38.9681 327.401 39.2306 327.777 39.4047C328.154 39.5788 328.566 39.6594 328.98 39.6396C329.368 39.6779 329.76 39.6364 330.131 39.5178C330.503 39.3991 330.846 39.2058 331.14 38.9496V36.7196H328.8V35.2196H333.11V39.5796Z" fill="white"/>
<path d="M402 19V304" stroke="#A04F55" stroke-miterlimit="10"/>
<path d="M726.5 190.5H977.5" stroke="#444444" stroke-miterlimit="10"/>
<path d="M875 174H829V256H875V174Z" fill="#F5F5F5"/>
<path d="M834.05 190.26C833.999 189.35 834.26 188.451 834.79 187.71C835.026 187.419 835.323 187.184 835.659 187.02C835.996 186.856 836.364 186.768 836.739 186.761C837.113 186.754 837.484 186.83 837.826 186.981C838.169 187.133 838.473 187.358 838.72 187.64L838.78 186.88H839.85V193.59C839.87 193.976 839.81 194.361 839.674 194.723C839.538 195.084 839.329 195.413 839.06 195.69C838.776 195.953 838.442 196.157 838.078 196.29C837.714 196.422 837.327 196.48 836.94 196.46C836.439 196.457 835.945 196.348 835.49 196.14C835.05 195.961 834.672 195.659 834.4 195.27L835.01 194.56C835.222 194.852 835.5 195.089 835.822 195.253C836.143 195.416 836.499 195.501 836.86 195.5C837.103 195.516 837.348 195.481 837.577 195.397C837.806 195.312 838.015 195.18 838.19 195.01C838.357 194.829 838.485 194.616 838.567 194.384C838.65 194.152 838.685 193.906 838.67 193.66V193.07C838.431 193.34 838.134 193.553 837.802 193.693C837.47 193.833 837.11 193.897 836.75 193.88C836.36 193.891 835.973 193.805 835.624 193.631C835.276 193.456 834.975 193.198 834.75 192.88C834.236 192.107 833.99 191.186 834.05 190.26ZM835.23 190.39C835.192 191.035 835.361 191.676 835.71 192.22C835.859 192.432 836.058 192.604 836.291 192.72C836.523 192.835 836.781 192.89 837.04 192.88C837.38 192.893 837.716 192.805 838.007 192.627C838.297 192.449 838.528 192.189 838.67 191.88V188.75C838.526 188.444 838.296 188.186 838.009 188.009C837.721 187.831 837.388 187.741 837.05 187.75C836.789 187.739 836.531 187.795 836.298 187.912C836.065 188.029 835.866 188.204 835.72 188.42C835.352 189.008 835.18 189.698 835.23 190.39Z" fill="#444444"/>
<path d="M844.49 193.88C844.067 193.896 843.645 193.823 843.252 193.664C842.859 193.506 842.504 193.266 842.21 192.96C841.608 192.29 841.295 191.409 841.34 190.51V190.29C841.329 189.661 841.462 189.039 841.73 188.47C841.967 187.955 842.345 187.519 842.82 187.21C843.272 186.915 843.8 186.758 844.34 186.76C844.731 186.738 845.122 186.806 845.482 186.958C845.843 187.111 846.164 187.344 846.42 187.64C846.961 188.368 847.223 189.265 847.16 190.17V190.65H842.51C842.5 191.252 842.714 191.837 843.11 192.29C843.288 192.495 843.51 192.658 843.759 192.767C844.008 192.876 844.278 192.929 844.55 192.92C844.916 192.929 845.278 192.842 845.6 192.67C845.894 192.493 846.152 192.263 846.36 191.99L847.08 192.55C846.806 192.982 846.421 193.333 845.966 193.566C845.51 193.8 845.001 193.908 844.49 193.88ZM844.34 187.72C844.116 187.715 843.894 187.76 843.688 187.849C843.483 187.939 843.299 188.072 843.15 188.24C842.799 188.646 842.588 189.154 842.55 189.69H846V189.6C845.999 189.096 845.83 188.607 845.52 188.21C845.373 188.045 845.19 187.916 844.986 187.831C844.782 187.746 844.561 187.708 844.34 187.72Z" fill="#444444"/>
<path d="M850.19 185.22V186.88H851.48V187.79H850.19V192.05C850.171 192.272 850.235 192.492 850.37 192.67C850.444 192.747 850.535 192.807 850.635 192.843C850.736 192.88 850.844 192.892 850.95 192.88C851.139 192.875 851.326 192.851 851.51 192.81V193.75C851.218 193.836 850.915 193.879 850.61 193.88C850.388 193.896 850.166 193.861 849.959 193.777C849.753 193.694 849.569 193.565 849.42 193.4C849.127 193.013 848.985 192.533 849.02 192.05V187.79H847.77V186.88H849V185.22H850.19Z" fill="#444444"/>
<path d="M852.29 190.25C852.28 189.624 852.417 189.004 852.69 188.44C852.932 187.928 853.313 187.495 853.79 187.19C854.278 186.896 854.84 186.747 855.41 186.76C855.839 186.749 856.265 186.833 856.658 187.005C857.05 187.178 857.399 187.436 857.68 187.76C858.279 188.483 858.586 189.403 858.54 190.34V190.42C858.549 191.041 858.419 191.656 858.16 192.22C857.922 192.732 857.54 193.163 857.06 193.46C856.568 193.765 855.999 193.922 855.42 193.91C854.993 193.921 854.569 193.836 854.178 193.663C853.788 193.49 853.44 193.233 853.16 192.91C852.557 192.194 852.246 191.276 852.29 190.34V190.25ZM853.29 185.04C853.287 184.865 853.347 184.694 853.46 184.56C853.603 184.449 853.779 184.388 853.96 184.388C854.142 184.388 854.318 184.449 854.46 184.56C854.581 184.691 854.645 184.863 854.64 185.04C854.644 185.128 854.63 185.216 854.6 185.299C854.569 185.381 854.521 185.457 854.46 185.52C854.318 185.632 854.142 185.693 853.96 185.693C853.779 185.693 853.603 185.632 853.46 185.52C853.403 185.448 853.361 185.364 853.337 185.275C853.313 185.185 853.308 185.092 853.32 185L853.29 185.04ZM853.44 190.39C853.411 191.045 853.597 191.691 853.97 192.23C854.133 192.452 854.348 192.63 854.595 192.75C854.843 192.87 855.115 192.929 855.39 192.92C855.666 192.93 855.941 192.872 856.188 192.749C856.436 192.627 856.65 192.445 856.81 192.22C857.201 191.63 857.388 190.927 857.34 190.22C857.369 189.567 857.179 188.923 856.8 188.39C856.633 188.175 856.418 188 856.173 187.88C855.928 187.759 855.658 187.697 855.385 187.697C855.112 187.697 854.843 187.759 854.597 187.88C854.352 188 854.138 188.175 853.97 188.39C853.589 188.984 853.413 189.687 853.47 190.39H853.44ZM856.02 185.06C856.019 184.882 856.079 184.709 856.19 184.57C856.333 184.459 856.509 184.398 856.69 184.398C856.872 184.398 857.048 184.459 857.19 184.57C857.309 184.706 857.374 184.88 857.37 185.06C857.375 185.238 857.311 185.41 857.19 185.54C857.048 185.652 856.872 185.713 856.69 185.713C856.509 185.713 856.333 185.652 856.19 185.54C856.088 185.402 856.038 185.232 856.05 185.06H856.02Z" fill="#444444"/>
<path d="M861.11 186.88V187.75C861.349 187.431 861.661 187.175 862.019 187.001C862.378 186.827 862.772 186.741 863.17 186.75C864.62 186.75 865.35 187.57 865.36 189.2V193.74H864.19V189.2C864.221 188.803 864.099 188.41 863.85 188.1C863.716 187.975 863.559 187.879 863.387 187.817C863.215 187.755 863.032 187.729 862.85 187.74C862.492 187.732 862.141 187.84 861.85 188.05C861.56 188.252 861.329 188.528 861.18 188.85V193.74H860V186.87L861.11 186.88Z" fill="#444444"/>
<path d="M868.79 185.22V186.88H870.07V187.79H868.79V192.05C868.777 192.269 868.837 192.487 868.96 192.67C869.035 192.746 869.125 192.805 869.226 192.841C869.326 192.877 869.434 192.891 869.54 192.88C869.728 192.876 869.916 192.852 870.1 192.81V193.75C869.808 193.836 869.505 193.879 869.2 193.88C868.978 193.895 868.756 193.86 868.55 193.776C868.344 193.693 868.159 193.564 868.01 193.4C867.724 193.01 867.583 192.532 867.61 192.05V187.79H866.36V186.88H867.61V185.22H868.79Z" fill="#444444"/>
<path d="M26.5 190.5H277.5" stroke="#444444" stroke-miterlimit="10"/>
<path d="M277.5 180V195" stroke="#444444" stroke-miterlimit="10"/>
<path d="M326.5 190.5H477.5" stroke="#444444" stroke-miterlimit="10"/>
<path d="M477.9 180V195" stroke="#444444" stroke-miterlimit="10"/>
<path d="M326.1 180V195" stroke="#444444" stroke-miterlimit="10"/>
<path d="M526.5 190.5H677.5" stroke="#444444" stroke-miterlimit="10"/>
<path d="M677.9 180V195" stroke="#444444" stroke-miterlimit="10"/>
<path d="M526.1 180V195" stroke="#444444" stroke-miterlimit="10"/>
<path d="M26.1001 180V195" stroke="#444444" stroke-miterlimit="10"/>
<path d="M977.5 180V195" stroke="#444444" stroke-miterlimit="10"/>
<path d="M726.1 180V195" stroke="#444444" stroke-miterlimit="10"/>
<path d="M1090 190.5H1014" stroke="#444444" stroke-miterlimit="10"/>
<path d="M1080 174H1024V256H1080V174Z" fill="#F5F5F5"/>
<path d="M1090 180V195" stroke="#444444" stroke-miterlimit="10"/>
<path d="M1013.5 180V195" stroke="#444444" stroke-miterlimit="10"/>
<path d="M645 174H559V256H645V174Z" fill="#F5F5F5"/>
<path d="M568.31 194.08H567.14V185.24H568.31V194.08Z" fill="#444444"/>
<path d="M573 194.2C572.159 194.233 571.339 193.931 570.72 193.36C570.427 193.072 570.197 192.726 570.047 192.343C569.897 191.96 569.83 191.55 569.85 191.14V190.94C569.841 190.366 569.975 189.799 570.24 189.29C570.486 188.813 570.865 188.417 571.33 188.15C571.791 187.88 572.316 187.739 572.85 187.74C573.234 187.718 573.618 187.777 573.977 187.915C574.335 188.053 574.66 188.266 574.93 188.54C575.467 189.177 575.736 189.998 575.68 190.83V191.27H571C570.996 191.826 571.211 192.362 571.6 192.76C571.79 192.946 572.015 193.092 572.263 193.19C572.51 193.288 572.774 193.335 573.04 193.33C573.387 193.333 573.73 193.254 574.04 193.1C574.327 192.943 574.584 192.736 574.8 192.49L575.52 192.99C575.23 193.381 574.849 193.696 574.41 193.906C573.971 194.117 573.487 194.218 573 194.2ZM572.85 188.61C572.63 188.605 572.412 188.644 572.208 188.725C572.003 188.806 571.817 188.926 571.66 189.08C571.319 189.441 571.108 189.905 571.06 190.4H574.5V190.32C574.5 189.855 574.329 189.407 574.02 189.06C573.868 188.909 573.687 188.791 573.487 188.713C573.288 188.636 573.074 188.601 572.86 188.61H572.85Z" fill="#444444"/>
<path d="M577.05 186.2C577.049 186.121 577.063 186.042 577.092 185.968C577.121 185.895 577.165 185.827 577.22 185.77C577.365 185.663 577.54 185.605 577.72 185.605C577.9 185.605 578.075 185.663 578.22 185.77C578.279 185.825 578.325 185.892 578.356 185.966C578.387 186.04 578.402 186.12 578.4 186.2C578.403 186.281 578.389 186.361 578.358 186.436C578.327 186.51 578.28 186.576 578.22 186.63C578.075 186.738 577.9 186.796 577.72 186.796C577.54 186.796 577.365 186.738 577.22 186.63C577.164 186.574 577.12 186.507 577.09 186.433C577.061 186.359 577.047 186.28 577.05 186.2ZM578.32 194.08H577.15V187.85H578.32V194.08Z" fill="#444444"/>
<path d="M582.88 193.33C583.28 193.347 583.673 193.231 584 193C584.146 192.905 584.268 192.778 584.358 192.629C584.448 192.481 584.503 192.313 584.52 192.14H585.63C585.599 192.506 585.46 192.854 585.23 193.14C584.963 193.473 584.62 193.737 584.23 193.91C583.813 194.102 583.359 194.201 582.9 194.2C582.49 194.219 582.081 194.153 581.697 194.006C581.313 193.86 580.964 193.637 580.67 193.35C580.386 193.036 580.167 192.667 580.026 192.268C579.885 191.868 579.826 191.444 579.85 191.02V190.85C579.839 190.289 579.962 189.734 580.21 189.23C580.449 188.768 580.818 188.386 581.27 188.13C581.77 187.86 582.332 187.725 582.9 187.74C583.595 187.715 584.275 187.938 584.82 188.37C585.067 188.566 585.267 188.813 585.407 189.095C585.547 189.377 585.623 189.686 585.63 190H584.5C584.489 189.808 584.439 189.62 584.353 189.449C584.267 189.277 584.147 189.124 584 189C583.688 188.737 583.289 188.598 582.88 188.61C582.619 188.596 582.358 188.642 582.117 188.745C581.876 188.847 581.662 189.003 581.49 189.2C581.131 189.687 580.957 190.286 581 190.89V191.09C580.96 191.684 581.134 192.273 581.49 192.75C581.663 192.945 581.878 193.099 582.119 193.199C582.359 193.3 582.62 193.345 582.88 193.33Z" fill="#444444"/>
<path d="M588.15 188.61C588.4 188.329 588.709 188.106 589.054 187.955C589.4 187.805 589.774 187.732 590.15 187.74C590.449 187.708 590.752 187.744 591.036 187.845C591.32 187.946 591.577 188.11 591.788 188.324C592 188.539 592.16 188.798 592.258 189.083C592.355 189.368 592.386 189.671 592.35 189.97V194.08H591.18V190C591.202 189.635 591.08 189.276 590.84 189C590.557 188.774 590.201 188.66 589.84 188.68C589.486 188.67 589.137 188.768 588.84 188.96C588.553 189.135 588.318 189.384 588.16 189.68V194.12H587V185.28H588.17L588.15 188.61Z" fill="#444444"/>
<path d="M595.76 186.35V187.85H597V188.68H595.72V192.54C595.705 192.741 595.766 192.941 595.89 193.1C595.968 193.171 596.06 193.224 596.16 193.257C596.26 193.29 596.365 193.301 596.47 193.29C596.659 193.285 596.846 193.262 597.03 193.22V194.08C596.736 194.157 596.434 194.198 596.13 194.2C595.912 194.214 595.693 194.183 595.488 194.107C595.283 194.031 595.096 193.913 594.94 193.76C594.656 193.419 594.513 192.982 594.54 192.54V188.68H593.29V187.85H594.54V186.35H595.76Z" fill="#444444"/>
<path d="M601.35 190.92C601.306 190.083 601.569 189.258 602.09 188.6C602.341 188.333 602.643 188.12 602.979 187.972C603.314 187.824 603.676 187.745 604.042 187.74C604.409 187.734 604.772 187.802 605.112 187.939C605.452 188.077 605.761 188.281 606.02 188.54L606.08 187.85H607.15V193.93C607.169 194.286 607.108 194.641 606.971 194.97C606.834 195.299 606.625 195.593 606.36 195.83C605.767 196.322 605.009 196.572 604.24 196.53C603.742 196.533 603.248 196.435 602.79 196.24C602.361 196.086 601.984 195.816 601.7 195.46L602.31 194.82C602.538 195.088 602.821 195.301 603.141 195.447C603.461 195.592 603.809 195.665 604.16 195.66C604.644 195.692 605.121 195.535 605.49 195.22C605.658 195.066 605.791 194.877 605.879 194.666C605.967 194.455 606.008 194.228 606 194V193.47C605.749 193.721 605.449 193.916 605.118 194.043C604.788 194.171 604.434 194.228 604.08 194.21C603.708 194.222 603.339 194.148 603.001 193.994C602.662 193.839 602.364 193.609 602.13 193.32C601.585 192.643 601.307 191.789 601.35 190.92ZM602.53 191.04C602.496 191.629 602.665 192.212 603.01 192.69C603.168 192.889 603.371 193.047 603.602 193.152C603.833 193.256 604.086 193.304 604.34 193.29C604.67 193.309 604.999 193.233 605.287 193.072C605.576 192.911 605.813 192.671 605.97 192.38V189.53C605.807 189.248 605.57 189.015 605.284 188.858C604.999 188.701 604.675 188.626 604.35 188.64C604.094 188.627 603.839 188.676 603.606 188.782C603.372 188.888 603.168 189.049 603.01 189.25C602.662 189.765 602.493 190.38 602.53 191V191.04Z" fill="#444444"/>
<path d="M611.78 194.2C611.365 194.218 610.95 194.152 610.561 194.008C610.171 193.864 609.814 193.644 609.51 193.36C609.215 193.073 608.984 192.727 608.832 192.344C608.681 191.962 608.612 191.552 608.63 191.14V190.94C608.624 190.366 608.762 189.799 609.03 189.29C609.276 188.813 609.654 188.418 610.12 188.15C610.581 187.881 611.106 187.739 611.64 187.74C612.023 187.719 612.407 187.78 612.765 187.918C613.124 188.056 613.449 188.268 613.72 188.54C614.249 189.182 614.513 190.001 614.46 190.83V191.27H609.81C609.802 191.826 610.014 192.361 610.4 192.76C610.591 192.948 610.818 193.095 611.067 193.192C611.316 193.29 611.582 193.337 611.85 193.33C612.196 193.331 612.538 193.253 612.85 193.1C613.137 192.943 613.394 192.737 613.61 192.49L614.32 192.99C614.028 193.384 613.643 193.701 613.2 193.912C612.758 194.123 612.27 194.222 611.78 194.2ZM611.64 188.61C611.419 188.606 611.199 188.645 610.993 188.726C610.787 188.806 610.599 188.927 610.44 189.08C610.097 189.44 609.889 189.906 609.85 190.4H613.29V190.32C613.28 189.858 613.111 189.412 612.81 189.06C612.657 188.908 612.474 188.789 612.272 188.712C612.071 188.634 611.855 188.6 611.64 188.61Z" fill="#444444"/>
<path d="M617.49 186.35V187.85H618.77V188.68H617.49V192.54C617.475 192.741 617.535 192.941 617.66 193.1C617.739 193.171 617.833 193.225 617.935 193.257C618.036 193.29 618.144 193.301 618.25 193.29C618.438 193.285 618.626 193.261 618.81 193.22V194.08C618.516 194.157 618.214 194.198 617.91 194.2C617.692 194.216 617.472 194.185 617.267 194.109C617.062 194.033 616.875 193.914 616.72 193.76C616.431 193.421 616.287 192.983 616.32 192.54V188.68H615.07V187.85H616.32V186.35H617.49Z" fill="#444444"/>
<path d="M619.59 190.91C619.581 190.336 619.715 189.769 619.98 189.26C620.237 188.789 620.622 188.401 621.09 188.14C621.582 187.866 622.137 187.728 622.7 187.74C623.119 187.719 623.537 187.787 623.928 187.939C624.319 188.091 624.674 188.322 624.97 188.62C625.265 188.931 625.494 189.299 625.643 189.701C625.793 190.103 625.86 190.531 625.84 190.96V191C625.847 191.566 625.716 192.125 625.46 192.63C625.207 193.1 624.825 193.488 624.36 193.75C623.858 194.026 623.293 194.168 622.72 194.16C622.301 194.175 621.883 194.104 621.492 193.951C621.101 193.798 620.747 193.566 620.45 193.27C620.158 192.958 619.931 192.592 619.784 192.192C619.636 191.792 619.57 191.366 619.59 190.94V190.91ZM620.59 186.19C620.587 186.109 620.601 186.028 620.63 185.952C620.659 185.877 620.703 185.808 620.76 185.75C620.907 185.648 621.081 185.594 621.26 185.594C621.438 185.594 621.613 185.648 621.76 185.75C621.818 185.807 621.864 185.875 621.895 185.951C621.926 186.027 621.941 186.108 621.94 186.19C621.942 186.27 621.927 186.35 621.896 186.424C621.865 186.498 621.818 186.565 621.76 186.62C621.615 186.727 621.44 186.785 621.26 186.785C621.08 186.785 620.904 186.727 620.76 186.62C620.708 186.562 620.669 186.493 620.644 186.419C620.62 186.345 620.612 186.267 620.62 186.19H620.59ZM620.74 191.04C620.707 191.639 620.896 192.23 621.27 192.7C621.442 192.907 621.66 193.072 621.906 193.181C622.152 193.29 622.421 193.341 622.69 193.33C622.96 193.338 623.228 193.285 623.474 193.174C623.72 193.063 623.938 192.897 624.11 192.69C624.49 192.177 624.677 191.547 624.64 190.91C624.668 190.309 624.476 189.719 624.1 189.25C623.926 189.041 623.706 188.876 623.459 188.765C623.211 188.654 622.941 188.601 622.67 188.61C622.404 188.601 622.14 188.654 621.897 188.763C621.654 188.872 621.44 189.035 621.27 189.24C620.906 189.752 620.73 190.373 620.77 191L620.74 191.04ZM623.31 186.2C623.308 186.118 623.323 186.037 623.354 185.961C623.385 185.885 623.431 185.817 623.49 185.76C623.634 185.652 623.81 185.595 623.99 185.595C624.17 185.595 624.345 185.652 624.49 185.76C624.548 185.817 624.594 185.885 624.625 185.961C624.656 186.037 624.671 186.118 624.67 186.2C624.672 186.28 624.657 186.36 624.626 186.434C624.595 186.508 624.548 186.575 624.49 186.63C624.345 186.737 624.17 186.795 623.99 186.795C623.81 186.795 623.634 186.737 623.49 186.63C623.437 186.572 623.396 186.504 623.37 186.43C623.344 186.356 623.334 186.278 623.34 186.2H623.31Z" fill="#444444"/>
<path d="M628.41 187.85V188.64C628.664 188.346 628.981 188.112 629.338 187.956C629.694 187.8 630.081 187.727 630.47 187.74C630.774 187.702 631.084 187.734 631.374 187.835C631.664 187.935 631.927 188.101 632.143 188.32C632.358 188.538 632.521 188.804 632.617 189.095C632.714 189.386 632.742 189.696 632.7 190V194.11H631.53V190C631.551 189.635 631.429 189.276 631.19 189C630.907 188.774 630.551 188.66 630.19 188.68C629.836 188.671 629.488 188.769 629.19 188.96C628.906 189.139 628.673 189.387 628.51 189.68V194.12H627.3V187.89L628.41 187.85Z" fill="#444444"/>
<path d="M636.09 186.35V187.85H637.37V188.68H636.09V192.54C636.071 192.741 636.132 192.943 636.26 193.1C636.338 193.171 636.43 193.224 636.53 193.257C636.63 193.29 636.736 193.301 636.84 193.29C637.029 193.285 637.216 193.262 637.4 193.22V194.08C637.106 194.157 636.804 194.198 636.5 194.2C636.282 194.215 636.063 194.184 635.858 194.108C635.653 194.032 635.466 193.913 635.31 193.76C635.022 193.421 634.878 192.983 634.91 192.54V188.68H633.66V187.85H634.91V186.35H636.09Z" fill="#444444"/>
<path d="M442 174H362V272H442V174Z" fill="#F5F5F5"/>
<path d="M370.55 193.75V187.75H369.47V186.84H370.55V186.14C370.531 185.83 370.573 185.52 370.674 185.226C370.775 184.933 370.934 184.662 371.14 184.43C371.363 184.222 371.626 184.062 371.914 183.959C372.201 183.856 372.506 183.812 372.81 183.83C373.083 183.829 373.356 183.863 373.62 183.93L373.55 184.88C373.343 184.839 373.132 184.819 372.92 184.82C372.758 184.811 372.595 184.836 372.443 184.895C372.292 184.954 372.154 185.044 372.04 185.16C371.924 185.298 371.837 185.457 371.784 185.629C371.73 185.801 371.712 185.981 371.73 186.16V186.88H373.19V187.79H371.73V193.79L370.55 193.75Z" fill="#444444"/>
<path d="M378.58 193.75C378.489 193.52 378.435 193.277 378.42 193.03C378.165 193.304 377.855 193.522 377.511 193.668C377.166 193.815 376.794 193.887 376.42 193.88C375.81 193.905 375.213 193.698 374.75 193.3C374.541 193.121 374.375 192.898 374.262 192.648C374.15 192.397 374.094 192.124 374.1 191.85C374.091 191.526 374.161 191.204 374.304 190.914C374.447 190.623 374.658 190.371 374.92 190.18C375.603 189.749 376.404 189.543 377.21 189.59H378.36V189.05C378.372 188.866 378.346 188.682 378.282 188.51C378.218 188.338 378.119 188.181 377.99 188.05C377.842 187.918 377.67 187.817 377.483 187.754C377.295 187.69 377.097 187.665 376.9 187.68C376.524 187.669 376.156 187.781 375.85 188C375.724 188.087 375.62 188.201 375.545 188.335C375.471 188.468 375.428 188.617 375.42 188.77H374.24C374.249 188.405 374.379 188.053 374.61 187.77C374.87 187.435 375.215 187.176 375.61 187.02C376.041 186.828 376.508 186.733 376.98 186.74C377.652 186.698 378.315 186.908 378.84 187.33C379.066 187.536 379.245 187.788 379.366 188.069C379.487 188.35 379.546 188.654 379.54 188.96V192.13C379.519 192.641 379.601 193.151 379.78 193.63V193.73L378.58 193.75ZM376.63 192.86C376.999 192.858 377.362 192.758 377.68 192.57C377.988 192.401 378.239 192.143 378.4 191.83V190.42H377.48C376.04 190.42 375.32 190.84 375.32 191.68C375.307 191.842 375.334 192.006 375.398 192.156C375.462 192.306 375.563 192.437 375.69 192.54C375.953 192.758 376.288 192.872 376.63 192.86Z" fill="#444444"/>
<path d="M385.27 191.93C385.275 191.786 385.246 191.644 385.183 191.515C385.12 191.386 385.026 191.274 384.91 191.19C384.529 190.955 384.103 190.802 383.66 190.74C383.173 190.646 382.699 190.491 382.25 190.28C381.939 190.137 381.671 189.916 381.47 189.64C381.296 189.384 381.209 189.079 381.22 188.77C381.22 188.492 381.285 188.218 381.41 187.969C381.535 187.721 381.716 187.506 381.94 187.34C382.458 186.936 383.103 186.73 383.76 186.76C384.441 186.728 385.111 186.941 385.65 187.36C385.883 187.542 386.07 187.776 386.197 188.044C386.324 188.311 386.386 188.604 386.38 188.9H385.2C385.198 188.74 385.16 188.582 385.089 188.438C385.018 188.295 384.916 188.169 384.79 188.07C384.508 187.839 384.154 187.716 383.79 187.72C383.434 187.697 383.082 187.796 382.79 188C382.676 188.084 382.584 188.194 382.521 188.321C382.459 188.448 382.427 188.588 382.43 188.73C382.423 188.856 382.45 188.982 382.508 189.095C382.566 189.207 382.653 189.302 382.76 189.37C383.144 189.567 383.555 189.705 383.98 189.78C384.469 189.885 384.945 190.042 385.4 190.25C385.723 190.394 386.003 190.622 386.21 190.91C386.396 191.187 386.49 191.516 386.48 191.85C386.486 192.137 386.421 192.421 386.292 192.677C386.163 192.933 385.974 193.154 385.74 193.32C385.182 193.712 384.511 193.909 383.83 193.88C383.328 193.888 382.83 193.79 382.37 193.59C381.967 193.415 381.621 193.131 381.37 192.77C381.138 192.438 381.013 192.044 381.01 191.64H382.18C382.184 191.82 382.228 191.997 382.31 192.158C382.391 192.319 382.507 192.46 382.65 192.57C382.99 192.814 383.402 192.938 383.82 192.92C384.195 192.937 384.567 192.843 384.89 192.65C385.01 192.573 385.109 192.467 385.175 192.34C385.242 192.214 385.275 192.073 385.27 191.93Z" fill="#444444"/>
<path d="M389.67 185.22V186.88H391V187.79H389.72V192.05C389.698 192.27 389.759 192.491 389.89 192.67C389.965 192.746 390.056 192.805 390.156 192.841C390.256 192.877 390.364 192.891 390.47 192.88C390.659 192.875 390.846 192.852 391.03 192.81V193.75C390.738 193.836 390.435 193.879 390.13 193.88C389.908 193.896 389.686 193.861 389.479 193.777C389.273 193.694 389.089 193.565 388.94 193.4C388.655 193.01 388.513 192.532 388.54 192.05V187.79H387.29V186.88H388.54V185.22H389.67Z" fill="#444444"/>
<path d="M396.12 193.75V187.75H395V186.84H396.09V186.14C396.068 185.83 396.109 185.518 396.211 185.225C396.312 184.931 396.472 184.66 396.68 184.43C396.902 184.221 397.166 184.06 397.453 183.957C397.74 183.853 398.045 183.81 398.35 183.83C398.62 183.828 398.889 183.862 399.15 183.93L399.09 184.88C398.879 184.839 398.665 184.819 398.45 184.82C398.288 184.812 398.125 184.838 397.974 184.896C397.822 184.955 397.685 185.045 397.57 185.16C397.454 185.297 397.367 185.456 397.313 185.628C397.26 185.8 397.242 185.981 397.26 186.16V186.88H398.73V187.79H397.26V193.79L396.12 193.75Z" fill="#444444"/>
<path d="M404.15 193.75C404.058 193.511 404.007 193.257 404 193C403.746 193.276 403.436 193.494 403.092 193.641C402.747 193.787 402.375 193.859 402 193.85C401.39 193.878 400.792 193.67 400.33 193.27C400.121 193.092 399.955 192.869 399.842 192.618C399.73 192.368 399.675 192.095 399.68 191.82C399.666 191.496 399.734 191.172 399.877 190.881C400.02 190.589 400.234 190.338 400.5 190.15C401.183 189.718 401.984 189.512 402.79 189.56H404V189.02C404.013 188.837 403.986 188.653 403.922 188.481C403.859 188.308 403.759 188.151 403.63 188.02C403.485 187.888 403.314 187.787 403.129 187.723C402.943 187.659 402.746 187.635 402.55 187.65C402.174 187.638 401.805 187.751 401.5 187.97C401.37 188.053 401.263 188.167 401.188 188.301C401.113 188.436 401.072 188.586 401.07 188.74H399.89C399.896 188.376 400.022 188.024 400.25 187.74C400.515 187.41 400.859 187.152 401.25 186.99C401.685 186.799 402.155 186.704 402.63 186.71C403.302 186.668 403.965 186.879 404.49 187.3C404.716 187.507 404.895 187.759 405.016 188.04C405.137 188.321 405.196 188.624 405.19 188.93V192.1C405.17 192.611 405.251 193.121 405.43 193.6V193.7L404.15 193.75ZM402.2 192.86C402.57 192.859 402.932 192.759 403.25 192.57C403.556 192.401 403.803 192.143 403.96 191.83V190.42H403C401.56 190.42 400.84 190.84 400.84 191.68C400.833 191.842 400.862 192.004 400.926 192.153C400.99 192.302 401.087 192.434 401.21 192.54C401.488 192.768 401.841 192.883 402.2 192.86Z" fill="#444444"/>
<path d="M410.26 187.94C410.068 187.907 409.874 187.89 409.68 187.89C409.346 187.863 409.013 187.946 408.731 188.127C408.45 188.307 408.235 188.575 408.12 188.89V193.76H406.94V186.89H408.08V187.69C408.244 187.401 408.483 187.164 408.772 187.001C409.061 186.839 409.389 186.759 409.72 186.77C409.897 186.763 410.073 186.79 410.24 186.85L410.26 187.94Z" fill="#444444"/>
<path d="M417.19 190.39C417.235 191.29 416.982 192.179 416.47 192.92C416.248 193.242 415.948 193.502 415.598 193.677C415.249 193.852 414.86 193.935 414.47 193.92C414.087 193.936 413.707 193.861 413.359 193.701C413.012 193.541 412.707 193.301 412.47 193L412.42 193.79H411.34V184H412.51V187.64C412.748 187.344 413.054 187.109 413.402 186.956C413.75 186.803 414.13 186.735 414.51 186.76C414.895 186.74 415.279 186.815 415.628 186.979C415.977 187.143 416.28 187.391 416.51 187.7C417.02 188.464 417.269 189.373 417.22 190.29L417.19 190.39ZM416.02 190.26C416.059 189.609 415.895 188.963 415.55 188.41C415.403 188.195 415.204 188.022 414.971 187.907C414.738 187.791 414.479 187.737 414.22 187.75C413.864 187.736 413.513 187.833 413.214 188.026C412.915 188.219 412.683 188.5 412.55 188.83V191.83C412.689 192.158 412.923 192.437 413.223 192.63C413.523 192.822 413.874 192.92 414.23 192.91C414.486 192.919 414.741 192.864 414.971 192.75C415.202 192.637 415.4 192.469 415.55 192.26C415.901 191.655 416.059 190.957 416 190.26H416.02Z" fill="#444444"/>
<path d="M419.93 193.75H418.75V184H419.93V193.75Z" fill="#444444"/>
<path d="M421.45 190.25C421.44 189.624 421.577 189.004 421.85 188.44C422.091 187.928 422.473 187.495 422.95 187.19C423.438 186.896 424 186.747 424.57 186.76C424.997 186.747 425.422 186.83 425.813 187.003C426.205 187.176 426.552 187.435 426.83 187.76C427.436 188.479 427.747 189.401 427.7 190.34V190.42C427.709 191.041 427.579 191.656 427.32 192.22C427.082 192.732 426.7 193.163 426.22 193.46C425.728 193.765 425.158 193.921 424.58 193.91C424.153 193.92 423.729 193.836 423.338 193.663C422.947 193.49 422.6 193.233 422.32 192.91C421.717 192.194 421.406 191.276 421.45 190.34V190.25ZM422.63 190.39C422.601 191.045 422.787 191.691 423.16 192.23C423.323 192.451 423.538 192.63 423.785 192.75C424.032 192.87 424.305 192.929 424.58 192.92C424.856 192.929 425.13 192.87 425.378 192.748C425.625 192.626 425.839 192.444 426 192.22C426.391 191.63 426.577 190.927 426.53 190.22C426.559 189.567 426.369 188.923 425.99 188.39C425.823 188.174 425.608 187.999 425.363 187.879C425.118 187.759 424.848 187.696 424.575 187.696C424.302 187.696 424.032 187.759 423.787 187.879C423.542 187.999 423.327 188.174 423.16 188.39C422.768 188.98 422.582 189.683 422.63 190.39Z" fill="#444444"/>
<path d="M433.1 191.93C433.106 191.786 433.076 191.644 433.013 191.515C432.95 191.386 432.856 191.274 432.74 191.19C432.358 190.957 431.933 190.803 431.49 190.74C430.999 190.647 430.522 190.493 430.07 190.28C429.763 190.135 429.498 189.915 429.3 189.64C429.126 189.384 429.039 189.079 429.05 188.77C429.05 188.493 429.114 188.22 429.238 187.972C429.361 187.724 429.539 187.508 429.76 187.34C430.283 186.938 430.931 186.732 431.59 186.76C432.271 186.728 432.942 186.941 433.48 187.36C433.713 187.542 433.9 187.776 434.027 188.044C434.154 188.311 434.216 188.604 434.21 188.9H433C432.998 188.74 432.96 188.582 432.889 188.438C432.818 188.295 432.716 188.169 432.59 188.07C432.308 187.839 431.954 187.716 431.59 187.72C431.235 187.701 430.883 187.799 430.59 188C430.476 188.084 430.384 188.194 430.321 188.321C430.259 188.448 430.227 188.588 430.23 188.73C430.223 188.857 430.251 188.985 430.311 189.097C430.37 189.21 430.46 189.304 430.57 189.37C430.95 189.567 431.358 189.706 431.78 189.78C432.272 189.883 432.752 190.041 433.21 190.25C433.529 190.401 433.807 190.628 434.02 190.91C434.198 191.19 434.289 191.518 434.28 191.85C434.288 192.136 434.225 192.42 434.098 192.676C433.971 192.932 433.782 193.153 433.55 193.32C432.989 193.712 432.314 193.909 431.63 193.88C431.131 193.889 430.637 193.79 430.18 193.59C429.778 193.413 429.432 193.13 429.18 192.77C428.948 192.438 428.823 192.044 428.82 191.64H430C430.004 191.82 430.048 191.997 430.13 192.158C430.211 192.319 430.327 192.46 430.47 192.57C430.805 192.816 431.215 192.939 431.63 192.92C432.006 192.94 432.379 192.846 432.7 192.65C432.823 192.575 432.925 192.469 432.995 192.343C433.066 192.217 433.102 192.074 433.1 191.93Z" fill="#444444"/>
<path d="M181 174H123V256H181V174Z" fill="#F5F5F5"/>
<path d="M133.33 193.75V187.75H132.25V186.84H133.33V186.14C133.311 185.83 133.353 185.519 133.454 185.226C133.555 184.932 133.714 184.662 133.92 184.43C134.143 184.223 134.407 184.062 134.694 183.959C134.981 183.856 135.286 183.812 135.59 183.83C135.863 183.828 136.135 183.862 136.4 183.93L136.34 184.88C136.129 184.839 135.915 184.819 135.7 184.82C135.538 184.812 135.375 184.838 135.224 184.897C135.072 184.955 134.935 185.045 134.82 185.16C134.704 185.297 134.617 185.457 134.563 185.629C134.51 185.8 134.492 185.981 134.51 186.16V186.88H136V187.79H134.54V193.79L133.33 193.75Z" fill="#444444"/>
<path d="M141.36 193.75C141.274 193.518 141.22 193.276 141.2 193.03C140.945 193.304 140.636 193.522 140.291 193.668C139.946 193.815 139.575 193.887 139.2 193.88C138.593 193.905 137.999 193.698 137.54 193.3C137.33 193.122 137.162 192.9 137.05 192.649C136.937 192.398 136.883 192.125 136.89 191.85C136.88 191.527 136.949 191.206 137.09 190.915C137.231 190.624 137.44 190.372 137.7 190.18C138.387 189.749 139.191 189.543 140 189.59H141.14V189.05C141.153 188.866 141.126 188.682 141.062 188.51C140.999 188.338 140.899 188.181 140.77 188.05C140.625 187.917 140.454 187.816 140.269 187.752C140.083 187.689 139.886 187.664 139.69 187.68C139.311 187.669 138.94 187.781 138.63 188C138.503 188.084 138.398 188.198 138.325 188.333C138.252 188.467 138.212 188.617 138.21 188.77H137.03C137.036 188.406 137.162 188.054 137.39 187.77C137.655 187.439 137.999 187.181 138.39 187.02C138.825 186.828 139.295 186.733 139.77 186.74C140.442 186.698 141.105 186.908 141.63 187.33C141.856 187.535 142.035 187.787 142.154 188.069C142.273 188.35 142.33 188.654 142.32 188.96V192.13C142.302 192.641 142.387 193.151 142.57 193.63V193.73L141.36 193.75ZM139.42 192.86C139.773 192.85 140.117 192.75 140.42 192.57C140.729 192.401 140.979 192.143 141.14 191.83V190.42H140.22C138.78 190.42 138.06 190.84 138.06 191.68C138.047 191.842 138.074 192.006 138.138 192.156C138.203 192.306 138.303 192.437 138.43 192.54C138.707 192.77 139.061 192.884 139.42 192.86Z" fill="#444444"/>
<path d="M147.48 187.94C147.289 187.907 147.095 187.89 146.9 187.89C146.565 187.864 146.231 187.947 145.948 188.128C145.665 188.308 145.448 188.575 145.33 188.89V193.76H144.16V186.89H145.3V187.69C145.464 187.401 145.703 187.164 145.992 187.001C146.281 186.839 146.609 186.759 146.94 186.77C147.117 186.763 147.294 186.79 147.46 186.85L147.48 187.94Z" fill="#444444"/>
<path d="M154.41 190.39C154.459 191.292 154.202 192.183 153.68 192.92C153.465 193.234 153.175 193.49 152.836 193.665C152.498 193.839 152.121 193.927 151.74 193.92C151.357 193.938 150.976 193.864 150.628 193.704C150.28 193.544 149.975 193.302 149.74 193L149.68 193.79H148.6V184H149.78V187.64C150.018 187.343 150.324 187.108 150.672 186.955C151.02 186.801 151.4 186.735 151.78 186.76C152.165 186.737 152.55 186.811 152.9 186.975C153.249 187.14 153.552 187.389 153.78 187.7C154.298 188.461 154.551 189.371 154.5 190.29L154.41 190.39ZM153.23 190.26C153.272 189.611 153.111 188.964 152.77 188.41C152.623 188.195 152.424 188.022 152.191 187.907C151.958 187.791 151.7 187.737 151.44 187.75C151.084 187.735 150.732 187.831 150.433 188.024C150.134 188.218 149.902 188.499 149.77 188.83V191.83C149.909 192.158 150.143 192.437 150.443 192.63C150.743 192.822 151.094 192.92 151.45 192.91C151.705 192.92 151.959 192.865 152.188 192.752C152.417 192.638 152.613 192.469 152.76 192.26C153.124 191.66 153.288 190.96 153.23 190.26Z" fill="#444444"/>
<path d="M157.14 193.75H156V184H157.17L157.14 193.75Z" fill="#444444"/>
<path d="M158.67 190.25C158.661 189.625 158.794 189.006 159.06 188.44C159.307 187.929 159.691 187.496 160.17 187.19C160.655 186.897 161.213 186.748 161.78 186.76C162.209 186.748 162.635 186.831 163.028 187.004C163.42 187.177 163.77 187.435 164.05 187.76C164.656 188.479 164.967 189.401 164.92 190.34V190.42C164.929 191.041 164.799 191.656 164.54 192.22C164.297 192.728 163.916 193.158 163.44 193.46C162.948 193.765 162.379 193.921 161.8 193.91C161.371 193.919 160.946 193.835 160.554 193.662C160.162 193.489 159.812 193.233 159.53 192.91C158.934 192.19 158.627 191.274 158.67 190.34V190.25ZM159.85 190.39C159.813 191.046 160 191.694 160.38 192.23C160.548 192.446 160.764 192.621 161.01 192.741C161.256 192.861 161.526 192.924 161.8 192.924C162.074 192.924 162.344 192.861 162.59 192.741C162.836 192.621 163.052 192.446 163.22 192.23C163.608 191.638 163.79 190.936 163.74 190.23C163.773 189.578 163.586 188.934 163.21 188.4C163.043 188.184 162.828 188.009 162.583 187.889C162.338 187.769 162.068 187.706 161.795 187.706C161.522 187.706 161.252 187.769 161.007 187.889C160.762 188.009 160.547 188.184 160.38 188.4C159.99 188.987 159.804 189.687 159.85 190.39Z" fill="#444444"/>
<path d="M170.31 191.93C170.318 191.787 170.29 191.645 170.229 191.515C170.168 191.386 170.075 191.274 169.96 191.19C169.578 190.956 169.153 190.803 168.71 190.74C168.219 190.647 167.742 190.492 167.29 190.28C166.982 190.138 166.716 189.917 166.52 189.64C166.347 189.384 166.259 189.079 166.27 188.77C166.268 188.492 166.331 188.219 166.455 187.97C166.578 187.722 166.758 187.506 166.98 187.34C167.499 186.938 168.144 186.732 168.8 186.76C169.484 186.729 170.157 186.942 170.7 187.36C170.932 187.543 171.118 187.778 171.244 188.045C171.371 188.312 171.434 188.604 171.43 188.9H170.25C170.248 188.74 170.21 188.582 170.139 188.438C170.069 188.294 169.966 188.169 169.84 188.07C169.551 187.863 169.206 187.746 168.851 187.733C168.495 187.721 168.143 187.813 167.84 188C167.726 188.084 167.634 188.194 167.572 188.321C167.509 188.448 167.478 188.588 167.48 188.73C167.473 188.857 167.501 188.984 167.561 189.097C167.621 189.21 167.71 189.304 167.82 189.37C168.2 189.567 168.608 189.705 169.03 189.78C169.522 189.885 170.002 190.042 170.46 190.25C170.779 190.401 171.057 190.628 171.27 190.91C171.448 191.19 171.539 191.518 171.53 191.85C171.536 192.137 171.471 192.42 171.342 192.677C171.213 192.933 171.024 193.154 170.79 193.32C170.233 193.712 169.561 193.909 168.88 193.88C168.378 193.887 167.881 193.788 167.42 193.59C167.019 193.412 166.673 193.128 166.42 192.77C166.189 192.438 166.063 192.044 166.06 191.64H167.24C167.242 191.82 167.285 191.998 167.367 192.159C167.448 192.321 167.566 192.461 167.71 192.57C168.045 192.815 168.455 192.939 168.87 192.92C169.246 192.939 169.618 192.845 169.94 192.65C170.059 192.572 170.155 192.465 170.22 192.339C170.285 192.212 170.316 192.072 170.31 191.93Z" fill="#444444"/>
<path d="M1029.7 190.26C1029.65 189.353 1029.92 188.457 1030.45 187.72C1030.68 187.432 1030.97 187.197 1031.3 187.032C1031.62 186.866 1031.99 186.773 1032.35 186.76C1032.72 186.747 1033.09 186.813 1033.43 186.955C1033.77 187.096 1034.07 187.309 1034.32 187.58V184H1035.5V193.75H1034.42L1034.36 193.01C1034.12 193.304 1033.81 193.536 1033.47 193.688C1033.12 193.839 1032.74 193.905 1032.36 193.88C1031.98 193.883 1031.6 193.793 1031.27 193.619C1030.93 193.445 1030.64 193.191 1030.42 192.88C1029.88 192.142 1029.62 191.242 1029.66 190.33L1029.7 190.26ZM1030.88 190.39C1030.84 191.035 1031.01 191.676 1031.36 192.22C1031.51 192.432 1031.71 192.603 1031.94 192.718C1032.17 192.834 1032.43 192.889 1032.69 192.88C1033.03 192.896 1033.37 192.809 1033.66 192.631C1033.95 192.453 1034.18 192.191 1034.32 191.88V188.72C1034.18 188.415 1033.95 188.158 1033.66 187.98C1033.38 187.802 1033.05 187.712 1032.71 187.72C1032.45 187.709 1032.18 187.764 1031.95 187.881C1031.71 187.998 1031.51 188.173 1031.36 188.39C1030.99 188.99 1030.83 189.689 1030.88 190.39Z" fill="#444444"/>
<path d="M1040.16 193.88C1039.74 193.896 1039.31 193.823 1038.92 193.664C1038.53 193.506 1038.17 193.266 1037.88 192.96C1037.28 192.29 1036.97 191.409 1037.01 190.51V190.29C1037 189.661 1037.13 189.039 1037.4 188.47C1037.64 187.955 1038.02 187.519 1038.49 187.21C1038.94 186.915 1039.47 186.758 1040.01 186.76C1040.4 186.738 1040.79 186.806 1041.15 186.958C1041.51 187.111 1041.83 187.344 1042.09 187.64C1042.63 188.367 1042.9 189.264 1042.84 190.17V190.65H1038.18C1038.17 191.252 1038.38 191.837 1038.78 192.29C1038.96 192.495 1039.18 192.658 1039.43 192.766C1039.68 192.875 1039.95 192.928 1040.22 192.92C1040.57 192.92 1040.91 192.834 1041.22 192.67C1041.51 192.493 1041.77 192.263 1041.98 191.99L1042.7 192.55C1042.43 192.974 1042.05 193.32 1041.61 193.554C1041.16 193.787 1040.66 193.899 1040.16 193.88ZM1040.01 187.72C1039.79 187.715 1039.56 187.76 1039.36 187.849C1039.15 187.939 1038.97 188.072 1038.82 188.24C1038.47 188.648 1038.26 189.155 1038.22 189.69H1041.66V189.6C1041.66 189.095 1041.49 188.605 1041.18 188.21C1041.03 188.045 1040.85 187.916 1040.65 187.831C1040.44 187.746 1040.22 187.708 1040 187.72H1040.01Z" fill="#444444"/>
<path d="M1048.49 193.07C1048.24 193.346 1047.93 193.563 1047.58 193.703C1047.24 193.843 1046.86 193.904 1046.49 193.88C1046.18 193.902 1045.87 193.856 1045.58 193.746C1045.3 193.635 1045.03 193.462 1044.82 193.24C1044.4 192.705 1044.19 192.03 1044.24 191.35V186.88H1045.41V191.32C1045.41 192.32 1045.83 192.88 1046.68 192.88C1047.05 192.923 1047.42 192.849 1047.74 192.669C1048.06 192.49 1048.31 192.214 1048.47 191.88V186.88H1049.64V193.75H1048.53L1048.49 193.07Z" fill="#444444"/>
<path d="M1053.11 185.22V186.88H1054.39V187.79H1053.11V192.05C1053.1 192.269 1053.16 192.487 1053.28 192.67C1053.36 192.746 1053.45 192.805 1053.55 192.841C1053.65 192.878 1053.76 192.891 1053.87 192.88C1054.06 192.875 1054.24 192.852 1054.42 192.81V193.75C1054.13 193.837 1053.82 193.881 1053.52 193.88C1053.3 193.896 1053.08 193.861 1052.87 193.777C1052.67 193.694 1052.49 193.565 1052.34 193.4C1052.05 193.013 1051.91 192.533 1051.94 192.05V187.79H1050.69V186.88H1051.94V185.22H1053.11Z" fill="#444444"/>
<path d="M1056.91 193.75H1055.74V184H1056.91V193.75Z" fill="#444444"/>
<path d="M1058.7 185.06C1058.7 184.882 1058.76 184.71 1058.88 184.58C1058.94 184.51 1059.02 184.456 1059.11 184.421C1059.2 184.387 1059.3 184.373 1059.39 184.38C1059.49 184.374 1059.58 184.389 1059.67 184.423C1059.76 184.458 1059.84 184.511 1059.91 184.58C1060.04 184.715 1060.11 184.894 1060.11 185.08C1060.11 185.266 1060.04 185.444 1059.91 185.58C1059.84 185.645 1059.76 185.696 1059.67 185.728C1059.58 185.761 1059.49 185.775 1059.39 185.77C1059.3 185.776 1059.2 185.763 1059.11 185.73C1059.03 185.697 1058.95 185.646 1058.88 185.58C1058.82 185.51 1058.77 185.428 1058.74 185.339C1058.7 185.249 1058.69 185.154 1058.7 185.06ZM1059.97 193.75H1058.79V186.88H1060L1059.97 193.75Z" fill="#444444"/>
<path d="M1064.54 192.92C1064.94 192.925 1065.32 192.79 1065.63 192.54C1065.78 192.428 1065.9 192.285 1065.99 192.122C1066.08 191.958 1066.14 191.777 1066.15 191.59H1067.26C1067.24 191.994 1067.1 192.383 1066.86 192.71C1066.6 193.075 1066.26 193.367 1065.86 193.56C1065.45 193.769 1065 193.879 1064.54 193.88C1064.12 193.899 1063.7 193.824 1063.31 193.662C1062.93 193.499 1062.58 193.253 1062.3 192.94C1061.72 192.22 1061.42 191.307 1061.47 190.38V190.18C1061.46 189.567 1061.59 188.959 1061.84 188.4C1062.07 187.903 1062.44 187.483 1062.9 187.19C1063.39 186.894 1063.96 186.745 1064.53 186.76C1065.23 186.737 1065.92 186.984 1066.45 187.45C1066.7 187.677 1066.9 187.953 1067.04 188.261C1067.18 188.569 1067.26 188.902 1067.26 189.24H1066.15C1066.13 188.826 1065.95 188.434 1065.65 188.15C1065.5 188.008 1065.33 187.896 1065.13 187.823C1064.94 187.749 1064.74 187.714 1064.53 187.72C1064.26 187.708 1064 187.761 1063.75 187.874C1063.51 187.987 1063.3 188.158 1063.14 188.37C1062.78 188.92 1062.6 189.573 1062.65 190.23V190.45C1062.61 191.097 1062.78 191.739 1063.14 192.28C1063.3 192.493 1063.52 192.663 1063.76 192.775C1064 192.886 1064.27 192.936 1064.54 192.92Z" fill="#444444"/>
<path d="M1069.8 187.71C1070.03 187.401 1070.34 187.149 1070.68 186.976C1071.03 186.803 1071.41 186.712 1071.8 186.71C1073.26 186.71 1073.99 187.53 1074 189.16V193.7H1072.83V189.16C1072.86 188.764 1072.74 188.372 1072.49 188.06C1072.36 187.936 1072.2 187.841 1072.03 187.779C1071.85 187.717 1071.67 187.69 1071.49 187.7C1071.13 187.691 1070.78 187.8 1070.49 188.01C1070.2 188.211 1069.96 188.488 1069.81 188.81V193.7H1068.64V184H1069.81L1069.8 187.71Z" fill="#444444"/>
<path d="M1034.05 205.86C1034 204.946 1034.26 204.042 1034.8 203.3C1035.04 203.012 1035.34 202.778 1035.67 202.616C1036.01 202.454 1036.38 202.367 1036.75 202.362C1037.12 202.356 1037.5 202.432 1037.84 202.583C1038.18 202.735 1038.48 202.959 1038.73 203.24V202.48H1039.81V209.19C1039.83 209.575 1039.77 209.96 1039.63 210.321C1039.5 210.682 1039.29 211.012 1039.02 211.29C1038.73 211.551 1038.4 211.752 1038.03 211.883C1037.67 212.013 1037.28 212.07 1036.89 212.05C1036.39 212.05 1035.9 211.944 1035.44 211.74C1035 211.558 1034.62 211.257 1034.35 210.87L1034.96 210.16C1035.17 210.451 1035.45 210.688 1035.77 210.851C1036.09 211.015 1036.45 211.1 1036.81 211.1C1037.06 211.115 1037.3 211.079 1037.53 210.995C1037.76 210.911 1037.97 210.78 1038.15 210.61C1038.32 210.428 1038.45 210.213 1038.53 209.979C1038.61 209.745 1038.65 209.497 1038.63 209.25V208.67C1038.39 208.94 1038.09 209.153 1037.76 209.293C1037.42 209.434 1037.06 209.497 1036.7 209.48C1036.31 209.491 1035.92 209.405 1035.57 209.231C1035.23 209.056 1034.93 208.798 1034.7 208.48C1034.2 207.701 1033.98 206.781 1034.05 205.86ZM1035.24 205.99C1035.2 206.634 1035.36 207.275 1035.71 207.82C1035.86 208.032 1036.06 208.204 1036.29 208.32C1036.52 208.435 1036.78 208.49 1037.04 208.48C1037.38 208.494 1037.72 208.406 1038.01 208.228C1038.3 208.05 1038.54 207.79 1038.68 207.48V204.35C1038.54 204.044 1038.31 203.786 1038.02 203.609C1037.73 203.431 1037.4 203.341 1037.06 203.35C1036.8 203.339 1036.54 203.395 1036.3 203.512C1036.07 203.629 1035.87 203.804 1035.72 204.02C1035.36 204.614 1035.19 205.306 1035.24 206V205.99Z" fill="#444444"/>
<path d="M1044.49 209.48C1044.07 209.496 1043.64 209.422 1043.25 209.264C1042.86 209.105 1042.5 208.865 1042.21 208.56C1041.61 207.89 1041.3 207.009 1041.34 206.11V205.89C1041.33 205.261 1041.46 204.638 1041.73 204.07C1041.97 203.555 1042.35 203.118 1042.82 202.81C1043.27 202.515 1043.8 202.359 1044.34 202.36C1044.73 202.337 1045.12 202.405 1045.48 202.558C1045.84 202.71 1046.16 202.944 1046.42 203.24C1046.96 203.963 1047.23 204.857 1047.17 205.76V206.25H1042.51C1042.5 206.852 1042.71 207.436 1043.11 207.89C1043.29 208.093 1043.51 208.255 1043.76 208.364C1044.01 208.473 1044.28 208.526 1044.55 208.52C1044.92 208.53 1045.29 208.44 1045.61 208.26C1045.9 208.087 1046.16 207.859 1046.36 207.59L1047.08 208.15C1046.81 208.581 1046.42 208.932 1045.97 209.166C1045.51 209.4 1045 209.508 1044.49 209.48ZM1044.34 203.32C1044.12 203.315 1043.89 203.359 1043.69 203.449C1043.48 203.539 1043.3 203.672 1043.15 203.84C1042.8 204.247 1042.59 204.755 1042.55 205.29H1046V205.2C1046 204.695 1045.83 204.205 1045.52 203.81C1045.37 203.645 1045.19 203.515 1044.99 203.431C1044.78 203.346 1044.56 203.308 1044.34 203.32Z" fill="#444444"/>
<path d="M1050.2 200.82V202.48H1051.48V203.39H1050.2V207.65C1050.18 207.871 1050.24 208.092 1050.37 208.27C1050.44 208.347 1050.54 208.405 1050.64 208.442C1050.74 208.478 1050.84 208.491 1050.95 208.48C1051.14 208.476 1051.33 208.452 1051.51 208.41V209.35C1051.22 209.436 1050.91 209.48 1050.61 209.48C1050.39 209.496 1050.17 209.461 1049.96 209.378C1049.75 209.295 1049.57 209.166 1049.42 209C1049.13 208.61 1048.99 208.133 1049.02 207.65V203.39H1047.77V202.48H1049V200.82H1050.2Z" fill="#444444"/>
<path d="M1052.29 205.85C1052.28 205.224 1052.42 204.604 1052.69 204.04C1052.93 203.525 1053.31 203.091 1053.79 202.79C1054.28 202.496 1054.84 202.347 1055.41 202.36C1055.84 202.348 1056.27 202.432 1056.66 202.605C1057.05 202.778 1057.4 203.036 1057.68 203.36C1058.28 204.082 1058.59 205.003 1058.54 205.94V206C1058.56 206.621 1058.43 207.238 1058.16 207.8C1057.92 208.312 1057.54 208.743 1057.06 209.04C1056.57 209.345 1056 209.501 1055.42 209.49C1054.99 209.499 1054.57 209.415 1054.18 209.242C1053.79 209.069 1053.44 208.812 1053.16 208.49C1052.56 207.773 1052.25 206.856 1052.29 205.92V205.85ZM1053.29 200.64C1053.29 200.465 1053.35 200.294 1053.46 200.16C1053.6 200.048 1053.78 199.987 1053.96 199.987C1054.14 199.987 1054.32 200.048 1054.46 200.16C1054.58 200.29 1054.65 200.463 1054.64 200.64C1054.64 200.728 1054.63 200.816 1054.6 200.899C1054.57 200.981 1054.52 201.056 1054.46 201.12C1054.32 201.232 1054.14 201.293 1053.96 201.293C1053.78 201.293 1053.6 201.232 1053.46 201.12C1053.36 200.983 1053.31 200.812 1053.32 200.64H1053.29ZM1053.44 205.99C1053.41 206.645 1053.6 207.291 1053.97 207.83C1054.13 208.051 1054.35 208.229 1054.6 208.349C1054.84 208.469 1055.12 208.528 1055.39 208.52C1055.67 208.53 1055.94 208.471 1056.19 208.349C1056.44 208.227 1056.65 208.045 1056.81 207.82C1057.2 207.23 1057.39 206.527 1057.34 205.82C1057.37 205.167 1057.18 204.523 1056.8 203.99C1056.63 203.774 1056.42 203.599 1056.18 203.479C1055.93 203.359 1055.66 203.296 1055.39 203.296C1055.12 203.296 1054.85 203.359 1054.6 203.479C1054.36 203.599 1054.15 203.774 1053.98 203.99C1053.59 204.583 1053.41 205.292 1053.47 206L1053.44 205.99ZM1056.02 200.66C1056.02 200.482 1056.08 200.308 1056.19 200.17C1056.33 200.058 1056.51 199.997 1056.69 199.997C1056.87 199.997 1057.05 200.058 1057.19 200.17C1057.31 200.305 1057.37 200.48 1057.37 200.66C1057.38 200.837 1057.31 201.01 1057.19 201.14C1057.05 201.252 1056.87 201.313 1056.69 201.313C1056.51 201.313 1056.33 201.252 1056.19 201.14C1056.09 201.002 1056.04 200.832 1056.05 200.66H1056.02Z" fill="#444444"/>
<path d="M1061.12 202.48V203.35C1061.36 203.032 1061.67 202.775 1062.03 202.602C1062.39 202.428 1062.78 202.342 1063.18 202.35C1064.63 202.35 1065.36 203.16 1065.38 204.8V209.34H1064.2V204.8C1064.24 204.403 1064.11 204.008 1063.86 203.7C1063.73 203.575 1063.57 203.479 1063.4 203.417C1063.23 203.355 1063.04 203.329 1062.86 203.34C1062.5 203.333 1062.15 203.442 1061.86 203.65C1061.57 203.853 1061.34 204.129 1061.19 204.45V209.34H1060V202.47L1061.12 202.48Z" fill="#444444"/>
<path d="M1068.79 200.82V202.48H1070.07V203.39H1068.79V207.65C1068.78 207.87 1068.84 208.088 1068.96 208.27C1069.04 208.347 1069.13 208.405 1069.23 208.442C1069.33 208.478 1069.44 208.491 1069.55 208.48C1069.74 208.476 1069.92 208.452 1070.1 208.41V209.35C1069.81 209.437 1069.5 209.481 1069.2 209.48C1068.98 209.499 1068.75 209.466 1068.54 209.382C1068.33 209.299 1068.15 209.168 1068 209C1067.71 208.614 1067.57 208.134 1067.6 207.65V203.39H1066.35V202.48H1067.6V200.82H1068.79Z" fill="#444444"/>
</g>
<defs>
<clipPath id="clip0_408_3160">
<rect width="1120" height="220" fill="white"/>
</clipPath>
</defs>
</svg>
