<svg width="59" height="59" viewBox="0 0 59 59" fill="none" xmlns="http://www.w3.org/2000/svg">
<g clip-path="url(#clip0_27_41)">
<path d="M51.625 32.5533V49.1668H54.0833V54.0834H4.91668V49.1668H7.37501V32.5533C5.86159 31.5432 4.62097 30.175 3.76328 28.5703C2.90558 26.9655 2.45734 25.1738 2.45835 23.3542C2.45835 21.3212 3.00901 19.3619 4.01447 17.6927L10.6815 6.14591C10.8972 5.77221 11.2076 5.46188 11.5813 5.24612C11.955 5.03035 12.3789 4.91676 12.8104 4.91675H46.1921C46.6236 4.91676 47.0475 5.03035 47.4212 5.24612C47.7949 5.46188 48.1053 5.77221 48.321 6.14591L54.9634 17.6558C56.43 20.0917 56.9014 22.9991 56.2796 25.7736C55.6579 28.5481 53.9908 30.9762 51.625 32.5533ZM46.7083 34.3479C45.0181 34.5375 43.3069 34.3345 41.7079 33.7546C40.1089 33.1747 38.6654 32.2336 37.4896 31.0046C36.4576 32.084 35.2176 32.943 33.8444 33.5299C32.4712 34.1168 30.9934 34.4193 29.5 34.4192C28.007 34.4199 26.5294 34.1182 25.1562 33.5322C23.783 32.9461 22.5428 32.088 21.5104 31.0095C20.3344 32.2381 18.8908 33.1787 17.2918 33.7582C15.6929 34.3377 13.9818 34.5403 12.2917 34.3504V49.1668H46.7083V34.3504V34.3479ZM14.2313 9.83342L8.25018 20.1904C7.66897 21.6264 7.65153 23.2289 8.20133 24.6773C8.75114 26.1256 9.82764 27.3129 11.2154 28.0015C12.6031 28.6901 14.1997 28.8292 15.6856 28.3909C17.1715 27.9527 18.4371 26.9695 19.2291 25.638C20.0526 23.5804 22.9658 23.5804 23.7918 25.638C24.2473 26.7797 25.0347 27.7586 26.0523 28.4482C27.0698 29.1377 28.2708 29.5063 29.5 29.5063C30.7292 29.5063 31.9302 29.1377 32.9478 28.4482C33.9653 27.7586 34.7527 26.7797 35.2083 25.638C36.0318 23.5804 38.9449 23.5804 39.7709 25.638C40.09 26.4234 40.568 27.1342 41.175 27.7258C41.782 28.3175 42.5048 28.7772 43.298 29.0761C44.0912 29.3749 44.9376 29.5065 45.7841 29.4624C46.6306 29.4184 47.4589 29.1997 48.2168 28.8202C48.9747 28.4406 49.6459 27.9084 50.1882 27.2569C50.7305 26.6055 51.1322 25.8489 51.368 25.0347C51.6039 24.2205 51.6687 23.3664 51.5585 22.5259C51.4483 21.6855 51.1655 20.8769 50.7277 20.151L44.7663 9.83342H14.2338H14.2313Z" fill="#D2B574"/>
</g>
<defs>
<clipPath id="clip0_27_41">
<rect width="59" height="59" fill="white"/>
</clipPath>
</defs>
</svg>
