<svg width="59" height="59" viewBox="0 0 59 59" fill="none" xmlns="http://www.w3.org/2000/svg">
<g clip-path="url(#clip0_27_65)">
<path d="M29.5 17.2082C34.7159 17.2082 39.7182 19.2802 43.4064 22.9684C47.0946 26.6566 49.1667 31.6589 49.1667 36.8749C49.1667 42.0908 47.0946 47.0931 43.4064 50.7813C39.7182 54.4695 34.7159 56.5415 29.5 56.5415C24.2841 56.5415 19.2818 54.4695 15.5936 50.7813C11.9054 47.0931 9.83334 42.0908 9.83334 36.8749C9.83334 31.6589 11.9054 26.6566 15.5936 22.9684C19.2818 19.2802 24.2841 17.2082 29.5 17.2082ZM29.5 22.1249C25.5881 22.1249 21.8363 23.6789 19.0702 26.445C16.304 29.2112 14.75 32.9629 14.75 36.8749C14.75 40.7868 16.304 44.5385 19.0702 47.3047C21.8363 50.0708 25.5881 51.6249 29.5 51.6249C33.4119 51.6249 37.1637 50.0708 39.9298 47.3047C42.696 44.5385 44.25 40.7868 44.25 36.8749C44.25 32.9629 42.696 29.2112 39.9298 26.445C37.1637 23.6789 33.4119 22.1249 29.5 22.1249ZM29.5 25.8124L32.7524 32.4007L40.0217 33.4578L34.7608 38.5834L36.0023 45.8256L29.5 42.4061L22.9977 45.8232L24.2392 38.5834L18.9783 33.4553L26.2476 32.3982L29.5 25.8124ZM44.25 4.91652V12.2915L40.8993 15.0891C38.1188 13.6303 35.083 12.7213 31.9583 12.412V4.91652H44.25ZM27.0417 4.91406V12.412C23.918 12.7209 20.8831 13.629 18.1032 15.0866L14.75 12.2915V4.91652L27.0417 4.91406Z" fill="#D2B574"/>
</g>
<defs>
<clipPath id="clip0_27_65">
<rect width="59" height="59" fill="white"/>
</clipPath>
</defs>
</svg>
