<svg width="158.339355" height="118.252930" viewBox="0 0 158.339 118.253" fill="none" xmlns="http://www.w3.org/2000/svg" xmlns:xlink="http://www.w3.org/1999/xlink">
	<desc>
			Created with Pixso.
	</desc>
	<defs/>
	<path id="Pfad 4626" d="M156.84 46.28L131.98 24.07L107.33 24.07L107.33 91.24L156.84 46.28Z" fill="#FFFFCF" fill-opacity="1.000000" fill-rule="nonzero"/>
	<path id="Pfad 4627" d="M26.19 24.07L1.49 46.28L51.4 91.7L51.4 24.07L26.19 24.07Z" fill="#FFFFFF" fill-opacity="1.000000" fill-rule="nonzero"/>
	<path id="Pfad 4628" d="M107.33 91.24L107.33 24.07L51.4 24.07L51.4 91.7L79.09 116.9L107.33 91.24Z" fill="#FFFFF1" fill-opacity="1.000000" fill-rule="nonzero"/>
	<path id="Linie 370" d="M1.48 46.46L156.84 46.46" stroke="#D9DADA" stroke-opacity="1.000000" stroke-width="1.000000" stroke-linecap="round"/>
	<path id="Pfad 4629" d="M26.19 24.07L1.49 46.28L79.09 116.9L156.84 46.29L131.98 24.07L78.79 24.07L26.19 24.07Z" stroke="#1A1A18" stroke-opacity="1.000000" stroke-width="2.000000"/>
	<path id="Pfad 4630" d="M107.87 115.86L107.87 0" stroke="#D1050C" stroke-opacity="1.000000" stroke-width="2.000000"/>
	<path id="Pfad 4631" d="M51.94 115.86L51.94 0" stroke="#D1050C" stroke-opacity="1.000000" stroke-width="2.000000"/>
</svg>
