<svg width="153.492676" height="91.826660" viewBox="0 0 153.493 91.8267" fill="none" xmlns="http://www.w3.org/2000/svg" xmlns:xlink="http://www.w3.org/1999/xlink">
	<desc>
			Created with Pixso.
	</desc>
	<defs/>
	<path id="Linie 368" d="M1.49 22.58L151.99 22.58" stroke="#D9DADA" stroke-opacity="1.000000" stroke-width="1.000000" stroke-linecap="round"/>
	<path id="Pfad 4619" d="M25.42 1L1.49 22.41L76.67 90.47L151.99 22.41L127.91 1L76.38 1L25.42 1Z" stroke="#1A1A18" stroke-opacity="1.000000" stroke-width="2.000000"/>
	<path id="Pfad 4620" d="M99.51 48.31C98.01 49.81 88.98 57.31 88.98 57.31C88.98 57.31 81.45 54.31 81.45 57.31C81.45 60.32 84.46 58.81 84.46 61.82" stroke="#D1050C" stroke-opacity="1.000000" stroke-width="2.000000"/>
	<path id="Pfad 4621" d="M91.99 15.3C92.86 18.24 92.86 21.37 91.99 24.31" stroke="#D1050C" stroke-opacity="1.000000" stroke-width="2.000000"/>
	<path id="Pfad 4622" d="M45.53 9.3C33.24 19.8 29.72 23.3 38.5 26.81C47.28 30.31 54.31 28.56 50.79 33.81C47.28 39.06 43.77 37.31 47.28 39.06C48.9 40 50.7 40.59 52.56 40.81" stroke="#D1050C" stroke-opacity="1.000000" stroke-width="2.000000"/>
</svg>
