<svg width="44" height="44" viewBox="0 0 44 44" fill="none" xmlns="http://www.w3.org/2000/svg">
<g clip-path="url(#clip0_153_478)">
<path d="M5.5 12.8333V28.4166C5.5 29.6322 5.98289 30.798 6.84243 31.6575C7.70197 32.5171 8.86776 33 10.0833 33H12.0267C12.8513 32.9983 13.665 32.8113 14.4076 32.4527C15.1502 32.0941 15.8026 31.5731 16.3167 30.9283L19.14 27.4083C19.4836 26.98 19.9189 26.6344 20.4139 26.3969C20.9089 26.1594 21.451 26.0362 22 26.0362C22.549 26.0362 23.0911 26.1594 23.5861 26.3969C24.0811 26.6344 24.5164 26.98 24.86 27.4083L27.6833 30.9283C28.1974 31.5731 28.8498 32.0941 29.5924 32.4527C30.335 32.8113 31.1487 32.9983 31.9733 33H33.9167C35.1322 33 36.298 32.5171 37.1576 31.6575C38.0171 30.798 38.5 29.6322 38.5 28.4166V12.8333C38.5 11.8608 38.1137 10.9282 37.4261 10.2406C36.7384 9.55293 35.8058 9.16663 34.8333 9.16663H9.16667C8.19421 9.16663 7.26158 9.55293 6.57394 10.2406C5.88631 10.9282 5.5 11.8608 5.5 12.8333V12.8333Z" stroke="black" stroke-width="2.75" stroke-linecap="round" stroke-linejoin="round"/>
<path d="M14.6667 22C15.6792 22 16.5 21.1792 16.5 20.1667C16.5 19.1542 15.6792 18.3334 14.6667 18.3334C13.6542 18.3334 12.8334 19.1542 12.8334 20.1667C12.8334 21.1792 13.6542 22 14.6667 22Z" stroke="black" stroke-width="2.75" stroke-linecap="round" stroke-linejoin="round"/>
<path d="M29.3333 22C30.3459 22 31.1667 21.1792 31.1667 20.1667C31.1667 19.1542 30.3459 18.3334 29.3333 18.3334C28.3208 18.3334 27.5 19.1542 27.5 20.1667C27.5 21.1792 28.3208 22 29.3333 22Z" stroke="black" stroke-width="2.75" stroke-linecap="round" stroke-linejoin="round"/>
</g>
<defs>
<clipPath id="clip0_153_478">
<rect width="44" height="44" fill="white"/>
</clipPath>
</defs>
</svg>
