<svg width="44" height="44" viewBox="0 0 44 44" fill="none" xmlns="http://www.w3.org/2000/svg">
<g clip-path="url(#clip0_153_483)">
<path d="M27.5 14.6666H27.5183" stroke="#D2B574" stroke-width="2.75" stroke-linecap="round" stroke-linejoin="round"/>
<path d="M31.1667 7.33337H12.8334C9.79581 7.33337 7.33337 9.79581 7.33337 12.8334V31.1667C7.33337 34.2043 9.79581 36.6667 12.8334 36.6667H31.1667C34.2043 36.6667 36.6667 34.2043 36.6667 31.1667V12.8334C36.6667 9.79581 34.2043 7.33337 31.1667 7.33337Z" stroke="#D2B574" stroke-width="2.75" stroke-linecap="round" stroke-linejoin="round"/>
<path d="M7.33337 27.5L14.6667 20.1667C15.5028 19.3622 16.4513 18.9386 17.4167 18.9386C18.3822 18.9386 19.3306 19.3622 20.1667 20.1667L29.3334 29.3334" stroke="#D2B574" stroke-width="2.75" stroke-linecap="round" stroke-linejoin="round"/>
<path d="M25.6666 25.6667L27.5 23.8333C28.3361 23.0288 29.2845 22.6052 30.25 22.6052C31.2154 22.6052 32.1639 23.0288 33 23.8333L36.6666 27.5" stroke="#D2B574" stroke-width="2.75" stroke-linecap="round" stroke-linejoin="round"/>
</g>
<defs>
<clipPath id="clip0_153_483">
<rect width="44" height="44" fill="white"/>
</clipPath>
</defs>
</svg>
