<svg width="28" height="29" viewBox="0 0 28 29" fill="none" xmlns="http://www.w3.org/2000/svg">
<path fill-rule="evenodd" clip-rule="evenodd" d="M0 14.4322C0 21.9552 6.09861 28.0538 13.6216 28.0538C21.1446 28.0538 27.2432 21.9552 27.2432 14.4322C27.2432 6.90915 21.1446 0.810547 13.6216 0.810547C6.09861 0.810547 0 6.90915 0 14.4322ZM11.1244 20.6754L11.3561 17.2032L11.3559 17.203L17.6723 11.5029C17.9496 11.2569 17.6118 11.1369 17.2438 11.3601L9.44849 16.2781L6.08134 15.2271C5.35418 15.0045 5.34896 14.5048 6.24459 14.1456L19.3656 9.08616C19.9649 8.81409 20.5433 9.2301 20.3145 10.1473L18.08 20.6772C17.924 21.4254 17.4719 21.6044 16.8454 21.2587L13.4416 18.7439L11.8054 20.3349C11.8003 20.3399 11.7951 20.3449 11.79 20.3498C11.6071 20.528 11.4557 20.6754 11.1244 20.6754Z" fill="#7D7D7D"/>
</svg>
