<svg width="34" height="34" viewBox="0 0 34 34" fill="none" xmlns="http://www.w3.org/2000/svg">
<circle cx="17" cy="17" r="17" fill="#D2B574" fill-opacity="0.5"/>
<path d="M5.80128 18.8702V18.1477H8.40501V18.8702H5.80128ZM10.7931 19.8918V14.8837C10.7931 14.6262 10.7515 14.4518 10.6685 14.3604C10.5937 14.2608 10.4318 14.2109 10.1826 14.2109L9.89608 14.1985C9.80472 14.1902 9.73412 14.1611 9.68429 14.1113L9.65938 14.0614L9.75904 13.9742C9.89193 13.9576 10.0331 13.941 10.1826 13.9244C10.3321 13.8995 10.5522 13.8579 10.8429 13.7998C11.1336 13.7417 11.3744 13.6545 11.5655 13.5382L11.7149 13.4634C11.7648 13.4634 11.7897 13.5133 11.7897 13.6129L11.7648 14.3978L11.7399 14.9584V19.8544C11.7399 20.3195 11.8644 20.5853 12.1136 20.6517L12.8113 20.7888L12.8362 20.8635C12.8362 20.9133 12.778 20.9383 12.6618 20.9383H12.45L11.2415 20.9009L10.0705 20.9383H9.87116C9.74658 20.9383 9.68429 20.9133 9.68429 20.8635L9.72167 20.7888L10.357 20.6642C10.6477 20.6143 10.7931 20.3569 10.7931 19.8918ZM16.5901 13.5382C17.3874 13.5382 18.0145 13.9908 18.4713 14.8961C18.8367 15.627 19.0194 16.4368 19.0194 17.3254C19.0194 18.2224 18.8409 19.028 18.4837 19.7423C18.0353 20.631 17.404 21.0753 16.5901 21.0753C15.7928 21.0753 15.1616 20.631 14.6965 19.7423C14.3311 19.028 14.1484 18.2183 14.1484 17.313C14.1484 16.3994 14.3311 15.5896 14.6965 14.8837C15.145 13.9867 15.7762 13.5382 16.5901 13.5382ZM15.1948 17.3005L15.1824 17.4251C15.1824 18.2888 15.2447 18.9782 15.3692 19.4931C15.5852 20.3901 15.9838 20.8386 16.5652 20.8386C17.1383 20.8386 17.5411 20.4316 17.7736 19.6177C17.8401 19.3602 17.8899 19.0737 17.9231 18.7581C17.9564 18.4342 17.973 18.0397 17.973 17.5746V17.1759C17.973 16.3122 17.9107 15.6187 17.7861 15.0954C17.5702 14.2151 17.1673 13.7749 16.5777 13.7749C15.9963 13.7749 15.5935 14.2234 15.3692 15.1204C15.2447 15.6353 15.1824 16.3329 15.1824 17.2133L15.1948 17.3005ZM21.7756 21.4241H21.3146L25.5753 14.1735C25.16 14.4144 24.7406 14.5348 24.317 14.5348C24.0097 14.5348 23.6858 14.4642 23.3453 14.323C23.3702 14.4476 23.391 14.5722 23.4076 14.6968C23.4242 14.8131 23.4325 14.9418 23.4325 15.083L23.42 15.3072L23.3827 15.6436C23.2913 16.1087 23.146 16.4949 22.9466 16.8022C22.7058 17.1842 22.3985 17.4459 22.0247 17.587C21.842 17.6535 21.6551 17.6867 21.4641 17.6867C21.2233 17.6867 21.0073 17.641 20.8163 17.5497C20.6253 17.45 20.455 17.3088 20.3055 17.1261C20.0813 16.8271 19.9692 16.4741 19.9692 16.0672C19.9692 15.9841 19.9692 15.8969 19.9692 15.8056C19.9941 15.7142 20.0148 15.6187 20.0315 15.519C20.0481 15.411 20.0854 15.2948 20.1436 15.1702C20.318 14.73 20.5796 14.3521 20.9284 14.0365C21.1195 13.8704 21.3146 13.7458 21.514 13.6628C21.7133 13.5797 21.9334 13.5382 22.1742 13.5382H22.3113C22.5106 13.5382 22.7058 13.6005 22.8968 13.7251L23.4325 14.0739C23.6733 14.2151 23.9391 14.2857 24.2298 14.2857C24.5122 14.2857 24.8112 14.2234 25.1268 14.0988C25.567 13.9244 25.9241 13.6212 26.1982 13.1894H26.5968L21.7756 21.4241ZM21.5389 17.45L21.6385 17.4625C22.0704 17.4625 22.44 17.1967 22.7473 16.6652C23.0629 16.1336 23.2207 15.5896 23.2207 15.0332C23.2207 14.7259 23.1667 14.4642 23.0588 14.2483C22.9591 14.0324 22.7971 13.8912 22.5729 13.8247L22.3611 13.7998C21.9708 13.7998 21.6053 14.0863 21.2648 14.6594C21.0987 14.9501 20.9741 15.2325 20.8911 15.5066C20.808 15.7723 20.7665 16.0589 20.7665 16.3662C20.7665 16.6568 20.8246 16.9019 20.9409 17.1012C21.0655 17.3005 21.2648 17.4168 21.5389 17.45ZM25.7497 21.0379C25.3344 20.9632 25.0188 20.7763 24.8029 20.4773C24.5952 20.1617 24.4914 19.8004 24.4914 19.3935C24.4914 19.219 24.4956 19.0945 24.5039 19.0197C24.5205 18.9367 24.5496 18.8287 24.5911 18.6958C24.7157 18.2141 24.9814 17.7905 25.3884 17.4251C25.8037 17.0514 26.248 16.8645 26.7214 16.8645C26.8875 16.8645 27.0744 16.9019 27.282 16.9766C27.4897 17.0514 27.6599 17.2258 27.7928 17.4998C27.9257 17.7739 27.9921 18.0646 27.9921 18.3719C27.9921 19.0031 27.8136 19.5969 27.4564 20.1534C27.0495 20.7597 26.5761 21.0628 26.0362 21.0628L25.7497 21.0379ZM25.8992 20.7638L26.1608 20.8012C26.5761 20.8012 26.9498 20.5396 27.282 20.0164C27.6142 19.4931 27.7803 18.9491 27.7803 18.3844C27.7803 18.0937 27.7347 17.8528 27.6433 17.6618C27.5686 17.4708 27.4481 17.3254 27.282 17.2258C27.1159 17.1427 26.9706 17.1012 26.846 17.1012C26.5553 17.1012 26.2605 17.3047 25.9615 17.7116C25.7621 17.994 25.596 18.3387 25.4631 18.7456L25.3261 19.244L25.2887 19.7797C25.2887 20.0205 25.3303 20.2281 25.4133 20.4026C25.5047 20.5687 25.6666 20.6891 25.8992 20.7638Z" fill="#2E2E2E"/>
</svg>
