<svg width="21.739685" height="21.994629" viewBox="0 0 21.7397 21.9946" fill="none" xmlns="http://www.w3.org/2000/svg" xmlns:xlink="http://www.w3.org/1999/xlink">
	<desc>
			Created with Pixso.
	</desc>
	<defs>
		<clipPath id="clip390_356">
			<rect id="logos:whatsapp" rx="0.000000" width="21.654760" height="21.909523" transform="translate(0.042460 0.042460)" fill="white" fill-opacity="0"/>
		</clipPath>
	</defs>
	<rect id="logos:whatsapp" rx="0.000000" width="21.654760" height="21.909523" transform="translate(0.042460 0.042460)" fill="#FFFFFF" fill-opacity="0"/>
	<g clip-path="url(#clip390_356)">
		<path id="Vector" d="M5.74 18.83L6.1 19.01C7.58 19.9 9.24 20.31 10.89 20.31C16.11 20.31 20.37 16.05 20.37 10.84C20.37 8.35 19.37 5.92 17.59 4.14C15.81 2.36 13.44 1.36 10.89 1.36C5.68 1.36 1.42 5.62 1.48 10.89C1.48 12.67 2.01 14.39 2.9 15.87L3.13 16.23L2.19 19.72L5.74 18.83Z" fill="#00E676" fill-opacity="1.000000" fill-rule="nonzero"/>
		<path id="Vector" d="M18.6 3.19C16.58 1.12 13.8 0 10.95 0C4.91 0 0.05 4.91 0.11 10.89C0.11 12.79 0.65 14.63 1.54 16.29L0 21.91L5.74 20.43C7.34 21.32 9.12 21.74 10.89 21.74C16.88 21.74 21.74 16.82 21.74 10.84C21.74 7.93 20.61 5.21 18.6 3.19L18.6 3.19ZM10.95 19.9C9.35 19.9 7.76 19.48 6.39 18.65L6.04 18.48L2.6 19.37L3.49 15.99L3.25 15.63C0.65 11.43 1.89 5.86 6.16 3.25C10.42 0.65 15.93 1.89 18.54 6.16C21.14 10.42 19.9 15.93 15.63 18.54C14.27 19.42 12.61 19.9 10.95 19.9L10.95 19.9ZM16.17 13.32L15.52 13.03C15.52 13.03 14.57 12.61 13.98 12.32C13.92 12.32 13.86 12.26 13.8 12.26C13.62 12.26 13.5 12.32 13.38 12.38C13.38 12.38 13.32 12.43 12.49 13.38C12.43 13.5 12.32 13.56 12.2 13.56L12.14 13.56C12.08 13.56 11.96 13.5 11.9 13.44L11.61 13.32C10.95 13.03 10.36 12.67 9.89 12.2C9.77 12.08 9.59 11.96 9.47 11.84C9.06 11.43 8.64 10.95 8.35 10.42L8.29 10.3C8.23 10.24 8.23 10.18 8.17 10.07C8.17 9.95 8.17 9.83 8.23 9.77C8.23 9.77 8.47 9.47 8.64 9.3C8.76 9.18 8.82 9 8.94 8.88C9.06 8.7 9.12 8.47 9.06 8.29C9 7.99 8.29 6.39 8.11 6.04C7.99 5.86 7.87 5.8 7.7 5.74L7.04 5.74C6.93 5.74 6.81 5.8 6.69 5.8L6.63 5.86C6.51 5.92 6.39 6.04 6.27 6.1C6.16 6.22 6.1 6.33 5.98 6.45C5.56 6.99 5.33 7.64 5.33 8.29C5.33 8.76 5.44 9.24 5.62 9.65L5.68 9.83C6.21 10.95 6.93 11.96 7.87 12.85L8.11 13.09C8.29 13.26 8.47 13.38 8.58 13.56C9.83 14.63 11.25 15.4 12.85 15.81C13.03 15.87 13.26 15.87 13.44 15.93L14.03 15.93C14.33 15.93 14.69 15.81 14.92 15.69C15.1 15.57 15.22 15.57 15.34 15.46L15.46 15.34C15.57 15.22 15.69 15.16 15.81 15.04C15.93 14.92 16.05 14.8 16.11 14.69C16.23 14.45 16.29 14.15 16.34 13.86L16.34 13.44C16.34 13.44 16.29 13.38 16.17 13.32Z" fill="#FFFFFF" fill-opacity="1.000000" fill-rule="nonzero"/>
	</g>
</svg>
