<svg width="59" height="59" viewBox="0 0 59 59" fill="none" xmlns="http://www.w3.org/2000/svg">
<g clip-path="url(#clip0_27_53)">
<path d="M29.5025 11.1337C35.2771 5.94912 44.2008 6.1212 49.764 11.6942C55.3248 17.2697 55.5165 26.1492 50.3442 31.9411L29.4975 52.8172L8.6558 31.9411C3.48346 26.1492 3.67767 17.255 9.23596 11.6942C14.8041 6.12858 23.7106 5.94174 29.5025 11.1337ZM46.283 15.1679C42.5955 11.4755 36.6464 11.3255 32.7868 14.7917L29.5049 17.7368L26.2206 14.7942C22.3487 11.323 16.4118 11.4755 12.7145 15.1728C9.05159 18.8357 8.86721 24.6988 12.2425 28.5732L29.5 45.8577L46.7575 28.5756C50.1353 24.6988 49.9509 18.8431 46.283 15.1679Z" fill="#D2B574"/>
</g>
<defs>
<clipPath id="clip0_27_53">
<rect width="59" height="59" fill="white"/>
</clipPath>
</defs>
</svg>
