<svg width="159.000000" height="143.000000" viewBox="0 0 159 143" fill="none" xmlns="http://www.w3.org/2000/svg" xmlns:xlink="http://www.w3.org/1999/xlink">
	<desc>
			Created with Pixso.
	</desc>
	<defs>
		<clipPath id="clip404_2654">
			<rect id="cut" rx="0.000000" width="158.000000" height="142.000000" transform="translate(0.500000 0.500000)" fill="white" fill-opacity="0"/>
		</clipPath>
	</defs>
	<rect id="cut" rx="0.000000" width="158.000000" height="142.000000" transform="translate(0.500000 0.500000)" fill="#FFFFFF" fill-opacity="0"/>
	<g clip-path="url(#clip404_2654)">
		<path id="Linie 372" d="M2.3 71.24L156.69 71.24" stroke="#D9DADA" stroke-opacity="1.000000" stroke-width="1.000000" stroke-linecap="round"/>
		<path id="Pfad 4636" d="M26.85 49.08L2.3 71.06L79.42 140.92L156.69 71.07L131.99 49.08L79.12 49.08L26.85 49.08Z" stroke="#1A1A18" stroke-opacity="1.000000" stroke-width="2.000000"/>
		<path id="Pfad 4637" d="M130.95 27.84L117.43 15.59L103.87 27.84" stroke="#D1050C" stroke-opacity="1.000000" stroke-width="2.000000"/>
		<path id="Pfad 4638" d="M122.69 101.39L122.69 25.97L122.69 101.39L47.55 101.39L122.69 101.39M112.14 25.97L112.14 101.39L112.14 25.97ZM47.55 111.91L112.14 111.91L47.55 111.91L47.55 13.98L47.55 111.91M37 102.03L37 0" stroke="#D1050C" stroke-opacity="1.000000" stroke-width="2.000000"/>
		<path id="Pfad 4639" d="M2.3 71.06L79.42 140.92L156.69 71.07" stroke="#1A1A18" stroke-opacity="1.000000" stroke-width="2.000000"/>
	</g>
</svg>
