<svg width="27.119995" height="27.120117" viewBox="0 0 27.12 27.1201" fill="none" xmlns="http://www.w3.org/2000/svg" xmlns:xlink="http://www.w3.org/1999/xlink">
	<desc>
			Created with Pixso.
	</desc>
	<defs/>
	<path id="Vector" d="M27.12 13.55C27.12 16.24 26.32 18.86 24.83 21.09C23.34 23.32 21.22 25.06 18.74 26.08C16.27 27.11 13.54 27.38 10.91 26.85C8.28 26.33 5.86 25.04 3.97 23.14C2.07 21.25 0.78 18.83 0.26 16.2C-0.27 13.57 0 10.84 1.03 8.37C2.05 5.89 3.79 3.77 6.02 2.28C8.25 0.79 10.87 0 13.56 0C17.15 0 20.6 1.42 23.14 3.97C25.69 6.51 27.12 9.96 27.12 13.55ZM2.62 13.55C2.62 15.72 3.26 17.83 4.46 19.63C5.66 21.43 7.37 22.83 9.37 23.66C11.37 24.49 13.57 24.71 15.69 24.29C17.81 23.86 19.76 22.82 21.29 21.29C22.82 19.76 23.86 17.81 24.28 15.69C24.71 13.57 24.49 11.37 23.66 9.37C22.83 7.37 21.43 5.66 19.63 4.46C17.83 3.26 15.72 2.62 13.56 2.62C10.65 2.62 7.87 3.77 5.82 5.82C3.77 7.87 2.62 10.65 2.62 13.55ZM21.22 10.66L11.79 20.05C11.66 20.18 11.49 20.25 11.32 20.25C11.15 20.25 10.98 20.18 10.86 20.05L5.85 15.05C5.73 14.93 5.66 14.76 5.66 14.59C5.66 14.42 5.73 14.25 5.85 14.12L7.1 12.9C7.16 12.83 7.23 12.78 7.31 12.75C7.39 12.72 7.47 12.7 7.56 12.7C7.65 12.7 7.73 12.72 7.81 12.75C7.89 12.78 7.96 12.83 8.03 12.9L11.3 16.2L19.03 8.53C19.15 8.4 19.32 8.34 19.49 8.34C19.66 8.34 19.83 8.4 19.95 8.53L21.19 9.78C21.3 9.89 21.37 10.05 21.38 10.21C21.38 10.38 21.32 10.54 21.22 10.66Z" fill="#00A80D" fill-opacity="1.000000" fill-rule="nonzero"/>
</svg>
