<svg width="28" height="28" viewBox="0 0 28 28" fill="none" xmlns="http://www.w3.org/2000/svg">
<path fill-rule="evenodd" clip-rule="evenodd" d="M14.3783 0C6.85532 0 0.756714 6.09861 0.756714 13.6216C0.756714 21.1446 6.85532 27.2432 14.3783 27.2432C21.9014 27.2432 28 21.1446 28 13.6216C28 6.09861 21.9014 0 14.3783 0ZM11.3834 6.40062C12.1583 6.36536 12.406 6.35673 14.379 6.35673H14.3767C16.3504 6.35673 16.5971 6.36536 17.372 6.40062C18.1454 6.43604 18.6736 6.55848 19.1368 6.73814C19.615 6.92355 20.0192 7.17176 20.4233 7.57588C20.8274 7.97969 21.0756 8.38501 21.2618 8.86283C21.4404 9.32476 21.563 9.85268 21.5993 10.6261C21.6341 11.401 21.6432 11.6486 21.6432 13.6217C21.6432 15.5947 21.6341 15.8417 21.5993 16.6166C21.563 17.3898 21.4404 17.9178 21.2618 18.3799C21.0756 18.8576 20.8274 19.2629 20.4233 19.6667C20.0196 20.0708 19.6149 20.3196 19.1372 20.5052C18.675 20.6849 18.1465 20.8073 17.3731 20.8427C16.5981 20.878 16.3513 20.8866 14.3781 20.8866C12.4052 20.8866 12.1577 20.878 11.3828 20.8427C10.6095 20.8073 10.0815 20.6849 9.61924 20.5052C9.14172 20.3196 8.7364 20.0708 8.33274 19.6667C7.92878 19.2629 7.68056 18.8576 7.49485 18.3798C7.31535 17.9178 7.1929 17.3899 7.15734 16.6165C7.12222 15.8416 7.11344 15.5947 7.11344 13.6217C7.11344 11.6486 7.12252 11.4009 7.15718 10.6259C7.192 9.85283 7.31459 9.32476 7.4947 8.86268C7.68086 8.38501 7.92908 7.97969 8.3332 7.57588C8.73701 7.17192 9.14233 6.9237 9.62015 6.73814C10.0821 6.55848 10.61 6.43604 11.3834 6.40062Z" fill="#7D7D7D"/>
<path fill-rule="evenodd" clip-rule="evenodd" d="M13.7273 7.66588C13.8539 7.66568 13.99 7.66574 14.1369 7.66581L14.379 7.66588C16.3188 7.66588 16.5487 7.67284 17.3147 7.70765C18.023 7.74004 18.4075 7.8584 18.6635 7.95784C19.0026 8.08952 19.2443 8.24692 19.4984 8.5012C19.7527 8.75547 19.9101 8.99763 20.0421 9.33666C20.1415 9.59245 20.26 9.97689 20.2923 10.6852C20.3271 11.4511 20.3346 11.6811 20.3346 13.62C20.3346 15.5588 20.3271 15.7888 20.2923 16.5547C20.2599 17.263 20.1415 17.6475 20.0421 17.9032C19.9104 18.2423 19.7527 18.4837 19.4984 18.7378C19.2441 18.9921 19.0027 19.1495 18.6635 19.2812C18.4078 19.3811 18.023 19.4991 17.3147 19.5315C16.5488 19.5663 16.3188 19.5739 14.379 19.5739C12.4392 19.5739 12.2093 19.5663 11.4434 19.5315C10.7351 19.4988 10.3506 19.3804 10.0944 19.281C9.75537 19.1493 9.5132 18.9919 9.25893 18.7376C9.00466 18.4834 8.84725 18.2418 8.71527 17.9026C8.61583 17.6468 8.49732 17.2624 8.46508 16.5541C8.43027 15.7882 8.42331 15.5582 8.42331 13.6181C8.42331 11.6781 8.43027 11.4492 8.46508 10.6834C8.49747 9.97507 8.61583 9.59063 8.71527 9.33454C8.84695 8.99551 9.00466 8.75335 9.25893 8.49908C9.5132 8.2448 9.75537 8.0874 10.0944 7.95542C10.3505 7.85552 10.7351 7.73747 11.4434 7.70493C12.1136 7.67466 12.3733 7.66558 13.7273 7.66406V7.66588ZM18.257 8.87215C17.7757 8.87215 17.3852 9.26219 17.3852 9.74364C17.3852 10.2249 17.7757 10.6154 18.257 10.6154C18.7383 10.6154 19.1288 10.2249 19.1288 9.74364C19.1288 9.26234 18.7383 8.87185 18.257 8.87185V8.87215ZM10.6482 13.6217C10.6482 11.5614 12.3186 9.89094 14.3789 9.89086C16.4392 9.89086 18.1093 11.5613 18.1093 13.6217C18.1093 15.6821 16.4394 17.3518 14.379 17.3518C12.3187 17.3518 10.6482 15.6821 10.6482 13.6217Z" fill="#7D7D7D"/>
<path d="M14.379 11.2002C15.7164 11.2002 16.8007 12.2843 16.8007 13.6218C16.8007 14.9592 15.7164 16.0435 14.379 16.0435C13.0415 16.0435 11.9574 14.9592 11.9574 13.6218C11.9574 12.2843 13.0415 11.2002 14.379 11.2002Z" fill="#7D7D7D"/>
</svg>
