<svg width="27.119995" height="27.120117" viewBox="0 0 27.12 27.1201" fill="none" xmlns="http://www.w3.org/2000/svg" xmlns:xlink="http://www.w3.org/1999/xlink">
	<desc>
			Created with Pixso.
	</desc>
	<defs/>
	<path id="Vector" d="M27.12 13.55C27.12 16.24 26.32 18.86 24.83 21.09C23.34 23.32 21.22 25.06 18.74 26.08C16.27 27.11 13.54 27.38 10.91 26.85C8.28 26.33 5.86 25.04 3.97 23.14C2.07 21.25 0.78 18.83 0.26 16.2C-0.27 13.57 0 10.84 1.03 8.37C2.05 5.89 3.79 3.77 6.02 2.28C8.25 0.79 10.87 0 13.56 0C17.15 0 20.6 1.42 23.14 3.97C25.69 6.51 27.12 9.96 27.12 13.55ZM24.5 13.55C24.5 11.39 23.85 9.28 22.65 7.48C21.45 5.68 19.74 4.28 17.74 3.45C15.74 2.62 13.54 2.4 11.42 2.83C9.3 3.25 7.35 4.29 5.82 5.82C4.29 7.35 3.25 9.3 2.83 11.42C2.4 13.54 2.62 15.74 3.45 17.74C4.28 19.74 5.68 21.45 7.48 22.65C9.28 23.85 11.39 24.5 13.56 24.5C16.46 24.5 19.24 23.34 21.29 21.29C23.34 19.24 24.5 16.46 24.5 13.55ZM15.73 13.55L19.12 16.95C19.25 17.08 19.31 17.25 19.31 17.42C19.31 17.59 19.25 17.76 19.12 17.88L17.89 19.12C17.76 19.25 17.59 19.31 17.42 19.31C17.25 19.31 17.08 19.25 16.95 19.12L13.56 15.73L10.16 19.12C10.03 19.25 9.86 19.31 9.69 19.31C9.52 19.31 9.35 19.25 9.23 19.12L7.98 17.88C7.86 17.76 7.8 17.59 7.8 17.42C7.8 17.25 7.86 17.08 7.98 16.95L11.39 13.55L7.98 10.16C7.86 10.03 7.8 9.86 7.8 9.69C7.8 9.52 7.86 9.35 7.98 9.23L9.23 7.99C9.35 7.86 9.52 7.8 9.69 7.8C9.86 7.8 10.03 7.86 10.16 7.99L13.56 11.38L16.95 7.99C17.08 7.86 17.25 7.8 17.42 7.8C17.59 7.8 17.76 7.86 17.89 7.99L19.12 9.23C19.25 9.35 19.31 9.52 19.31 9.69C19.31 9.86 19.25 10.03 19.12 10.16L15.73 13.55Z" fill="#A04F55" fill-opacity="1.000000" fill-rule="nonzero"/>
</svg>
