<svg width="28" height="29" viewBox="0 0 28 29" fill="none" xmlns="http://www.w3.org/2000/svg">
<path d="M27.56 14.4995C27.56 17.1814 26.7647 19.8031 25.2747 22.033C23.7847 24.2629 21.6669 26.0009 19.1892 27.0273C16.7114 28.0536 13.985 28.3221 11.3546 27.7989C8.7242 27.2757 6.30802 25.9842 4.41162 24.0878C2.51522 22.1914 1.22378 19.7752 0.700561 17.1449C0.177346 14.5145 0.445874 11.788 1.4722 9.31026C2.49852 6.83249 4.23653 4.71471 6.46646 3.22472C8.69639 1.73472 11.3181 0.939453 14 0.939453C17.5963 0.939453 21.0454 2.36809 23.5884 4.91109C26.1314 7.45408 27.56 10.9031 27.56 14.4995ZM3.06 14.4995C3.06 16.6632 3.70161 18.7783 4.90372 20.5774C6.10582 22.3765 7.81442 23.7787 9.81345 24.6067C11.8125 25.4347 14.0121 25.6514 16.1343 25.2292C18.2564 24.8071 20.2058 23.7652 21.7357 22.2352C23.2657 20.7052 24.3077 18.7559 24.7298 16.6337C25.1519 14.5116 24.9353 12.3119 24.1072 10.3129C23.2792 8.31387 21.877 6.60527 20.0779 5.40317C18.2789 4.20107 16.1637 3.55945 14 3.55945C11.0985 3.55945 8.3159 4.71205 6.26425 6.7637C4.2126 8.81535 3.06 11.598 3.06 14.4995ZM21.66 11.6094L12.23 20.9995C12.1064 21.1222 11.9392 21.1911 11.765 21.1911C11.5908 21.1911 11.4236 21.1222 11.3 20.9995L6.29999 15.9995C6.17724 15.8758 6.10837 15.7087 6.10837 15.5345C6.10837 15.3602 6.17724 15.1931 6.29999 15.0695L7.54001 13.8394C7.60055 13.7775 7.67286 13.7282 7.75272 13.6946C7.83257 13.661 7.91836 13.6436 8.005 13.6436C8.09165 13.6436 8.17741 13.661 8.25726 13.6946C8.33712 13.7282 8.40946 13.7775 8.47 13.8394L11.74 17.1395L19.47 9.46945C19.5949 9.34908 19.7616 9.28181 19.935 9.28181C20.1084 9.28181 20.2751 9.34908 20.4 9.46945L21.63 10.7195C21.7473 10.8361 21.8158 10.9931 21.8214 11.1585C21.8269 11.3239 21.7692 11.4851 21.66 11.6094Z" fill="#EF9300"/>
</svg>
