<svg width="28" height="29" viewBox="0 0 28 29" fill="none" xmlns="http://www.w3.org/2000/svg">
<path fill-rule="evenodd" clip-rule="evenodd" d="M0.756714 14.4322C0.756714 21.9552 6.85532 28.0538 14.3783 28.0538C21.9014 28.0538 28 21.9552 28 14.4322C28 6.90915 21.9014 0.810547 14.3783 0.810547C6.85532 0.810547 0.756714 6.90915 0.756714 14.4322ZM22.9271 13.9109C22.9253 18.3758 19.2932 22.0088 14.8273 22.0107H14.824C13.4684 22.0102 12.1363 21.6701 10.9533 21.0248L6.65943 22.1511L7.80854 17.9539C7.09971 16.7255 6.72673 15.3321 6.72734 13.9045C6.72912 9.43856 10.3627 5.80517 14.8273 5.80517C16.9941 5.8061 19.0278 6.64963 20.557 8.18067C22.0863 9.71163 22.928 11.7467 22.9271 13.9109Z" fill="#7D7D7D"/>
<path fill-rule="evenodd" clip-rule="evenodd" d="M8.60425 20.2269L11.1523 19.5585L11.3981 19.7044C12.4318 20.3178 13.6166 20.6423 14.8247 20.6428H14.8274C18.538 20.6428 21.5581 17.6227 21.5596 13.9105C21.5603 12.1116 20.8607 10.4202 19.5896 9.14765C18.3186 7.87511 16.6282 7.17396 14.83 7.17334C11.1166 7.17334 8.09644 10.1932 8.09497 13.9051C8.09445 15.1771 8.45038 16.416 9.12429 17.4879L9.28436 17.7426L8.60425 20.2269ZM18.6309 15.6548C18.772 15.7231 18.8673 15.7691 18.908 15.8371C18.9586 15.9215 18.9586 16.3267 18.7901 16.7995C18.6213 17.2722 17.8128 17.7037 17.4239 17.7618C17.0753 17.8139 16.634 17.8357 16.1492 17.6816C15.8552 17.5883 15.4783 17.4638 14.9954 17.2553C13.0981 16.436 11.8159 14.5971 11.5735 14.2495C11.5566 14.2252 11.5447 14.2081 11.5381 14.1993L11.5364 14.1971C11.4293 14.0542 10.7117 13.0967 10.7117 12.1057C10.7117 11.1734 11.1696 10.6848 11.3804 10.4599C11.3948 10.4445 11.4081 10.4303 11.42 10.4173C11.6055 10.2147 11.8248 10.164 11.9597 10.164C12.0946 10.164 12.2297 10.1653 12.3476 10.1712C12.3621 10.1719 12.3773 10.1718 12.3929 10.1717C12.5109 10.171 12.6579 10.1702 12.803 10.5186C12.8588 10.6527 12.9404 10.8515 13.0265 11.0611C13.2007 11.4851 13.3931 11.9536 13.4269 12.0214C13.4776 12.1227 13.5113 12.2408 13.4438 12.3759C13.4337 12.3962 13.4243 12.4153 13.4154 12.4336C13.3647 12.537 13.3274 12.6131 13.2414 12.7135C13.2076 12.753 13.1727 12.7956 13.1377 12.8382C13.0681 12.9229 12.9985 13.0077 12.9379 13.0681C12.8365 13.169 12.7311 13.2785 12.8491 13.4812C12.9672 13.6838 13.3734 14.3465 13.975 14.8832C14.6218 15.4601 15.1839 15.7039 15.4688 15.8275C15.5245 15.8516 15.5695 15.8712 15.6026 15.8877C15.8049 15.9891 15.923 15.9721 16.041 15.8371C16.1591 15.702 16.547 15.2461 16.6819 15.0435C16.8168 14.841 16.9517 14.8747 17.1372 14.9422C17.3228 15.0098 18.3178 15.4994 18.5202 15.6007C18.5597 15.6204 18.5966 15.6383 18.6309 15.6548Z" fill="#7D7D7D"/>
</svg>
