<svg width="113" height="113" viewBox="0 0 113 113" fill="none" xmlns="http://www.w3.org/2000/svg">
<path d="M56.2867 111.803C87.0835 111.803 112.049 86.8375 112.049 56.0407C112.049 25.244 87.0835 0.27832 56.2867 0.27832C25.49 0.27832 0.524292 25.244 0.524292 56.0407C0.524292 86.8375 25.49 111.803 56.2867 111.803Z" fill="#F0F0F0"/>
<path d="M56.2868 112.082C45.203 112.082 34.368 108.795 25.1521 102.637C15.9363 96.4795 8.75335 87.7271 4.51174 77.4869C0.270131 67.2468 -0.839667 55.9788 1.32269 45.1079C3.48504 34.2371 8.82242 24.2515 16.6599 16.414C24.4974 8.57657 34.4829 3.23919 45.3538 1.07684C56.2247 -1.08552 67.4926 0.0242819 77.7328 4.26589C87.9729 8.5075 96.7253 15.6904 102.883 24.9063C109.041 34.1222 112.328 44.9571 112.328 56.041C112.328 70.904 106.423 85.1582 95.9138 95.6679C85.404 106.178 71.1498 112.082 56.2868 112.082ZM56.2868 0.55775C45.3133 0.55775 34.5862 3.81178 25.462 9.90836C16.3378 16.0049 9.2264 24.6702 5.02701 34.8085C0.827615 44.9467 -0.271138 56.1025 1.86969 66.8652C4.01053 77.6279 9.29479 87.5141 17.0543 95.2735C24.8137 103.033 34.6999 108.317 45.4626 110.458C56.2253 112.599 67.3811 111.5 77.5193 107.301C87.6576 103.101 96.3229 95.99 102.419 86.8658C108.516 77.7416 111.77 67.0145 111.77 56.041C111.77 48.7548 110.335 41.54 107.547 34.8085C104.758 28.0769 100.671 21.9605 95.5194 16.8084C90.3673 11.6563 84.2509 7.56945 77.5193 4.78116C70.7878 1.99287 63.573 0.55775 56.2868 0.55775Z" fill="#E3E3E3"/>
<path d="M40.567 83.694L19.6722 83.6685C19.3767 83.668 19.0935 83.5502 18.8847 83.3411C18.676 83.132 18.5587 82.8486 18.5587 82.5531V74.6134C18.5587 74.3474 18.6539 74.0901 18.8269 73.888C18.9999 73.6859 19.2395 73.5523 19.5024 73.5114L22.9802 72.9704C23.4049 72.9061 23.8063 72.735 24.1468 72.4731C24.4872 72.2112 24.7555 71.8671 24.9266 71.4731L40.8093 35.1055C40.8956 34.9071 41.0377 34.738 41.2183 34.6188C41.399 34.4996 41.6104 34.4356 41.8268 34.4344L49.7792 34.3975H49.7839C49.9961 34.3975 50.2039 34.458 50.3829 34.5719C50.5619 34.6857 50.7047 34.8483 50.7947 35.0404L57.6693 49.7648C57.7312 49.8976 57.7664 50.0414 57.7728 50.1879C57.7792 50.3343 57.7567 50.4806 57.7066 50.6184C57.6564 50.7561 57.5796 50.8827 57.4806 50.9908C57.3815 51.0989 57.2622 51.1864 57.1293 51.2483C56.9965 51.3103 56.8527 51.3455 56.7062 51.3519C56.5598 51.3583 56.4135 51.3358 56.2757 51.2856C56.1379 51.2355 56.0114 51.1587 55.9033 51.0597C55.7952 50.9606 55.7077 50.8413 55.6457 50.7084L49.0759 36.6337L42.5657 36.6639L26.9655 72.3657C26.6454 73.104 26.1431 73.749 25.5057 74.2402C24.8683 74.7315 24.1167 75.0529 23.3212 75.1745L20.7876 75.5684V81.4376L39.4516 81.4618V75.8161C38.7731 75.6864 38.1308 75.4111 37.569 75.0092C37.0071 74.6074 36.539 74.0885 36.197 73.4884C35.855 72.8883 35.6471 72.2211 35.5877 71.5329C35.5283 70.8447 35.6187 70.1518 35.8529 69.5019L37.112 66.0119C37.1896 65.7959 37.332 65.6091 37.5197 65.4769C37.7075 65.3448 37.9314 65.2738 38.161 65.2737H51.7913C52.0057 65.2737 52.2154 65.3355 52.3955 65.4517C52.5756 65.5679 52.7184 65.7335 52.8068 65.9287L54.2759 69.171C54.5562 69.7895 54.7014 70.4606 54.7018 71.1396C54.7022 71.8186 54.5579 72.4899 54.2785 73.1088C53.999 73.7276 53.5909 74.2798 53.0812 74.7284C52.5716 75.1771 51.9721 75.512 51.3229 75.7107V81.4611H73.2023V75.7617L70.75 75.5879C69.8775 75.5276 69.0385 75.2284 68.3248 74.723C67.6111 74.2177 67.0502 73.5257 66.7036 72.7228C66.5908 72.4523 66.589 72.1482 66.6985 71.8764C66.8081 71.6046 67.0202 71.3868 67.2891 71.2701C67.5579 71.1535 67.8619 71.1473 68.1353 71.253C68.4087 71.3586 68.6295 71.5677 68.7499 71.8348C68.9347 72.2631 69.2337 72.6322 69.6143 72.9018C69.9949 73.1714 70.4424 73.3309 70.9077 73.363L74.3977 73.61C74.6791 73.6301 74.9425 73.756 75.1348 73.9625C75.3271 74.169 75.4339 74.4406 75.4339 74.7228V82.5752C75.4339 82.8711 75.3164 83.1548 75.1072 83.364C74.898 83.5732 74.6143 83.6907 74.3185 83.6907H50.2094C49.9136 83.6907 49.6299 83.5732 49.4207 83.364C49.2115 83.1548 49.094 82.8711 49.094 82.5752V74.7973C49.0941 74.5167 49.2001 74.2464 49.3906 74.0404C49.5812 73.8344 49.8424 73.7078 50.1222 73.6859C50.5298 73.6533 50.9237 73.5232 51.2705 73.3065C51.6173 73.0898 51.9069 72.7929 52.1149 72.4408C52.3229 72.0886 52.4432 71.6917 52.4656 71.2834C52.488 70.875 52.4119 70.4673 52.2437 70.0945L51.0705 67.5066H38.9455L37.9522 70.2583C37.822 70.6209 37.7757 71.0082 37.8166 71.3913C37.8576 71.7743 37.9848 72.1432 38.1887 72.47C38.3926 72.7969 38.6679 73.0733 38.9939 73.2785C39.3199 73.4838 39.6882 73.6125 40.0711 73.655L40.6885 73.7221C40.9617 73.752 41.2142 73.8817 41.3976 74.0863C41.581 74.2909 41.6825 74.556 41.6825 74.8308V82.5759C41.6825 82.7224 41.6536 82.8674 41.5976 83.0028C41.5415 83.1381 41.4594 83.2611 41.3558 83.3647C41.2522 83.4682 41.1292 83.5504 40.9939 83.6064C40.8586 83.6625 40.7135 83.6914 40.567 83.6914V83.694ZM49.3208 59.585H42.1744C41.991 59.5848 41.8104 59.5394 41.6487 59.4527C41.487 59.3661 41.3491 59.2409 41.2474 59.0882C41.1456 58.9356 41.0831 58.7602 41.0653 58.5775C41.0476 58.3949 41.0751 58.2108 41.1456 58.0414L44.7201 49.5178C44.8055 49.3155 44.9487 49.143 45.1317 49.0217C45.3147 48.9004 45.5294 48.8358 45.749 48.8359C45.9688 48.8358 46.1837 48.9007 46.3667 49.0224C46.5498 49.1441 46.6928 49.3171 46.7779 49.5198L50.3497 58.0434C50.4201 58.2128 50.4477 58.397 50.4299 58.5796C50.4122 58.7622 50.3496 58.9376 50.2479 59.0902C50.1461 59.2429 50.0083 59.3681 49.8466 59.4548C49.6849 59.5414 49.5043 59.5868 49.3208 59.587V59.585ZM43.8516 57.3548H47.6436L45.7483 52.8326L43.8516 57.3548Z" fill="#444444"/>
<path d="M80.6333 29.6041H63.9042C63.7554 29.6078 63.6075 29.5816 63.469 29.5272C63.3305 29.4728 63.2043 29.3913 63.0978 29.2874C62.9913 29.1835 62.9067 29.0593 62.8489 28.9222C62.7911 28.7851 62.7614 28.6378 62.7614 28.489C62.7614 28.3402 62.7911 28.193 62.8489 28.0558C62.9067 27.9187 62.9913 27.7946 63.0978 27.6907C63.2043 27.5868 63.3305 27.5052 63.469 27.4508C63.6075 27.3964 63.7554 27.3703 63.9042 27.3739H79.5178V25.143H59.4437V27.3732H60.5592C60.7079 27.3696 60.8559 27.3957 60.9944 27.4501C61.1329 27.5045 61.2591 27.5861 61.3655 27.69C61.472 27.7939 61.5567 27.9181 61.6144 28.0552C61.6722 28.1923 61.702 28.3396 61.702 28.4884C61.702 28.6371 61.6722 28.7844 61.6144 28.9215C61.5567 29.0586 61.472 29.1828 61.3655 29.2867C61.2591 29.3906 61.1329 29.4722 60.9944 29.5266C60.8559 29.581 60.7079 29.6071 60.5592 29.6035H58.3289C58.0331 29.6035 57.7494 29.4859 57.5402 29.2768C57.331 29.0676 57.2135 28.7839 57.2135 28.488V24.0276C57.2135 23.7317 57.331 23.448 57.5402 23.2388C57.7494 23.0296 58.0331 22.9121 58.3289 22.9121H80.6339C80.9298 22.9121 81.2135 23.0296 81.4227 23.2388C81.6319 23.448 81.7494 23.7317 81.7494 24.0276V28.4894C81.7493 28.6358 81.7203 28.7809 81.6642 28.9162C81.6081 29.0515 81.5258 29.1744 81.4222 29.2779C81.3185 29.3814 81.1955 29.4635 81.0602 29.5195C80.9248 29.5755 80.7797 29.6042 80.6333 29.6041Z" fill="#444444"/>
<path d="M78.4024 34.0651H60.5585C60.2627 34.0651 59.979 33.9476 59.7698 33.7384C59.5606 33.5292 59.4431 33.2455 59.4431 32.9496V28.4885C59.4394 28.3398 59.4656 28.1918 59.52 28.0533C59.5744 27.9148 59.6559 27.7886 59.7598 27.6821C59.8638 27.5757 59.9879 27.491 60.125 27.4332C60.2621 27.3755 60.4094 27.3457 60.5582 27.3457C60.707 27.3457 60.8543 27.3755 60.9914 27.4332C61.1285 27.491 61.2526 27.5757 61.3566 27.6821C61.4605 27.7886 61.542 27.9148 61.5964 28.0533C61.6508 28.1918 61.677 28.3398 61.6733 28.4885V31.8342H77.2869V28.4885C77.2833 28.3398 77.3094 28.1918 77.3638 28.0533C77.4182 27.9148 77.4998 27.7886 77.6037 27.6821C77.7076 27.5757 77.8317 27.491 77.9689 27.4332C78.106 27.3755 78.2533 27.3457 78.402 27.3457C78.5508 27.3457 78.6981 27.3755 78.8352 27.4332C78.9723 27.491 79.0965 27.5757 79.2004 27.6821C79.3043 27.7886 79.3859 27.9148 79.4403 28.0533C79.4947 28.1918 79.5208 28.3398 79.5172 28.4885V32.9503C79.517 33.2459 79.3995 33.5294 79.1904 33.7384C78.9814 33.9474 78.698 34.0649 78.4024 34.0651Z" fill="#444444"/>
<path d="M75.0568 42.9875H63.9043C63.6084 42.9875 63.3247 42.87 63.1155 42.6608C62.9063 42.4516 62.7888 42.1679 62.7888 41.872V32.9498C62.7888 32.6539 62.9063 32.3702 63.1155 32.161C63.3247 31.9518 63.6084 31.8343 63.9043 31.8343H75.0568C75.2055 31.8307 75.3535 31.8568 75.4919 31.9112C75.6304 31.9656 75.7566 32.0472 75.8631 32.1511C75.9696 32.255 76.0542 32.3791 76.112 32.5163C76.1698 32.6534 76.1996 32.8006 76.1996 32.9494C76.1996 33.0982 76.1698 33.2455 76.112 33.3826C76.0542 33.5197 75.9696 33.6439 75.8631 33.7478C75.7566 33.8517 75.6304 33.9333 75.4919 33.9877C75.3535 34.0421 75.2055 34.0682 75.0568 34.0645H65.019V40.7559H73.9413V36.2961C73.9377 36.1474 73.9638 35.9994 74.0182 35.8609C74.0726 35.7224 74.1542 35.5962 74.2581 35.4898C74.362 35.3833 74.4861 35.2986 74.6232 35.2409C74.7604 35.1831 74.9076 35.1533 75.0564 35.1533C75.2052 35.1533 75.3525 35.1831 75.4896 35.2409C75.6267 35.2986 75.7509 35.3833 75.8548 35.4898C75.9587 35.5962 76.0402 35.7224 76.0946 35.8609C76.149 35.9994 76.1752 36.1474 76.1715 36.2961V41.872C76.1715 42.1679 76.054 42.4516 75.8448 42.6608C75.6356 42.87 75.3519 42.9875 75.0561 42.9875H75.0568Z" fill="#444444"/>
<path d="M69.4807 51.9093C69.2275 51.9096 68.9817 51.8235 68.7841 51.665L57.6316 42.7428C57.451 42.5985 57.3196 42.4017 57.2558 42.1795C57.1919 41.9573 57.1987 41.7207 57.2753 41.5026C57.3518 41.2845 57.4942 41.0955 57.6829 40.9619C57.8715 40.8283 58.0971 40.7566 58.3283 40.7568H80.6332C80.8642 40.757 81.0895 40.8289 81.2779 40.9626C81.4663 41.0962 81.6085 41.2851 81.685 41.5031C81.7614 41.721 81.7683 41.9574 81.7047 42.1794C81.6411 42.4015 81.5101 42.5983 81.3299 42.7428L70.1767 51.6644C69.9794 51.8229 69.7339 51.9093 69.4807 51.9093ZM61.5075 42.9871L69.4807 49.363L77.454 42.9871H61.5075Z" fill="#444444"/>
<path d="M76.6816 66.7062C76.5349 66.7063 76.3897 66.6774 76.2542 66.6212C76.1188 66.565 75.9958 66.4826 75.8923 66.3787L72.2379 62.7169C72.1344 62.6132 72.0524 62.4901 71.9964 62.3547C71.9405 62.2193 71.9118 62.0743 71.912 61.9278C71.9121 61.7813 71.9412 61.6363 71.9974 61.501C72.0536 61.3657 72.1359 61.2428 72.2396 61.1394C72.3432 61.0359 72.4663 60.9538 72.6017 60.8979C72.7371 60.842 72.8822 60.8133 73.0287 60.8135C73.1752 60.8136 73.3202 60.8426 73.4554 60.8988C73.5907 60.955 73.7136 61.0373 73.8171 61.141L77.4681 64.8015C77.6239 64.9576 77.7299 65.1563 77.7728 65.3726C77.8156 65.5889 77.7934 65.813 77.709 66.0167C77.6245 66.2204 77.4816 66.3944 77.2982 66.5169C77.1149 66.6394 76.8994 66.7048 76.6789 66.7049L76.6816 66.7062Z" fill="#A04F55"/>
<path d="M66.074 56.0757C65.9274 56.0759 65.7821 56.047 65.6467 55.9908C65.5112 55.9346 65.3882 55.8522 65.2848 55.7482L61.7143 52.1703C61.5119 51.9596 61.4002 51.6779 61.4034 51.3857C61.4065 51.0935 61.5242 50.8143 61.731 50.6079C61.9379 50.4016 62.2175 50.2847 62.5096 50.2823C62.8018 50.2799 63.0832 50.3922 63.2935 50.5951L66.864 54.173C67.0195 54.3292 67.1254 54.5279 67.1681 54.7442C67.2108 54.9604 67.1885 55.1844 67.1039 55.388C67.0194 55.5916 66.8765 55.7655 66.6932 55.8879C66.5099 56.0103 66.2944 56.0757 66.074 56.0757Z" fill="#A04F55"/>
<path d="M79.5138 59.5016L74.3238 59.4962C74.1751 59.4998 74.0271 59.4737 73.8886 59.4193C73.7502 59.3649 73.624 59.2833 73.5175 59.1794C73.411 59.0755 73.3264 58.9514 73.2686 58.8142C73.2108 58.6771 73.181 58.5299 73.181 58.3811C73.181 58.2323 73.2108 58.085 73.2686 57.9479C73.3264 57.8108 73.411 57.6866 73.5175 57.5827C73.624 57.4788 73.7502 57.3973 73.8886 57.3429C74.0271 57.2885 74.1751 57.2623 74.3238 57.266L79.5138 57.2713C79.6626 57.2677 79.8105 57.2938 79.949 57.3482C80.0875 57.4026 80.2137 57.4842 80.3202 57.5881C80.4267 57.692 80.5113 57.8162 80.5691 57.9533C80.6269 58.0904 80.6566 58.2377 80.6566 58.3864C80.6566 58.5352 80.6269 58.6825 80.5691 58.8196C80.5113 58.9567 80.4267 59.0809 80.3202 59.1848C80.2137 59.2887 80.0875 59.3703 79.949 59.4247C79.8105 59.4791 79.6626 59.5052 79.5138 59.5016Z" fill="#A04F55"/>
<path d="M64.6411 59.4859L59.4477 59.4806C59.299 59.4842 59.151 59.4581 59.0125 59.4037C58.8741 59.3493 58.7479 59.2677 58.6414 59.1638C58.5349 59.0599 58.4503 58.9357 58.3925 58.7986C58.3347 58.6615 58.3049 58.5142 58.3049 58.3654C58.3049 58.2167 58.3347 58.0694 58.3925 57.9323C58.4503 57.7952 58.5349 57.671 58.6414 57.5671C58.7479 57.4632 58.8741 57.3816 59.0125 57.3272C59.151 57.2728 59.299 57.2467 59.4477 57.2503L64.6411 57.2557C64.9321 57.2628 65.2088 57.3835 65.4121 57.5918C65.6154 57.8002 65.7292 58.0797 65.7292 58.3708C65.7292 58.6619 65.6154 58.9415 65.4121 59.1498C65.2088 59.3582 64.9321 59.4788 64.6411 59.4859Z" fill="#A04F55"/>
<path d="M72.8969 56.0835C72.6763 56.0834 72.4606 56.0179 72.2772 55.8953C72.0937 55.7726 71.9508 55.5983 71.8665 55.3944C71.7821 55.1905 71.7601 54.9662 71.8033 54.7498C71.8465 54.5334 71.9528 54.3347 72.109 54.1788L75.6842 50.6116C75.7871 50.5049 75.9103 50.4198 76.0465 50.3612C76.1827 50.3026 76.3292 50.2718 76.4775 50.2705C76.6257 50.2693 76.7727 50.2976 76.9099 50.3538C77.0471 50.41 77.1717 50.493 77.2765 50.5979C77.3812 50.7028 77.464 50.8276 77.52 50.9649C77.576 51.1022 77.604 51.2492 77.6025 51.3975C77.6009 51.5457 77.5699 51.6922 77.5111 51.8283C77.4523 51.9644 77.3669 52.0874 77.26 52.1902L73.6848 55.7573C73.5814 55.8608 73.4586 55.9429 73.3234 55.9989C73.1882 56.0549 73.0432 56.0836 72.8969 56.0835Z" fill="#A04F55"/>
<path d="M62.268 66.6934C62.0473 66.6933 61.8317 66.6278 61.6482 66.5051C61.4648 66.3825 61.3219 66.2082 61.2375 66.0043C61.1532 65.8004 61.1312 65.5761 61.1744 65.3597C61.2176 65.1433 61.3239 64.9446 61.4801 64.7886L65.2553 61.0208C65.3582 60.9141 65.4814 60.829 65.6176 60.7704C65.7538 60.7118 65.9003 60.681 66.0486 60.6797C66.1968 60.6785 66.3438 60.7067 66.481 60.7629C66.6182 60.8192 66.7428 60.9021 66.8476 61.0071C66.9523 61.112 67.0351 61.2368 67.0911 61.374C67.1471 61.5113 67.1751 61.6584 67.1736 61.8067C67.172 61.9549 67.141 62.1014 67.0822 62.2375C67.0234 62.3736 66.938 62.4966 66.8311 62.5993L63.0559 66.3672C62.9525 66.4707 62.8297 66.5528 62.6945 66.6087C62.5592 66.6647 62.4143 66.6935 62.268 66.6934Z" fill="#A04F55"/>
<path d="M69.4754 62.1035C69.7709 62.1035 70.0543 62.2209 70.2632 62.4298C70.4722 62.6388 70.5895 62.9221 70.5895 63.2176V68.6385C70.5895 68.785 70.5607 68.93 70.5046 69.0654C70.4486 69.2007 70.3664 69.3237 70.2628 69.4272C70.1593 69.5308 70.0363 69.613 69.901 69.669C69.7656 69.7251 69.6206 69.7539 69.4741 69.7539C69.1786 69.7539 68.8952 69.6366 68.6863 69.4276C68.4774 69.2187 68.36 68.9353 68.36 68.6398V63.219C68.36 62.9231 68.4775 62.6394 68.6867 62.4302C68.8959 62.221 69.1796 62.1035 69.4754 62.1035Z" fill="#A04F55"/>
<path d="M69.4822 59.5167C69.1865 59.5158 68.9032 59.3975 68.6947 59.1879C68.4862 58.9782 68.3694 58.6943 68.3701 58.3986L68.3916 50.7918C68.3925 50.4965 68.5104 50.2137 68.7195 50.0052C68.9286 49.7967 69.2118 49.6797 69.507 49.6797C69.8028 49.6806 70.086 49.7989 70.2946 50.0085C70.5031 50.2182 70.6199 50.5021 70.6191 50.7978L70.5977 58.4046C70.5968 58.6999 70.4789 58.9827 70.2698 59.1912C70.0607 59.3997 69.7775 59.5167 69.4822 59.5167Z" fill="#444444"/>
</svg>
